<svg xmlns="http://www.w3.org/2000/svg" width="44" height="44" viewBox="0 0 44 44" fill="none">
  <circle cx="22" cy="22" r="20.0105" fill="#9D4F2A" stroke="white" stroke-width="2.02105"/>
  <path d="M30.636 27.2328C29.9306 28.5622 29.5327 31.0018 26.0963 31.1361H21.1181C21.525 30.8899 21.9048 30.5989 22.2666 30.2677C26.3721 27.3268 27.5342 20.9212 30.5953 18.3205C31.3865 17.7117 32.2185 17.3491 33.1273 17.2104C33.3308 17.188 33.6111 17.1656 34 17.1522L33.9638 17.1432C33.9638 17.1432 33.9864 17.1432 34 17.1432V16.3151C29.5372 16.3151 27.3714 17.5237 25.4633 18.5891C24.6901 19.0188 23.9576 19.4261 23.1166 19.7261C24.672 16.812 26.0963 14.0009 28.2486 13.1235C28.6193 12.9848 29.0082 12.8953 29.4197 12.8505C29.4649 12.8505 29.5146 12.846 29.5644 12.8415C29.5779 12.8415 29.5915 12.8415 29.605 12.8326C29.7181 12.8236 29.8311 12.8192 29.9487 12.8192V12H15.7691L15.7329 12.085L13.766 16.4449L14.5844 16.7359C15.2943 15.3975 15.6877 12.9445 19.1738 12.8281H26.978C26.8559 12.8997 26.7339 12.9803 26.6163 13.0609C24.0887 14.4127 22.5876 17.3133 21.1226 20.1065C19.1602 20.1334 17.0396 19.2739 17.0396 19.2739C17.0215 19.256 16.601 20.6079 16.601 20.6079C17.849 20.7869 19.0427 21.1092 20.6433 21.0152C19.219 23.6831 17.7224 26.0779 15.2627 26.7001C14.8874 26.7807 14.4985 26.8209 14.0961 26.8209C11.8308 26.8209 10.7818 25.8227 10.3025 24.9857C10.2211 24.8424 10.1533 24.6992 10.09 24.547C9.66949 23.3384 10.1126 22.1522 10.818 21.4987L10.1171 21.1137L9.6288 20.8227C8.8104 22.1791 8.78779 24.0188 9.57906 25.393C10.411 26.8433 12.0162 27.6446 14.0961 27.6446C14.0961 27.6446 14.5754 27.6312 14.8015 27.6088C18.577 27.3089 20.7247 24.1038 22.565 20.7556C23.8536 20.4423 24.8484 19.8827 25.8748 19.3142C27.1227 18.6159 28.3978 17.9042 30.3195 17.4969C29.9487 17.761 29.6186 18.0788 29.2659 18.3876C25.5221 21.6777 23.7948 27.7699 20.7835 30.3796C20.0148 30.863 19.1512 31.1406 18.1519 31.1406H16.271C14.5663 31.0913 13.1647 30.7422 11.6906 30.3662C11.6364 30.7466 11.564 31.6598 11.5007 32L15.3983 31.9642H26.3902H29.4558H29.4604L29.8266 31.1406L31.4589 27.5237L30.6405 27.2328H30.636Z" fill="#F2EDE4"/>
</svg>