<svg xmlns="http://www.w3.org/2000/svg" width="113" height="104" viewBox="0 0 113 104" fill="none">
  <path d="M0.502768 95.8635C1.07124 95.295 2.00706 95.295 2.57553 95.8635L4.36393 97.6519L6.15525 95.8635C6.42849 95.5996 6.7938 95.4519 7.17375 95.4519C7.97765 95.4519 8.63965 96.1139 8.63965 96.9178C8.63965 97.2977 8.49189 97.663 8.22803 97.9363L6.4367 99.7246L8.22803 101.516C8.49189 101.789 8.63965 102.155 8.63965 102.534C8.63965 103.338 7.97765 104 7.17375 104C6.7938 104 6.42849 103.853 6.15525 103.589L4.36393 101.797L2.57553 103.589C2.30229 103.853 1.93699 104 1.55703 104C0.753135 104 0.0911379 103.338 0.0911379 102.534C0.0911379 102.155 0.238907 101.789 0.502768 101.516L2.29116 99.7246L0.502768 97.9363C-0.0657063 97.3678 -0.0657063 96.432 0.502768 95.8635Z" fill="#36B34A"/>
  <path d="M108.693 26.4284C108.124 26.9968 107.189 26.9968 106.62 26.4284L105.867 25.6749L105.113 26.4284C104.837 26.7054 104.461 26.8611 104.069 26.8611C103.26 26.8611 102.594 26.1953 102.594 25.3861C102.594 24.9953 102.75 24.6203 103.026 24.3439L103.779 23.5904L103.026 22.8457C102.762 22.5725 102.614 22.2072 102.614 21.8272C102.614 21.0233 103.276 20.3613 104.08 20.3613C104.46 20.3613 104.825 20.5091 105.098 20.773L105.852 21.5264L106.605 20.773C106.879 20.5091 107.244 20.3613 107.624 20.3613C108.428 20.3613 109.09 21.0233 109.09 21.8272C109.09 22.2072 108.942 22.5725 108.678 22.8457L107.925 23.6021L108.693 24.3439C108.971 24.6192 109.128 24.9947 109.128 25.3861C109.128 25.7775 108.971 26.1531 108.693 26.4284Z" fill="#36B34A"/>
  <path d="M69.2642 97.9667H87.4618C88.266 97.9667 88.9277 98.6284 88.9277 99.4326C88.9277 100.237 88.266 100.898 87.4618 100.898H69.2642C68.4601 100.898 67.7983 100.237 67.7983 99.4326C67.7983 98.6284 68.4601 97.9667 69.2642 97.9667Z" fill="#36B34A"/>
  <path d="M99.1224 60.9618H110.773C111.578 60.9618 112.239 61.6235 112.239 62.4277C112.239 63.2319 111.578 63.8936 110.773 63.8936H99.1224C98.3183 63.8936 97.6565 63.2319 97.6565 62.4277C97.6565 61.6235 98.3183 60.9618 99.1224 60.9618Z" fill="#36B34A"/>
  <path d="M4.93495 9.8684C2.22803 9.8684 0.00074482 7.64112 0.00074482 4.9342C0.00074482 2.22728 2.22803 0 4.93495 0C7.64187 0 9.86914 2.22728 9.86914 4.9342C9.86592 7.63994 7.64069 9.86517 4.93495 9.8684ZM4.93495 2.93179C3.83641 2.93179 2.93253 3.83566 2.93253 4.9342C2.93253 6.03274 3.83641 6.93661 4.93495 6.93661C6.03349 6.93661 6.93735 6.03274 6.93735 4.9342C6.9309 3.84005 6.02909 2.94351 4.93495 2.94351V2.93179Z" fill="#36B34A"/>
  <path d="M87.459 81.7388C85.9775 81.7388 84.7764 80.5378 84.7764 79.0562C84.7764 77.5747 85.9775 76.3737 87.459 76.3737C88.9406 76.3737 90.1416 77.5747 90.1416 79.0562C90.1416 80.5378 88.9406 81.7388 87.459 81.7388Z" fill="#36B34A"/>
  <path d="M98.041 49.6553H103.409C104.213 49.6553 104.875 50.317 104.875 51.1212C104.875 51.9254 104.213 52.5871 103.409 52.5871H98.041C97.2368 52.5871 96.5751 51.9254 96.5751 51.1212C96.5751 50.317 97.2368 49.6553 98.041 49.6553Z" fill="#36B34A"/>
  <path d="M83.6127 61.8032C82.1225 60.2145 79.8308 59.7084 77.7921 60.4957C75.4442 61.3955 72.7729 62.9561 69.8767 65.1352C68.6254 66.0772 67.0367 66.7661 65.2933 67.2722C65.6167 65.5992 65.2511 63.3778 63.6484 62.1547C63.0298 61.6907 62.2987 61.4236 61.427 61.3392C57.0826 60.9596 50.8121 59.1882 43.754 56.3623C34.4888 52.6646 23.8883 61.3674 23.4384 61.747C23.3541 61.8173 23.2978 61.9157 23.2416 62.0001L22.4683 60.6644C22.2856 60.341 21.9763 60.102 21.6107 60.0036C21.2592 59.9052 20.8656 59.9614 20.5422 60.1442L9.84273 66.3303C9.16788 66.724 8.94293 67.5816 9.32254 68.2564L20.5142 87.6299C20.697 87.9533 21.0063 88.1923 21.3718 88.2907C21.4843 88.3189 21.6108 88.3329 21.7374 88.3329C21.9764 88.3329 22.2295 88.2626 22.4403 88.1502L33.1398 81.964C33.8147 81.5704 34.0396 80.7128 33.66 80.0379L32.7883 78.5195C36.2328 77.1418 40.4085 77.8306 45.5403 78.6882C49.1675 79.2928 53.1323 79.9677 57.477 79.9677C59.0376 79.9677 60.6403 79.8833 62.2993 79.6724C71.5079 78.5336 78.8187 73.4582 83.3465 69.3805C84.4431 68.3683 85.0758 66.9483 85.0758 65.458C85.0758 64.0802 84.5556 62.7867 83.6136 61.8026L83.6127 61.8032ZM22.2574 85.0009L12.4721 68.0595L20.739 63.2793L29.5822 78.5903V78.6324L29.6104 78.6606L30.5102 80.2212L22.2433 85.0013L22.2574 85.0009ZM81.4613 67.3001C78.0168 70.4071 70.9031 75.7637 61.9609 76.8748C56.1122 77.6059 50.7413 76.7061 46.0174 75.9047C40.4921 74.9768 35.6418 74.1754 31.3813 76.0453L24.5344 64.1788C24.8015 64.1507 25.0546 64.0663 25.2655 63.8835C25.3639 63.7992 35.0364 55.8838 42.7269 58.9627C50.0237 61.8871 56.5892 63.7148 61.2007 64.1225C61.3272 64.1225 61.6787 64.1647 61.9599 64.3756C62.4941 64.7833 62.7472 65.8518 62.5363 66.7938C62.5363 66.8079 62.5363 66.836 62.5222 66.85C62.3816 67.3702 61.9739 67.8201 61.4256 68.0732C55.1832 68.9871 48.6592 68.2841 48.5612 68.2841C47.7738 68.2138 47.099 68.7621 47.0146 69.5213C46.9302 70.2946 47.4785 70.9835 48.2518 71.0679C48.6033 71.1101 53.1445 71.5881 58.4168 71.2085H58.4309C63.0423 70.8711 68.1883 69.8869 71.5625 67.3563C74.9087 64.8397 77.3409 63.6446 78.8031 63.0963C79.7731 62.7167 80.8557 62.9557 81.5727 63.7149C82.0226 64.1789 82.2617 64.7975 82.2617 65.4442C82.2617 66.1472 81.9664 66.808 81.4603 67.286L81.4613 67.3001Z" fill="#9D4F2A"/>
  <path d="M47.1148 31.1399C52.2184 31.1399 56.38 26.9924 56.38 21.8747C56.38 16.757 52.2325 12.6095 47.1148 12.6095C41.9971 12.6095 37.8496 16.757 37.8496 21.8747C37.8496 26.9924 41.9971 31.1399 47.1148 31.1399ZM47.1148 15.4358C50.6718 15.4358 53.5681 18.332 53.5681 21.889C53.5681 25.446 50.6718 28.3423 47.1148 28.3423C43.5578 28.3423 40.6616 25.446 40.6616 21.889C40.6616 18.332 43.5578 15.4358 47.1148 15.4358Z" fill="#9D4F2A"/>
  <path d="M31.4118 53.3954C32.1851 53.3954 32.8177 52.7627 32.8177 51.9894C32.8177 44.1022 39.2288 37.6908 47.1164 37.6908C55.004 37.6908 61.4151 44.1018 61.4151 51.9894C61.4151 52.7627 62.0477 53.3954 62.821 53.3954C63.5943 53.3954 64.2269 52.7627 64.2269 51.9894C64.2269 42.556 56.5506 34.8789 47.1164 34.8789C37.6822 34.8789 30.0059 42.5553 30.0059 51.9894C30.0059 52.7627 30.6385 53.3954 31.4118 53.3954Z" fill="#9D4F2A"/>
  <path d="M26.1666 33.2624C30.5531 33.2624 34.1242 29.6913 34.1242 25.3048C34.1242 20.9183 30.5531 17.3613 26.1666 17.3613C21.7801 17.3613 18.209 20.9324 18.209 25.3048C18.209 29.6772 21.7801 33.2624 26.1666 33.2624ZM26.1666 20.1731C29.0065 20.1731 31.3124 22.4788 31.3124 25.3047C31.3124 28.1306 29.0066 30.4505 26.1666 30.4505C23.3266 30.4505 21.0208 28.1448 21.0208 25.3047C21.0208 22.4647 23.3266 20.1731 26.1666 20.1731Z" fill="#9D4F2A"/>
  <path d="M13.0784 51.8065C13.8517 51.8065 14.4844 51.1738 14.4844 50.4006C14.4844 43.9614 19.7285 38.7176 26.1673 38.7176C27.6435 38.7176 29.0776 38.9847 30.4413 39.519C31.1724 39.8002 31.9738 39.4487 32.269 38.7317C32.5502 38.0146 32.1987 37.1992 31.4817 36.904C29.7946 36.2432 28.009 35.9058 26.1814 35.9058C18.1816 35.9058 11.6865 42.4153 11.6865 50.4006C11.6865 51.1739 12.3192 51.8065 13.0925 51.8065L13.0784 51.8065Z" fill="#9D4F2A"/>
  <path d="M68.0641 33.2624C72.4506 33.2624 76.0217 29.6913 76.0217 25.3048C76.0217 20.9183 72.4506 17.3613 68.0641 17.3613C63.6776 17.3613 60.1064 20.9324 60.1064 25.3048C60.1064 29.6772 63.6776 33.2624 68.0641 33.2624ZM68.0641 20.1731C70.904 20.1731 73.2098 22.4788 73.2098 25.3047C73.2098 28.1306 70.9041 30.4505 68.0641 30.4505C65.224 30.4505 62.9183 28.1448 62.9183 25.3047C62.9183 22.4647 65.224 20.1731 68.0641 20.1731Z" fill="#9D4F2A"/>
  <path d="M62.7494 36.904C62.0323 37.1852 61.6668 38.0007 61.9621 38.7317C62.2573 39.4627 63.0587 39.8142 63.7897 39.519C65.1535 38.9848 66.5875 38.7176 68.0638 38.7176C74.5029 38.7176 79.7467 43.9617 79.7467 50.4006C79.7467 51.1739 80.3794 51.8065 81.1526 51.8065C81.9259 51.8065 82.5586 51.1739 82.5586 50.4006C82.5586 42.4009 76.0491 35.9058 68.0638 35.9058C66.2361 35.9058 64.4505 36.2432 62.7634 36.904L62.7494 36.904Z" fill="#9D4F2A"/>
</svg>