<svg xmlns="http://www.w3.org/2000/svg" width="131" height="64" viewBox="0 0 131 64" fill="none">
  <path d="M41.2709 61.2518C40.8499 60.9074 40.3361 60.7196 39.8719 60.7196C38.9619 60.7196 38.25 61.4271 38.25 62.2974C38.25 63.1677 38.9557 63.8752 39.8966 63.8752C40.3547 63.8752 40.8933 63.6999 41.2771 63.4118V62.0782H39.7852V62.6167H40.6704V63.1176C40.4847 63.2428 40.1876 63.3179 39.9214 63.3179C39.2652 63.3179 38.9186 62.8233 38.9186 62.3036C38.9186 61.7464 39.3085 61.2894 39.8719 61.2894C40.1752 61.2894 40.5776 61.4271 40.8376 61.665L41.2647 61.258L41.2709 61.2518Z" fill="#FCFAF9"/>
  <path d="M43.1096 62.2911C43.1096 61.7401 43.543 61.2831 44.0939 61.2831C44.6449 61.2831 45.0967 61.7401 45.0967 62.2911C45.0967 62.8421 44.6572 63.3179 44.0939 63.3179C43.5306 63.3179 43.1096 62.8546 43.1096 62.2911ZM42.4287 62.2911C42.4287 63.1739 43.1592 63.8752 44.0877 63.8752C45.0163 63.8752 45.7653 63.1739 45.7653 62.2911C45.7653 61.4083 45.0163 60.7196 44.0877 60.7196C43.1592 60.7196 42.4287 61.4271 42.4287 62.2911Z" fill="#FCFAF9"/>
  <path d="M47.0098 60.8073V63.7875H49.3807V63.224H47.6536V60.8073H47.0098Z" fill="#FCFAF9"/>
  <path d="M51.1008 63.224V61.377H51.8189C52.1656 61.377 52.3203 61.4647 52.4751 61.6149C52.636 61.784 52.7227 62.0219 52.7227 62.3036C52.7227 62.6042 52.6236 62.8421 52.4503 63.0174C52.2956 63.1551 52.1594 63.2303 51.8189 63.2303H51.1008V63.224ZM51.8375 63.7875C52.3946 63.7875 52.7103 63.6372 52.9641 63.3931C53.2365 63.1176 53.3851 62.7294 53.3851 62.2974C53.3851 61.8654 53.2427 61.5022 52.9889 61.233C52.7289 60.9638 52.376 60.8073 51.8375 60.8073H50.457V63.7812H51.8375V63.7875Z" fill="#FCFAF9"/>
  <path d="M57.6252 63.1487C57.4147 63.2739 57.229 63.324 57.0866 63.324C56.8638 63.324 56.579 63.2176 56.579 62.8983C56.579 62.6541 56.7523 62.5038 56.9257 62.4162L57.6314 63.1487H57.6252ZM58.2752 61.1264C58.0833 61.0325 57.7737 60.901 57.4395 60.901C56.938 60.901 56.5047 61.1953 56.5047 61.6648C56.5047 61.8151 56.5481 61.9403 56.6347 62.0718C56.2447 62.2221 55.9414 62.4788 55.9414 62.9484C55.9414 63.5932 56.5109 63.8562 57 63.8562C57.2909 63.8562 57.6561 63.7623 57.9904 63.5306L58.238 63.7873H59.0366L58.4361 63.155C58.6342 62.9484 58.8385 62.6979 59.049 62.3723L58.5723 62.1344C58.4052 62.4036 58.238 62.6165 58.0833 62.7856L57.5323 62.2096C57.4457 62.1219 57.1485 61.8589 57.1485 61.6648C57.1485 61.5584 57.2414 61.452 57.4395 61.452C57.6376 61.452 57.879 61.5459 58.009 61.621L58.2814 61.1327L58.2752 61.1264Z" fill="#FCFAF9"/>
  <path d="M62.287 63.224V61.377H63.0051C63.3518 61.377 63.5065 61.4647 63.6551 61.6149C63.816 61.784 63.9027 62.0219 63.9027 62.3036C63.9027 62.6042 63.8037 62.8421 63.6303 63.0174C63.4756 63.1551 63.3394 63.2303 62.9989 63.2303H62.2808L62.287 63.224ZM63.0299 63.7875C63.5808 63.7875 63.9027 63.6372 64.1565 63.3931C64.4289 63.1176 64.5774 62.7294 64.5774 62.2974C64.5774 61.8654 64.4351 61.5022 64.1813 61.233C63.9213 60.9638 63.5684 60.8073 63.0299 60.8073H61.6494V63.7812H63.0299V63.7875Z" fill="#FCFAF9"/>
  <path d="M66.4719 60.8073H65.8281V63.7812H66.4719V60.8073Z" fill="#FCFAF9"/>
  <path d="M69.1398 61.5897H69.1645L69.6102 62.6416H68.6941L69.1398 61.5897ZM67.5303 63.7873H68.2112L68.4774 63.1612H69.8393L70.1116 63.7873H70.8173L69.4555 60.8134H68.8983L67.5365 63.7873H67.5303Z" fill="#FCFAF9"/>
  <path d="M75.019 63.7875V60.8073H74.4186L73.4591 62.4414H73.4529L72.4872 60.8073H71.8682V63.7875H72.4934V62.0595H72.5182L73.3415 63.4494H73.521L74.3443 62.0595H74.3691V63.7875H75.019Z" fill="#FCFAF9"/>
  <path d="M76.9345 62.2911C76.9345 61.7401 77.3678 61.2831 77.9188 61.2831C78.4697 61.2831 78.9216 61.7401 78.9216 62.2911C78.9216 62.8421 78.4821 63.3179 77.9188 63.3179C77.3555 63.3179 76.9345 62.8546 76.9345 62.2911ZM76.2598 62.2911C76.2598 63.1739 76.9902 63.8752 77.9188 63.8752C78.8473 63.8752 79.5964 63.1739 79.5964 62.2911C79.5964 61.4083 78.8473 60.7196 77.9188 60.7196C76.9902 60.7196 76.2598 61.4271 76.2598 62.2911Z" fill="#FCFAF9"/>
  <path d="M82.8954 60.8073V62.6543H82.8892L81.3911 60.8073H80.834V63.7875H81.484V61.9468H81.4902L82.982 63.7875H83.5392V60.8073H82.8954Z" fill="#FCFAF9"/>
  <path d="M85.6438 63.224V61.377H86.3619C86.7085 61.377 86.8633 61.4647 87.0119 61.6149C87.1728 61.784 87.2595 62.0219 87.2595 62.3036C87.2595 62.6042 87.1604 62.8421 86.9871 63.0174C86.8323 63.1551 86.6962 63.2303 86.3557 63.2303H85.6376L85.6438 63.224ZM86.3804 63.7875C86.9314 63.7875 87.2533 63.6372 87.5071 63.3931C87.7795 63.1176 87.928 62.7294 87.928 62.2974C87.928 61.8654 87.7856 61.5022 87.5318 61.233C87.2719 60.9638 86.919 60.8073 86.3804 60.8073H85V63.7812H86.3804V63.7875Z" fill="#FCFAF9"/>
  <path d="M91.6225 61.1203C91.3687 60.945 90.8549 60.7196 90.2421 60.7196C89.685 60.7196 89.0288 60.945 89.0288 61.665C89.0288 62.4226 89.784 62.4915 90.4278 62.5353C90.8673 62.5729 91.1706 62.6355 91.1706 62.9235C91.1706 63.2115 90.8735 63.3492 90.5021 63.3492C89.9078 63.3492 89.4869 63.0487 89.2393 62.8484L88.874 63.2929C89.2145 63.5746 89.7283 63.8814 90.4897 63.8814C91.2078 63.8814 91.8144 63.5934 91.8144 62.8609C91.8144 62.0407 90.9787 61.9781 90.4402 61.9405C90.0564 61.9092 89.6726 61.8904 89.6726 61.6275C89.6726 61.3645 89.9326 61.2643 90.2297 61.2643C90.7187 61.2643 91.084 61.4521 91.2635 61.5836L91.6349 61.1266L91.6225 61.1203Z" fill="#FCFAF9"/>
  <path d="M5.60845 50.4639C9.76835 50.4639 11.1983 47.9345 11.1983 45.6868V38.3113H8.85837V45.4551C8.85837 47.3397 8.2022 48.9926 5.49702 48.9926C3.15707 48.9926 1.99948 47.0141 1.52282 46.2377L0 47.4524C0.340469 48.0722 1.81996 50.4639 5.60845 50.4639Z" fill="#FCFAF9"/>
  <path d="M16.6514 50.1634H27.7816V48.7171H19.0099V44.7414H23.7393V43.3389H19.0099V39.7325H27.3049V38.3113H16.6514V50.1634Z" fill="#FCFAF9"/>
  <path d="M35.2968 50.1634H36.733L40.1624 41.2727L43.5671 50.1634H44.9971L49.4975 38.3113H47.7456L44.6133 46.9515L41.4315 38.3113H39.7539L36.4606 46.9515L33.3902 38.3113H30.8955L35.2968 50.1634Z" fill="#FCFAF9"/>
  <path d="M53.5156 50.1634H64.6459V48.7171H55.8803V44.7414H60.6036V43.3389H55.8803V39.7325H64.1692V38.3113H53.5156V50.1634Z" fill="#FCFAF9"/>
  <path d="M68.6689 50.1634H78.1402V48.7171H71.0275V38.3113H68.6689V50.1634Z" fill="#FCFAF9"/>
  <path d="M91.8816 49.2933C88.7246 49.2933 86.886 47.0894 86.886 44.2406C86.886 41.3919 88.7246 39.188 91.8816 39.188C95.0387 39.188 96.8091 41.4169 96.8091 44.2406C96.8091 47.0644 95.0139 49.2933 91.8816 49.2933ZM91.8816 50.5768C96.0415 50.5768 99.4215 47.7531 99.4215 44.2344C99.4215 40.7157 96.0353 37.8732 91.8816 37.8732C87.7279 37.8732 84.3418 40.7219 84.3418 44.2344C84.3418 47.7468 87.7465 50.5768 91.8816 50.5768Z" fill="#FCFAF9"/>
  <path d="M103.354 50.1634H104.988V41.2289L112.986 50.1634H114.738V38.3113H113.122V46.9265L105.464 38.3113H103.354V50.1634Z" fill="#FCFAF9"/>
  <path d="M119.869 50.1634H130.999V48.7171H122.228V44.7414H126.957V43.3389H122.228V39.7325H130.523V38.3113H119.869V50.1634Z" fill="#FCFAF9"/>
  <path d="M77.5392 21.3063C76.5735 23.1658 76.0287 26.5781 71.3241 26.7659H64.5085C65.0656 26.4215 65.5856 26.0146 66.0808 25.5513C71.7017 21.4378 73.2926 12.4782 77.4834 8.84057C78.5667 7.98907 79.7058 7.48193 80.95 7.28784C81.2286 7.25653 81.6124 7.22523 82.1448 7.20644L82.0952 7.19392C82.0952 7.19392 82.1262 7.19392 82.1448 7.19392V6.03563C76.0349 6.03563 73.0697 7.72611 70.4574 9.21624C69.3989 9.81729 68.396 10.387 67.2446 10.8065C69.3741 6.73061 71.3241 2.79868 74.2707 1.57152C74.7783 1.37743 75.3106 1.25221 75.8739 1.1896C75.9359 1.1896 76.0039 1.18333 76.072 1.17707C76.0906 1.17707 76.1092 1.17707 76.1278 1.16455C76.2825 1.15203 76.4373 1.14577 76.5982 1.14577V0H57.1853L57.1358 0.11896L54.443 6.2172L55.5635 6.62417C56.5353 4.75212 57.0739 1.32108 61.8466 1.15829H72.5312C72.364 1.25847 72.1969 1.37117 72.0359 1.48386C68.5755 3.37469 66.5203 7.43184 64.5147 11.3387C61.8281 11.3763 58.9248 10.1742 58.9248 10.1742C58.9 10.1491 58.3243 12.04 58.3243 12.04C60.0329 12.2904 61.6671 12.7412 63.8585 12.6097C61.9085 16.3413 59.8595 19.6909 56.492 20.5612C55.9782 20.6739 55.4458 20.7303 54.8949 20.7303C51.7935 20.7303 50.3574 19.3341 49.7012 18.1632C49.5898 17.9629 49.4969 17.7625 49.4103 17.5497C48.8346 15.8592 49.4412 14.2 50.4069 13.2859L49.4474 12.7475L48.7788 12.3405C47.6584 14.2376 47.6274 16.8109 48.7107 18.733C49.8498 20.7616 52.0473 21.8823 54.8949 21.8823C54.8949 21.8823 55.5511 21.8635 55.8606 21.8322C61.0295 21.4127 63.9699 16.9298 66.4894 12.2466C68.2536 11.8083 69.6155 11.0257 71.0207 10.2305C72.7293 9.2538 74.4749 8.2583 77.1058 7.68854C76.5982 8.05794 76.1463 8.50248 75.6635 8.93449C70.5379 13.5363 68.1732 22.0576 64.0504 25.7078C62.998 26.384 61.8157 26.7722 60.4476 26.7722H57.8724C55.5387 26.7033 53.6197 26.2149 51.6016 25.689C51.5274 26.2212 51.4283 27.4984 51.3416 27.9743L56.6777 27.9242H71.7264H75.9235H75.9297L76.4311 26.7722L78.6658 21.7132L77.5453 21.3063H77.5392Z" fill="#FCFAF9"/>
</svg>