<svg xmlns="http://www.w3.org/2000/svg" width="185" height="90" viewBox="0 0 185 90" fill="none">
  <path d="M58.1447 86.2952C57.5516 85.8101 56.8278 85.5455 56.1737 85.5455C54.8916 85.5455 53.8887 86.5422 53.8887 87.7683C53.8887 88.9944 54.8829 89.9912 56.2085 89.9912C56.8539 89.9912 57.6127 89.7442 58.1534 89.3385V87.4596H56.0516V88.2182H57.2987V88.9239C57.0371 89.1003 56.6184 89.2061 56.2434 89.2061C55.319 89.2061 54.8306 88.5093 54.8306 87.7772C54.8306 86.9921 55.38 86.3482 56.1737 86.3482C56.601 86.3482 57.1679 86.5422 57.5342 86.8774L58.136 86.3041L58.1447 86.2952Z" fill="#261111"/>
  <path d="M60.7357 87.7595C60.7357 86.9833 61.3462 86.3393 62.1224 86.3393C62.8986 86.3393 63.5353 86.9833 63.5353 87.7595C63.5353 88.5358 62.916 89.2061 62.1224 89.2061C61.3288 89.2061 60.7357 88.5534 60.7357 87.7595ZM59.7764 87.7595C59.7764 89.0033 60.8055 89.9912 62.1137 89.9912C63.4219 89.9912 64.4772 89.0033 64.4772 87.7595C64.4772 86.5158 63.4219 85.5455 62.1137 85.5455C60.8055 85.5455 59.7764 86.5422 59.7764 87.7595Z" fill="#261111"/>
  <path d="M66.2305 85.6689V89.8677H69.5707V89.0738H67.1375V85.6689H66.2305Z" fill="#261111"/>
  <path d="M71.993 89.0738V86.4716H73.0046C73.493 86.4716 73.7111 86.5951 73.9291 86.8068C74.1558 87.045 74.2779 87.3802 74.2779 87.7771C74.2779 88.2005 74.1384 88.5357 73.8942 88.7827C73.6762 88.9768 73.4843 89.0826 73.0046 89.0826H71.993V89.0738ZM73.0308 89.8677C73.8157 89.8677 74.2605 89.656 74.6181 89.312C75.0018 88.9238 75.2111 88.3769 75.2111 87.7683C75.2111 87.1596 75.0105 86.648 74.653 86.2687C74.2867 85.8894 73.7895 85.6689 73.0308 85.6689H71.0859V89.8589H73.0308V89.8677Z" fill="#261111"/>
  <path d="M81.1857 88.9677C80.8891 89.1441 80.6275 89.2147 80.4269 89.2147C80.113 89.2147 79.7118 89.0647 79.7118 88.6149C79.7118 88.2709 79.956 88.0592 80.2002 87.9357L81.1944 88.9677H81.1857ZM82.1014 86.1185C81.8311 85.9862 81.395 85.801 80.924 85.801C80.2176 85.801 79.6071 86.2156 79.6071 86.8771C79.6071 87.0889 79.6682 87.2653 79.7903 87.4505C79.2408 87.6622 78.8135 88.0239 78.8135 88.6854C78.8135 89.594 79.6158 89.9645 80.3048 89.9645C80.7147 89.9645 81.2293 89.8322 81.7002 89.5058L82.0491 89.8674H83.1741L82.3282 88.9765C82.6073 88.6854 82.8951 88.3326 83.1916 87.8739L82.52 87.5387C82.2846 87.918 82.0491 88.2179 81.8311 88.4561L81.0549 87.6446C80.9328 87.5211 80.5141 87.1506 80.5141 86.8771C80.5141 86.7272 80.645 86.5772 80.924 86.5772C81.2031 86.5772 81.5432 86.7096 81.7264 86.8154L82.1101 86.1274L82.1014 86.1185Z" fill="#261111"/>
  <path d="M87.7538 89.0738V86.4716H88.7654C89.2538 86.4716 89.4719 86.5951 89.6812 86.8068C89.9079 87.045 90.03 87.3802 90.03 87.7771C90.03 88.2005 89.8905 88.5357 89.6463 88.7827C89.4283 88.9768 89.2364 89.0826 88.7567 89.0826H87.745L87.7538 89.0738ZM88.8003 89.8677C89.5765 89.8677 90.03 89.656 90.3876 89.312C90.7713 88.9238 90.9807 88.3769 90.9807 87.7683C90.9807 87.1596 90.7801 86.648 90.4225 86.2687C90.0562 85.8894 89.5591 85.6689 88.8003 85.6689H86.8555V89.8589H88.8003V89.8677Z" fill="#261111"/>
  <path d="M93.6502 85.6689H92.7432V89.8589H93.6502V85.6689Z" fill="#261111"/>
  <path d="M97.4082 86.7714H97.4431L98.071 88.2533H96.7802L97.4082 86.7714ZM95.1406 89.8675H96.1L96.475 88.9854H98.3937L98.7774 89.8675H99.7717L97.853 85.6776H97.068L95.1493 89.8675H95.1406Z" fill="#261111"/>
  <path d="M105.692 89.8677V85.6689H104.846L103.494 87.9712H103.486L102.125 85.6689H101.253V89.8677H102.134V87.4331H102.169L103.329 89.3913H103.582L104.741 87.4331H104.776V89.8677H105.692Z" fill="#261111"/>
  <path d="M108.389 87.7595C108.389 86.9833 109 86.3393 109.776 86.3393C110.552 86.3393 111.189 86.9833 111.189 87.7595C111.189 88.5358 110.569 89.2061 109.776 89.2061C108.982 89.2061 108.389 88.5534 108.389 87.7595ZM107.438 87.7595C107.438 89.0033 108.468 89.9912 109.776 89.9912C111.084 89.9912 112.139 89.0033 112.139 87.7595C112.139 86.5158 111.084 85.5455 109.776 85.5455C108.468 85.5455 107.438 86.5422 107.438 87.7595Z" fill="#261111"/>
  <path d="M116.788 85.6689V88.2711H116.779L114.669 85.6689H113.884V89.8677H114.8V87.2743H114.808L116.91 89.8677H117.695V85.6689H116.788Z" fill="#261111"/>
  <path d="M120.66 89.0738V86.4716H121.672C122.16 86.4716 122.378 86.5951 122.587 86.8068C122.814 87.045 122.936 87.3802 122.936 87.7771C122.936 88.2005 122.797 88.5357 122.552 88.7827C122.334 88.9768 122.143 89.0826 121.663 89.0826H120.651L120.66 89.0738ZM121.698 89.8677C122.474 89.8677 122.927 89.656 123.285 89.312C123.669 88.9238 123.878 88.3769 123.878 87.7683C123.878 87.1596 123.678 86.648 123.32 86.2687C122.954 85.8894 122.457 85.6689 121.698 85.6689H119.753V89.8589H121.698V89.8677Z" fill="#261111"/>
  <path d="M129.083 86.11C128.726 85.863 128.002 85.5455 127.138 85.5455C126.353 85.5455 125.429 85.863 125.429 86.8774C125.429 87.9448 126.493 88.0418 127.4 88.1035C128.019 88.1565 128.447 88.2447 128.447 88.6504C128.447 89.0562 128.028 89.2503 127.505 89.2503C126.667 89.2503 126.074 88.8268 125.725 88.5446L125.211 89.1709C125.691 89.5678 126.414 90 127.487 90C128.499 90 129.354 89.5943 129.354 88.5622C129.354 87.4067 128.176 87.3185 127.417 87.2655C126.877 87.2214 126.336 87.195 126.336 86.8245C126.336 86.454 126.702 86.3129 127.121 86.3129C127.81 86.3129 128.324 86.5775 128.577 86.7628L129.101 86.1188L129.083 86.11Z" fill="#261111"/>
  <path d="M7.90152 71.0966C13.7623 71.0966 15.7769 67.533 15.7769 64.3663V53.9752H12.4802V64.0399C12.4802 66.695 11.5558 69.0237 7.74454 69.0237C4.44788 69.0237 2.81699 66.2363 2.14545 65.1425L0 66.8538C0.479673 67.727 2.56407 71.0966 7.90152 71.0966Z" fill="#261111"/>
  <path d="M23.46 70.6732H39.1409V68.6356H26.7828V63.0343H33.4459V61.0584H26.7828V55.9776H38.4694V53.9752H23.46V70.6732Z" fill="#261111"/>
  <path d="M49.7292 70.6732H51.7525L56.5841 58.1475L61.3809 70.6732H63.3955L69.7359 53.9752H67.2678L62.8548 66.1481L58.372 53.9752H56.0085L51.3688 66.1481L47.043 53.9752H43.5283L49.7292 70.6732Z" fill="#261111"/>
  <path d="M75.3955 70.6732H91.0765V68.6356H78.7271V63.0343H85.3814V61.0584H78.7271V55.9776H90.4049V53.9752H75.3955V70.6732Z" fill="#261111"/>
  <path d="M96.7451 70.6732H110.089V68.6356H100.068V53.9752H96.7451V70.6732Z" fill="#261111"/>
  <path d="M129.45 69.4474C125.002 69.4474 122.412 66.3424 122.412 62.3289C122.412 58.3154 125.002 55.2104 129.45 55.2104C133.898 55.2104 136.392 58.3506 136.392 62.3289C136.392 66.3071 133.863 69.4474 129.45 69.4474ZM129.45 71.2556C135.31 71.2556 140.072 67.2774 140.072 62.3201C140.072 57.3627 135.302 53.358 129.45 53.358C123.598 53.358 118.827 57.3715 118.827 62.3201C118.827 67.2686 123.624 71.2556 129.45 71.2556Z" fill="#261111"/>
  <path d="M145.61 70.6732H147.913V58.0858L159.181 70.6732H161.649V53.9752H159.373V66.1128L148.584 53.9752H145.61V70.6732Z" fill="#261111"/>
  <path d="M168.88 70.6732H184.561V68.6356H172.203V63.0343H178.866V61.0584H172.203V55.9776H183.889V53.9752H168.88V70.6732Z" fill="#261111"/>
  <path d="M109.242 30.0176C107.881 32.6374 107.114 37.4448 100.486 37.7094H90.8835C91.6684 37.2243 92.401 36.6509 93.0987 35.9982C101.018 30.2028 103.259 17.5801 109.163 12.4551C110.69 11.2555 112.294 10.541 114.047 10.2676C114.44 10.2234 114.981 10.1793 115.731 10.1529L115.661 10.1352C115.661 10.1352 115.704 10.1352 115.731 10.1352V8.50337C107.123 8.50337 102.945 10.885 99.2647 12.9844C97.7734 13.8312 96.3605 14.6339 94.7383 15.2249C97.7385 9.48249 100.486 3.94295 104.637 2.21405C105.352 1.9406 106.102 1.76418 106.896 1.67598C106.983 1.67598 107.079 1.66715 107.175 1.65833C107.201 1.65833 107.227 1.65833 107.253 1.64069C107.471 1.62305 107.69 1.61423 107.916 1.61423V0H80.5662L80.4964 0.167598L76.7026 8.75918L78.2812 9.33254C79.6504 6.69508 80.4092 1.86121 87.1333 1.63187H102.186C101.951 1.77301 101.715 1.93178 101.489 2.09056C96.6134 4.75448 93.7179 10.4704 90.8922 15.9747C87.1072 16.0276 83.0169 14.334 83.0169 14.334C82.982 14.2987 82.1709 16.9626 82.1709 16.9626C84.578 17.3155 86.8804 17.9506 89.9678 17.7653C87.2206 23.0226 84.3338 27.7418 79.5894 28.9679C78.8655 29.1267 78.1155 29.2061 77.3393 29.2061C72.9699 29.2061 70.9466 27.239 70.0221 25.5895C69.8651 25.3072 69.7343 25.025 69.6122 24.725C68.8011 22.3434 69.6558 20.0059 71.0163 18.718L69.6645 17.9594L68.7226 17.386C67.1441 20.0588 67.1005 23.6842 68.6267 26.3922C70.2314 29.2502 73.3275 30.8291 77.3393 30.8291C77.3393 30.8291 78.2637 30.8027 78.6998 30.7586C85.9821 30.1676 90.1248 23.8518 93.6743 17.2537C96.1599 16.6363 98.0786 15.5336 100.058 14.4134C102.465 13.0373 104.925 11.6348 108.631 10.8321C107.916 11.3525 107.28 11.9788 106.599 12.5875C99.3781 19.0708 96.0465 31.0761 90.2381 36.2187C88.7555 37.1714 87.0897 37.7183 85.1623 37.7183H81.5342C78.2463 37.6212 75.5427 36.9332 72.6995 36.1922C72.5949 36.942 72.4553 38.7415 72.3332 39.4119L79.851 39.3413H101.053H106.966H106.974L107.681 37.7183L110.829 30.591L109.251 30.0176H109.242Z" fill="#261111"/>
</svg>