<svg xmlns="http://www.w3.org/2000/svg" width="143" height="86" viewBox="0 0 143 86" fill="none">
  <path d="M50.5989 75.3092C41.3393 69.0514 35.5633 60.3706 33.2991 49.288C31.0367 38.2054 32.9479 27.9557 39.0133 18.5691C45.0805 9.18237 53.5054 3.37459 64.3498 1.16159C75.1942 -1.05316 85.2479 0.981589 94.5075 7.23938C95.854 8.15175 97.1317 9.13472 98.33 10.1318C102.671 14.2172 106.16 18.862 108.83 24.0909C108.915 24.2392 108.975 24.3927 109.033 24.5462C109.081 24.6468 109.13 24.7474 109.178 24.848L109.183 24.8745C109.241 25.028 109.301 25.1816 109.354 25.3086C109.386 25.3298 109.391 25.3563 109.397 25.381C109.886 26.5528 110.299 27.7651 110.685 28.9846L110.69 29.0111C110.745 29.1381 110.777 29.2969 110.803 29.4293C111.61 32.1647 112.162 35.0077 112.473 38.0095C112.494 38.0236 112.497 38.0413 112.483 38.0624C112.504 38.0766 112.508 38.0942 112.494 38.1154C112.554 38.5442 112.587 38.9801 112.616 39.3878C112.857 43.0108 112.612 46.542 111.904 49.9727C111.894 50.0574 111.862 50.1739 111.853 50.2586C111.843 50.3433 111.8 50.4068 111.791 50.4915C111.754 50.7192 111.693 50.9539 111.629 51.1869C111.62 51.2733 111.589 51.388 111.557 51.5063C111.546 51.591 111.53 51.651 111.493 51.741C111.416 52.0322 111.336 52.3251 111.264 52.6445C111.128 53.1969 110.96 53.7281 110.766 54.2646C110.757 54.3493 110.715 54.4146 110.704 54.4993C109.624 57.7288 108.087 60.8894 106.093 63.9742C100.028 73.3609 91.5763 79.174 80.7319 81.387C69.8876 83.6017 59.8603 81.5599 50.6007 75.3039L50.5989 75.3092Z" fill="url(#paint0_radial_1206_1537)"/>
  <path d="M44.6516 67.8955C51.1953 75.0357 64.3356 81.8688 65.4809 78.6199C65.7968 77.7234 55.0495 71.0862 48.5058 63.946C41.9621 56.8058 35.9902 45.0314 35.002 45.8997C32.4131 48.1727 38.1079 60.7553 44.6516 67.8955Z" fill="url(#paint1_linear_1206_1537)"/>
  <path d="M110.833 28.457C110.42 27.1775 110.057 26.1805 109.677 25.2663C109.677 25.2734 109.672 25.2098 109.612 25.1357C109.607 25.1251 109.603 25.1128 109.598 25.1022C109.603 25.1022 109.61 25.1022 109.615 25.1022C109.601 25.0775 109.585 25.051 109.571 25.0263C109.552 24.991 109.548 24.9557 109.552 24.9222C109.529 24.8675 109.506 24.8128 109.485 24.7581C109.45 24.6998 109.42 24.6398 109.393 24.5781C109.39 24.5745 109.388 24.571 109.384 24.5675C109.384 24.5675 109.384 24.5675 109.386 24.5675C109.381 24.5551 109.374 24.5445 109.368 24.5322C109.368 24.5322 109.365 24.5322 109.363 24.5322L109.308 24.4175C109.254 24.2745 109.19 24.1086 109.093 23.941C106.425 18.7138 102.872 13.9914 98.5381 9.91302C97.2269 8.81888 95.9334 7.83945 94.6786 6.98884C85.3784 0.706342 75.1535 -1.35488 64.2879 0.863404C53.4383 3.07816 44.8492 8.97947 38.7591 18.4032C32.6707 27.8234 30.7348 38.2354 33.0025 49.3463C35.272 60.4589 41.1344 69.2773 50.4294 75.5581C59.7261 81.8388 69.9404 83.9035 80.7901 81.687C91.6574 79.4687 100.255 73.5639 106.345 64.1402C108.343 61.0465 109.907 57.8365 110.99 54.5964C110.997 54.577 111.001 54.5558 111.004 54.5364C111.031 54.457 111.05 54.4023 111.061 54.3423C111.267 53.7687 111.43 53.2358 111.558 52.7187C111.631 52.3993 111.708 52.1099 111.786 51.8222C111.821 51.7393 111.844 51.6546 111.857 51.5452C111.887 51.4446 111.918 51.3193 111.929 51.224C111.987 51.0246 112.053 50.781 112.09 50.541L112.107 50.4775C112.123 50.4316 112.144 50.3716 112.153 50.2957C112.158 50.2622 112.167 50.2198 112.174 50.1792C112.187 50.1192 112.199 50.061 112.204 50.0116C112.901 46.6427 113.147 43.1414 112.935 39.6261L112.893 39.0102C112.868 38.7084 112.84 38.396 112.796 38.089L112.766 37.8984C112.455 34.9212 111.917 32.1506 111.121 29.4346L110.833 28.4552V28.457ZM112.194 38.1595C112.252 38.5725 112.285 39.0031 112.314 39.4055C112.314 39.409 112.314 39.4125 112.314 39.416C112.55 42.9632 112.314 46.4944 111.608 49.9145C111.599 49.9745 111.59 50.0169 111.581 50.0592C111.569 50.1175 111.558 50.1757 111.551 50.2269C111.52 50.3239 111.497 50.3857 111.488 50.4634C111.454 50.6681 111.394 50.8922 111.334 51.1146C111.318 51.2293 111.29 51.3228 111.265 51.4216C111.248 51.5293 111.241 51.561 111.211 51.6334C111.121 51.9634 111.04 52.2581 110.967 52.5828C110.844 53.084 110.685 53.6028 110.48 54.1676C110.471 54.1887 110.466 54.2117 110.464 54.2346C110.438 54.3158 110.418 54.3723 110.408 54.4305C109.34 57.6141 107.803 60.7712 105.837 63.8137C99.8387 73.0962 91.3715 78.9093 80.6683 81.0941C69.9845 83.2753 59.9237 81.2441 50.7682 75.0569C41.6092 68.8679 35.8314 60.1783 33.5955 49.2263C31.3595 38.276 33.269 28.0158 39.2691 18.7332C45.2657 9.45066 53.7259 3.63935 64.4097 1.45812C75.1129 -0.726632 85.1807 1.30283 94.338 7.49003C95.5751 8.32828 96.8528 9.29536 98.1358 10.3648C102.405 14.3814 105.917 19.0509 108.56 24.2286C108.645 24.3751 108.696 24.5128 108.749 24.6504L108.888 24.9451C108.888 24.9451 108.888 24.9504 108.89 24.9522C108.894 24.9645 108.897 24.9769 108.902 24.9893C108.961 25.1428 109.021 25.2981 109.074 25.4251C109.084 25.4499 109.098 25.4746 109.116 25.4957C109.116 25.4957 109.116 25.4975 109.116 25.4993C109.531 26.4946 109.924 27.594 110.39 29.0623C110.39 29.0623 110.39 29.064 110.39 29.0658C110.394 29.0888 110.401 29.1099 110.41 29.1311C110.45 29.2299 110.48 29.3711 110.505 29.4876C110.507 29.4999 110.51 29.5105 110.514 29.5211C111.32 32.2547 111.862 35.043 112.171 38.0448L112.194 38.1613V38.1595Z" fill="#CC6600"/>
  <path d="M97.6727 45.351C97.6727 45.351 88.1625 36.8784 80.1382 36.2661C73.7816 35.7808 65.3708 35.6502 56.0547 38.1667C56.0547 38.1667 59.4342 49.9976 79.4658 51.3441C79.4658 51.3441 91.7573 53.5888 97.6727 45.3492V45.351Z" fill="url(#paint2_linear_1206_1537)"/>
  <path d="M42.7517 23.4682C40.9605 33.0578 63.3163 22.7958 78.4525 25.3141C93.5888 27.8341 99.6718 42.5927 101.274 32.9678C102.875 23.3429 93.0064 7.82192 77.9796 4.72656C63.0039 1.64178 45.18 10.4673 42.7517 23.4664V23.4682Z" fill="url(#paint3_linear_1206_1537)"/>
  <path d="M58.1549 29.9199C59.8896 31.9917 62.7008 32.6994 64.748 34.4094C67.1621 36.4283 67.688 41.1772 70.4516 40.3831C75.5588 38.9148 77.8247 31.2117 75.9135 24.5586C74.0005 17.9073 69.4016 13.0719 64.2962 14.5384C59.189 16.0067 55.3136 26.5246 58.1549 29.9199Z" fill="url(#paint4_radial_1206_1537)"/>
  <path d="M67.1483 17.8331C64.8771 17.8667 62.9429 19.0702 61.3899 21.4032C60.3858 22.9032 59.7152 24.5868 59.3799 26.4574C59.221 27.5728 59.2122 28.6175 59.3428 29.5652C59.0199 28.3351 58.9563 26.9445 59.1593 25.3951C59.4946 23.5244 60.1652 21.8391 61.1693 20.3408C62.7223 18.0078 64.6565 16.8043 66.9277 16.7707C69.1989 16.7372 71.156 17.8649 72.799 20.152C73.9655 21.7597 74.7261 23.6233 75.0826 25.7445C74.682 24.0591 73.992 22.5397 73.0196 21.2144C71.3766 18.9273 69.4195 17.7996 67.1483 17.8331Z" fill="black"/>
  <path d="M61.3897 21.4033C60.3856 22.9034 59.715 24.5869 59.3797 26.4576C59.2209 27.5729 59.212 28.6176 59.3426 29.5653C59.5597 30.3188 59.8809 31.0441 60.3185 31.6777C63.9274 33.4565 66.5499 36.0243 68.1734 39.4161C70.7076 39.6173 72.5941 38.3414 73.8206 35.6537C74.883 33.573 75.3771 31.1783 75.3295 28.4623C75.3101 27.5111 75.2448 26.6005 75.0842 25.7446C74.6836 24.0593 73.9936 22.5398 73.0212 21.2145C71.3782 18.9274 69.4211 17.7997 67.1499 17.8332C64.8786 17.8668 62.9445 19.0703 61.3915 21.4033H61.3897Z" fill="url(#paint5_radial_1206_1537)"/>
  <path d="M62.4056 45.7921C62.5292 45.8397 62.6615 45.9139 62.7657 45.9968C63.5704 49.2386 65.3457 51.801 68.1252 53.7017C70.1123 55.1311 72.3447 56.2023 74.7977 56.9453C75.3677 57.0953 75.9554 57.2153 76.5254 57.2559C81.509 57.8365 84.4332 55.8441 85.2485 51.2963C86.8139 51.1922 88.2168 50.9928 89.5069 50.6875C87.7351 52.3816 86.4203 55.1999 85.5803 59.1071C84.4967 64.1278 82.2114 67.0873 78.666 67.9714C78.5284 67.9802 78.3695 68.0208 78.2072 68.0349C78.5848 66.2402 78.0325 64.5231 76.5624 62.9313C75.4383 61.7119 73.6188 61.0483 71.1041 60.9389C70.3664 59.8077 69.4787 58.9589 68.4711 58.4083C67.4705 57.8841 66.4099 57.6724 65.2963 57.7977L65.0069 57.8718C64.871 57.5559 64.7333 57.24 64.571 56.9329C62.6086 52.7752 61.045 48.4321 59.875 43.8809C60.0656 44.075 60.2809 44.2638 60.4697 44.4562C61.1156 44.9097 61.765 45.3632 62.4056 45.7921Z" fill="url(#paint6_radial_1206_1537)"/>
  <path d="M65.0039 57.8718L65.2933 57.7976C66.4069 57.6723 67.4657 57.8859 68.4681 58.4082C69.4758 58.9588 70.3652 59.8077 71.1011 60.9389C71.6958 61.8389 72.2182 62.8889 72.6206 64.1331C72.2182 62.8889 71.6941 61.8389 71.1011 60.9389C73.6159 61.0465 75.4353 61.7118 76.5595 62.9313C78.0295 64.5231 78.5819 66.2402 78.2042 68.0349C78.0683 68.0438 77.9042 68.0579 77.7401 68.0738C73.4235 68.3473 69.5975 65.7461 66.3222 60.2806C65.8792 59.5306 65.4469 58.7277 65.0039 57.8718Z" fill="url(#paint7_linear_1206_1537)"/>
  <path d="M68.1252 53.7017C65.3457 51.8011 63.5703 49.2387 62.7656 45.9968C69.4558 50.1793 76.8977 51.9581 85.1108 51.3034C85.1691 51.3158 85.222 51.3034 85.2485 51.2946C84.4332 55.8423 81.509 57.8347 76.5254 57.2541C75.9553 57.2118 75.3677 57.0936 74.7977 56.9435C72.3447 56.2006 70.1123 55.1294 68.1252 53.6999V53.7017Z" fill="url(#paint8_linear_1206_1537)"/>
  <path d="M78.2777 68.3191C78.3871 68.2909 78.4771 68.2027 78.5018 68.088C78.8988 66.1979 78.3218 64.3961 76.7847 62.7355C75.6358 61.4878 73.7811 60.7872 71.2734 60.6549C70.5304 59.5519 69.6357 58.7101 68.6174 58.1542C67.548 57.593 66.4203 57.3759 65.2627 57.5065L64.9309 57.5895C64.7685 57.6318 64.6697 57.7907 64.7103 57.9477C64.7509 58.103 64.915 58.1966 65.0774 58.1542L65.3668 58.0801C66.3568 57.9724 67.3645 58.1666 68.321 58.6677C69.2863 59.1936 70.1369 60.0125 70.8445 61.096C70.8445 61.0978 70.8481 61.1013 70.8498 61.1031C71.4657 62.0331 71.9652 63.0849 72.3358 64.2249C72.3852 64.3767 72.544 64.4738 72.7152 64.4102C72.8722 64.3591 72.9622 64.1932 72.9128 64.0396C72.5899 63.0461 72.1716 62.1161 71.6669 61.269C73.7899 61.4455 75.3588 62.0702 76.3347 63.129C77.7394 64.6467 78.2688 66.2791 77.9124 67.9803C77.8788 68.1391 77.9847 68.2927 78.1471 68.3227C78.1929 68.3297 78.2388 68.3297 78.2794 68.3174L78.2777 68.3191Z" fill="#B90000"/>
  <path d="M78.7542 68.2431C78.7295 68.2501 78.7031 68.2554 78.6784 68.2625C78.6166 68.266 78.5495 68.2766 78.4807 68.2907C78.3995 68.3048 78.3166 68.3189 78.2213 68.3278C78.0889 68.3366 77.9283 68.3507 77.7572 68.3666C73.3224 68.6489 69.3852 65.9789 66.0622 60.4305C65.5751 59.6099 65.118 58.7452 64.7263 57.9881C64.5939 57.6793 64.458 57.3722 64.2939 57.0581C62.3439 52.9251 60.7644 48.5432 59.5997 44.0307C57.9514 42.3666 56.6349 40.3954 55.6872 38.1647C52.8372 37.4341 50.596 37.8524 49.0236 39.4071C48.9053 39.5236 48.7147 39.5271 48.5965 39.4159C48.4783 39.303 48.4783 39.1177 48.5965 39.0012C50.363 37.2541 52.8531 36.7953 55.9943 37.6371C57.7502 38.073 59.5485 38.9183 61.4915 40.2242C61.6274 40.3159 61.6609 40.4977 61.5638 40.6318C61.465 40.766 61.278 40.7995 61.1421 40.7077C59.4814 39.5924 57.9355 38.8247 56.439 38.3712C57.3532 40.3777 58.5797 42.1583 60.0903 43.6725C60.0938 43.676 60.0973 43.6796 60.0991 43.6831C60.1926 43.7784 60.2915 43.8701 60.3903 43.9637C60.4926 44.059 60.595 44.156 60.6497 44.2196C61.2868 44.666 61.9239 45.1125 62.5539 45.5343C62.6968 45.5925 62.8362 45.6737 62.9315 45.7496C69.5493 49.8879 77.0054 51.658 85.0914 51.0121C85.1214 51.0085 85.1338 51.0103 85.1638 51.0174C85.1709 51.0174 85.2273 51.005 85.2344 51.005C86.7962 50.8991 88.1709 50.7015 89.4363 50.405C89.438 50.405 89.4398 50.405 89.4415 50.405C92.7487 49.6073 95.297 47.9149 97.0123 45.4619C95.2634 45.1196 94.0034 45.4002 93.2605 46.3002C93.1563 46.4273 92.9657 46.4502 92.8352 46.3514C92.7046 46.2525 92.6852 46.0673 92.791 45.9402C93.7511 44.7755 95.3587 44.4507 97.57 44.9819C97.57 44.9819 97.5735 44.9819 97.5753 44.9819C98.7735 45.2361 100.131 45.7249 101.609 46.4361C101.758 46.5084 101.816 46.6831 101.74 46.8279C101.664 46.9726 101.481 47.0308 101.332 46.962C99.9788 46.3108 98.7365 45.852 97.6353 45.5996C95.8529 48.2502 93.1846 50.0485 89.6974 50.9432C89.6833 50.9468 89.6692 50.9503 89.6551 50.9521C87.9592 52.6092 86.6868 55.371 85.8732 59.167C84.772 64.26 82.3967 67.3113 78.7525 68.2484L78.7542 68.2431ZM88.6509 51.1656C87.6115 51.365 86.505 51.5009 85.3209 51.5786C85.2856 51.5874 85.2009 51.6103 85.095 51.598C76.8871 52.2456 69.3181 50.4438 62.5715 46.2261C62.4903 46.1625 62.3845 46.1025 62.2856 46.0637C62.2662 46.0549 62.2468 46.0443 62.2292 46.0337C61.6415 45.6419 61.0485 45.229 60.4256 44.786C61.555 48.9438 63.0392 52.9815 64.8375 56.7951C65.0016 57.1075 65.141 57.4269 65.2751 57.7358C65.6545 58.4664 66.1063 59.3223 66.5846 60.1305C69.7858 65.4724 73.5359 68.0472 77.7236 67.7807C77.8878 67.7666 78.0519 67.7507 78.1825 67.7436C78.2513 67.7366 78.3201 67.726 78.3854 67.7136C78.4789 67.6978 78.5689 67.6836 78.5937 67.6872C78.6148 67.6819 78.6342 67.6783 78.6537 67.673C82.0508 66.8013 84.2179 63.9794 85.282 59.0523C86.0285 55.581 87.1597 52.9339 88.6509 51.1674V51.1656Z" fill="#CC6600"/>
  <path d="M63.4893 25.0651C64.2852 23.9674 65.2929 23.408 66.4894 23.3938C67.6859 23.3797 68.7042 23.8986 69.5742 24.938C70.423 26.0145 70.8536 27.301 70.8713 28.8257C70.9171 30.3434 70.5148 31.6581 69.7136 32.7293C68.8912 33.8358 67.8818 34.3953 66.6853 34.4094C65.4906 34.4235 64.4705 33.9047 63.6287 32.8582C62.7517 31.7905 62.314 30.4758 62.2681 28.9581C62.2505 27.4333 62.6599 26.1468 63.4893 25.0668V25.0651Z" fill="url(#paint9_radial_1206_1537)"/>
  <path d="M67.7182 34.5825C67.3918 34.676 67.0441 34.7254 66.6876 34.7307C65.3941 34.7449 64.2787 34.1837 63.377 33.0613C62.4752 31.9619 61.9934 30.5836 61.944 28.96C61.9246 27.3806 62.3587 26.0041 63.227 24.8764C64.0776 23.7011 65.1876 23.0869 66.4829 23.0711C67.7641 23.0569 68.8865 23.6146 69.8236 24.7387C70.7112 25.8629 71.1718 27.2376 71.1895 28.8171C71.2371 30.3965 70.826 31.7783 69.9683 32.9236C69.3312 33.7795 68.5724 34.339 67.7147 34.586L67.7182 34.5825ZM65.6341 23.8387C64.9141 24.0452 64.2805 24.5217 63.7458 25.2629C62.9517 26.2935 62.574 27.5006 62.5916 28.9477C62.6358 30.4195 63.0699 31.6654 63.8817 32.6536C64.6652 33.6295 65.5829 34.0972 66.6823 34.0848C66.9806 34.0813 67.27 34.0407 67.5418 33.9613C68.26 33.7548 68.9041 33.2748 69.4547 32.5336C70.2242 31.5066 70.5912 30.2624 70.5489 28.8277C70.5312 27.3682 70.1306 26.1611 69.3259 25.1429C68.5124 24.1687 67.5859 23.7028 66.4935 23.7152C66.1953 23.7187 65.9058 23.7593 65.6341 23.8387Z" fill="#001D57"/>
  <path d="M64.9848 31.6247C64.4642 30.9646 64.2066 30.1687 64.2013 29.2105C64.196 28.2522 64.4113 27.4404 64.8983 26.7293C65.4013 26.0745 65.989 25.7269 66.6754 25.7092C67.369 25.7198 67.9655 26.0286 68.4508 26.6693C68.9714 27.3293 69.2379 28.1534 69.2431 29.1117C69.2502 30.0699 69.0314 30.8835 68.5373 31.5647C68.0784 32.267 67.489 32.6164 66.7972 32.6059C66.1125 32.6217 65.5072 32.2882 64.9848 31.6264V31.6247Z" fill="black"/>
  <path d="M64.0461 27.8235C63.7972 27.4794 63.6843 27.0629 63.7249 26.5952C63.7655 26.1276 63.949 25.7358 64.2543 25.4411C64.5596 25.1464 64.9143 25.0052 65.3185 25.0405C65.7226 25.0758 66.0473 25.2769 66.2979 25.6193C66.5467 25.9634 66.6597 26.3799 66.6191 26.8476C66.5785 27.3152 66.3949 27.707 66.0896 28.0017C65.7861 28.2964 65.4296 28.4376 65.0255 28.4005C64.6214 28.3653 64.2967 28.1658 64.0478 27.8217L64.0461 27.8235Z" fill="white"/>
  <path d="M66.9255 32.8531C66.6661 32.6943 66.4932 32.4666 66.4085 32.1702C66.3238 31.8737 66.3485 31.5896 66.4843 31.316C66.5973 31.0495 66.8055 30.8837 67.0632 30.8095C67.3191 30.7354 67.5838 30.7672 67.8432 30.926C68.0832 31.0919 68.2544 31.3195 68.3391 31.616C68.4238 31.9107 68.3991 32.1949 68.2844 32.4631C68.1485 32.7366 67.942 32.9025 67.6861 32.9766C67.4302 33.049 67.1655 33.019 66.9273 32.8531H66.9255Z" fill="white"/>
  <path d="M71.4978 6.47005C71.4978 6.47005 69.0306 5.75356 66.7894 6.63241C63.8776 7.7742 60.0093 10.8113 60.1134 10.7549C60.3057 10.649 65.6017 -0.481286 69.7365 3.6094C71.5119 5.36708 71.4978 6.47181 71.4978 6.47181V6.47005Z" fill="#D68607"/>
  <path d="M59.5615 10.6312C61.4427 6.19638 63.4421 3.49102 65.6745 2.35982C66.1034 2.14276 66.5446 1.98393 66.984 1.88687C67.6917 1.72451 68.3605 1.75628 68.9711 1.98393C70.2558 2.46041 71.2723 3.81397 72.0771 6.1205C72.1159 6.22638 72.0612 6.33932 71.9394 6.41344C71.9288 6.41874 71.92 6.4258 71.9112 6.42933C71.7912 6.48933 71.6182 6.53698 71.5 6.46992C69.3946 5.27518 67.4852 5.20459 65.2139 6.35521C63.6874 7.12993 61.9368 9.3341 60.3221 10.8712C60.2003 10.9877 59.9726 11.0318 59.7856 10.9718C59.6003 10.9118 59.5068 10.7688 59.5632 10.6312H59.5615Z" fill="#774104"/>
  <path d="M70.2819 3.9623C70.2819 3.9623 66.666 -2.31137 60.957 9.00418C60.957 9.00418 67.2713 2.59462 70.2819 3.9623Z" fill="url(#paint10_linear_1206_1537)"/>
  <path d="M70.2471 39.5288C71.883 39.0576 73.1731 37.8046 74.096 35.7787C75.1637 33.691 75.6808 31.2239 75.6313 28.4568C75.6084 27.3538 75.529 26.475 75.3808 25.6896C75.3508 25.5255 75.1919 25.4161 75.0278 25.4479C74.8619 25.4779 74.756 25.6367 74.786 25.8026C74.9272 26.5544 75.0031 27.4014 75.026 28.4691C75.0754 31.1357 74.5778 33.5057 73.5507 35.5158C72.3736 38.0976 70.5736 39.3011 68.1965 39.1158C68.0323 39.1035 67.8841 39.227 67.87 39.3947C67.8576 39.5623 67.9812 39.707 68.1488 39.7211C68.9006 39.7811 69.6012 39.7176 70.2471 39.5306V39.5288Z" fill="#6A3500"/>
  <path d="M60.7025 32.0412C60.8402 31.9459 60.7978 31.9671 60.7025 31.8295C60.3037 31.2489 59.8537 30.2447 59.6349 29.4823C59.589 29.3218 59.4213 29.2282 59.259 29.2759C59.0984 29.3218 59.0048 29.4894 59.0507 29.65C59.2872 30.4759 59.6296 31.2153 60.0672 31.8506L60.7025 32.0412Z" fill="#6A3500"/>
  <path d="M68.9087 42.455C69.0605 42.4144 69.1575 42.2802 69.124 42.1426C68.8522 40.9902 68.5205 40.0108 68.111 39.1478L68.0793 39.0419C67.9469 38.7243 67.804 38.456 67.6646 38.1984C66.0639 35.2301 63.4027 32.9447 59.755 31.4041C59.6632 31.3706 59.5926 31.3423 59.5238 31.3141C59.4461 31.2823 59.3685 31.2506 59.2855 31.2206C59.0932 31.127 58.8585 31.0459 58.6079 30.9629L58.5108 30.9294C56.1214 30.0682 53.4319 29.6076 50.5253 29.5582C50.3595 29.5547 50.2183 29.6711 50.2112 29.8176C50.2042 29.9641 50.3347 30.0841 50.5006 30.0876C53.333 30.1335 55.9484 30.5817 58.2743 31.42L58.3767 31.4553C58.6167 31.5365 58.8249 31.6071 59.0138 31.6971C59.1179 31.7359 59.1867 31.7641 59.2555 31.7924C59.3332 31.8241 59.4126 31.8559 59.4973 31.8859C63.0021 33.3683 65.5716 35.5724 67.114 38.4296C67.2463 38.6766 67.384 38.9325 67.5004 39.2096L67.5357 39.3261C67.9416 40.189 68.2628 41.1384 68.5275 42.2573C68.561 42.3985 68.7199 42.4885 68.884 42.455C68.8911 42.455 68.8963 42.4532 68.9034 42.4514L68.9087 42.455Z" fill="#CC6600"/>
  <path d="M75.1669 26.0375C75.3133 25.9952 75.4069 25.8505 75.3822 25.6952C75.0204 23.5369 74.2333 21.6116 73.0439 19.9739C71.3479 17.6126 69.2885 16.432 66.9237 16.4673C64.5501 16.5009 62.5295 17.7503 60.9183 20.1715C59.893 21.698 59.203 23.4381 58.8606 25.3405C58.6541 26.9376 58.7177 28.3794 59.0512 29.6412C59.0953 29.8035 59.2594 29.8988 59.4218 29.8565C59.4218 29.8565 59.4253 29.8565 59.4271 29.8565C59.5859 29.8106 59.6794 29.6482 59.6371 29.4876C59.323 28.3017 59.2647 26.9376 59.4589 25.434C59.7818 23.6287 60.4436 21.9663 61.4195 20.5086C62.9178 18.2603 64.7707 17.1026 66.9308 17.0726C69.0855 17.0409 70.9774 18.1368 72.5515 20.3268C73.6862 21.8904 74.4363 23.7293 74.7839 25.794C74.8121 25.9599 74.9674 26.0711 75.1316 26.0428C75.1439 26.0411 75.1545 26.0393 75.1651 26.0358L75.1669 26.0375Z" fill="black"/>
  <path d="M70.568 62.2113C70.1709 62.6189 68.9815 62.1583 67.912 61.1824C66.8408 60.2083 66.2938 59.0859 66.6891 58.6783C67.0861 58.2706 68.2756 58.7312 69.345 59.7071C70.4162 60.683 70.9633 61.8019 70.568 62.2113Z" fill="url(#paint11_linear_1206_1537)"/>
  <path d="M49.1896 31.7606C48.9743 32.8318 51.7062 35.1789 55.1615 35.8724C58.6169 36.566 65.7518 40.9055 66.2547 39.9366C67.7283 37.0954 59.1799 31.4411 55.7245 30.7476C52.2691 30.054 49.4049 30.6911 49.1896 31.7606Z" fill="url(#paint12_radial_1206_1537)"/>
  <path d="M76.2387 64.7208C75.9034 65.072 74.9416 64.742 74.0875 63.9814C73.2333 63.2226 72.8133 62.3208 73.1486 61.9678C73.4839 61.6149 74.4457 61.9467 75.2999 62.7073C76.154 63.4679 76.574 64.3679 76.2387 64.7208Z" fill="url(#paint13_linear_1206_1537)"/>
  <path d="M45.9593 38.8867C46.1693 39.7056 47.634 37.9514 52.1165 36.799C56.5971 35.6484 62.7014 41.1385 62.4914 40.3197C62.2814 39.5026 57.3154 32.0536 52.8347 33.2042C48.354 34.3548 45.751 38.0679 45.961 38.8849L45.9593 38.8867Z" fill="url(#paint14_linear_1206_1537)"/>
  <path d="M80.601 28.921C80.9787 34.9899 88.9483 42.3013 90.15 41.5548C92.5448 40.0689 92.9772 39.2465 94.7154 38.8C95.0843 38.7047 95.649 38.4965 95.9825 38.3783C98.1161 37.6141 99.2208 36.2394 98.6879 29.6039C98.1761 23.242 92.873 17.9284 87.6688 18.0413C82.9181 18.1437 80.2057 22.5485 80.6028 28.9192L80.601 28.921Z" fill="url(#paint15_radial_1206_1537)"/>
  <path d="M92.1969 22.6898C90.0439 21.3733 88.0198 21.105 86.0715 21.8904C84.1232 22.6757 82.8755 24.2745 82.2773 26.7205C82.1326 27.3117 82.0408 27.8958 81.979 28.5029C81.9702 27.5499 82.0726 26.6111 82.3126 25.681C82.9108 23.2351 84.1585 21.6362 86.1068 20.8509C88.0551 20.0656 90.0775 20.3338 92.2305 21.6504C94.3323 23.0004 95.9399 24.9822 97.0323 27.6575C97.8582 29.7099 98.1882 31.7147 98.0188 33.67C98.0118 32.0624 97.6694 30.3876 96.997 28.697C95.9046 26.0234 94.297 24.0416 92.1952 22.6916L92.1969 22.6898Z" fill="black"/>
  <path d="M86.0711 21.8905C88.0194 21.1052 90.0418 21.3734 92.1966 22.6899C94.2984 24.0399 95.9061 26.0217 96.9985 28.6953C97.6708 30.3842 98.0132 32.0607 98.0203 33.6684C97.9814 34.2455 97.8879 34.8031 97.7432 35.3925C97.4891 36.4337 97.1149 37.3796 96.6437 38.202C94.8278 38.5056 92.8248 39.5185 90.6101 41.2356C89.7648 41.0133 88.8895 40.5474 87.9877 39.8679C85.7623 38.1791 84.1052 36.012 83.0393 33.3349C82.3705 31.6725 82.0087 30.0542 81.9805 28.503C82.0422 27.8959 82.134 27.3118 82.2787 26.7206C82.877 24.2746 84.1246 22.6758 86.0729 21.8905H86.0711Z" fill="url(#paint16_radial_1206_1537)"/>
  <path d="M98.0564 33.9683C98.0353 33.9701 98.0141 33.9718 97.9929 33.9683C97.827 33.9542 97.7035 33.8077 97.7176 33.6401C97.88 31.7412 97.5553 29.7647 96.7523 27.767C95.7005 25.1958 94.1246 23.2228 92.0722 21.9045C89.9916 20.6321 88.0786 20.378 86.2185 21.128C84.3655 21.8763 83.1832 23.3869 82.6043 25.7534C82.3767 26.6323 82.2708 27.5288 82.2796 28.4958C82.2796 28.6635 82.1473 28.8064 81.9796 28.8011C81.812 28.8011 81.6761 28.6688 81.6743 28.5011C81.6655 27.4935 81.7802 26.5193 82.0167 25.6034C82.6431 23.0392 83.9438 21.391 85.9926 20.5651C88.0133 19.7498 90.1645 20.0268 92.3934 21.391C94.5587 22.7816 96.2141 24.8481 97.3135 27.5393C98.1535 29.627 98.4923 31.6953 98.3211 33.6912C98.3088 33.836 98.1959 33.9471 98.0564 33.9648V33.9683Z" fill="black"/>
  <path d="M90.2792 41.3378C89.4162 41.1102 88.7544 40.8243 87.805 40.1096C85.5285 38.3819 83.8308 36.1406 82.7578 33.4476C82.0696 31.7323 81.706 30.0717 81.6778 28.5081C81.6743 28.3405 81.8137 28.1993 81.976 28.1993C82.1437 28.1958 82.2813 28.3299 82.2849 28.4975C82.3113 29.987 82.659 31.577 83.3225 33.2235C84.3549 35.8142 85.9855 37.9689 88.1721 39.6278C89.058 40.2949 89.905 40.7378 90.6904 40.9443L90.2809 41.3396L90.2792 41.3378ZM96.3817 38.0501C96.8458 37.2436 97.204 36.3242 97.4493 35.3218C97.5993 34.7165 97.684 34.1853 97.7193 33.6488C97.7299 33.4812 97.8711 33.3576 98.0423 33.3665C98.2099 33.3788 98.3352 33.5218 98.3247 33.6894C98.2876 34.2612 98.1958 34.8259 98.0388 35.4665C97.7811 36.5271 97.5323 37.3142 97.0417 38.1701L96.3834 38.0519L96.3817 38.0501Z" fill="#6A3500"/>
  <path d="M86.2229 26.0659C87.2429 25.7976 88.2753 26.0976 89.2583 26.9147C90.2412 27.7336 90.8907 28.8471 91.2348 30.2571C91.6072 31.6619 91.5383 32.9519 91.0883 34.1449C90.6066 35.3131 89.8407 36.0332 88.8206 36.3014C87.8006 36.5714 86.8 36.2961 85.817 35.4773C84.8341 34.6602 84.1846 33.5431 83.8123 32.1401C83.4682 30.7301 83.5334 29.4136 83.987 28.2471C84.4652 27.0488 85.2029 26.3323 86.2229 26.0641V26.0659Z" fill="url(#paint17_radial_1206_1537)"/>
  <path d="M88.4542 36.6949C87.4871 36.8131 86.5306 36.4867 85.6112 35.7208C84.5929 34.8737 83.9029 33.7284 83.5023 32.216C83.1441 30.7477 83.2059 29.3747 83.6912 28.1306C84.2029 26.8511 85.0271 26.0535 86.1406 25.7605C87.2612 25.464 88.3854 25.7782 89.4601 26.6711C90.4784 27.52 91.179 28.7006 91.5408 30.1759C91.9202 31.6054 91.8655 32.9783 91.3802 34.2666C90.8613 35.5231 90.0266 36.3119 88.9025 36.6084C88.7542 36.6455 88.606 36.6755 88.4577 36.6931L88.4542 36.6949ZM86.6436 26.3041C86.5289 26.3182 86.4142 26.3411 86.2995 26.3711C85.3783 26.6129 84.7165 27.2659 84.2771 28.3618C83.8429 29.4788 83.7882 30.7265 84.1129 32.0589C84.4782 33.4354 85.0994 34.4731 86.0153 35.2354C86.9242 35.9925 87.8136 36.2378 88.7366 35.9978C89.6613 35.7543 90.3513 35.0907 90.789 34.0337C91.2302 32.8636 91.2743 31.6565 90.9231 30.3312C90.5896 28.9653 89.9772 27.9259 89.0507 27.1564C88.2513 26.4911 87.4412 26.2052 86.6418 26.3041H86.6436Z" fill="#001D57"/>
  <path d="M88.1349 34.1958C87.4996 34.3581 86.8554 34.2116 86.2536 33.7157C85.6519 33.2216 85.2301 32.5616 85.0095 31.7075C84.7907 30.8516 84.8348 30.0486 85.1436 29.3286C85.4525 28.6068 85.9378 28.148 86.5713 27.9856C87.2066 27.8215 87.8243 28.0015 88.4278 28.4974C89.0296 28.9933 89.4567 29.6798 89.6755 30.5357C89.8943 31.3916 89.8467 32.1663 89.5378 32.8863C89.229 33.6081 88.7684 34.0334 88.1349 34.1975V34.1958Z" fill="black"/>
  <path d="M84.673 30.5375C84.2706 30.2746 84.0306 29.934 83.9142 29.4628C83.7712 28.9969 83.833 28.5627 84.0677 28.1622C84.2742 27.7668 84.583 27.5021 84.9977 27.3927C85.4142 27.3133 85.7936 27.3804 86.1925 27.6151C86.5383 27.8868 86.7801 28.2257 86.9213 28.6916C87.0378 29.161 87.0042 29.5916 86.7978 29.9887C86.5683 30.444 86.2613 30.7104 85.843 30.7899C85.4301 30.8975 85.0207 30.8057 84.673 30.5357V30.5375Z" fill="white"/>
  <path d="M89.8345 33.8343C89.6951 34.0796 89.4868 34.2473 89.2098 34.309C88.9327 34.3708 88.6733 34.3461 88.3998 34.2084C88.1509 34.0408 87.9833 33.8343 87.9215 33.5572C87.8597 33.2802 87.8845 33.0208 88.0521 32.7719C88.1898 32.4984 88.3962 32.3307 88.6733 32.269C88.9504 32.2055 89.2098 32.2302 89.4851 32.396C89.7339 32.5637 89.8998 32.7702 89.9633 33.049C90.0251 33.3261 90.0004 33.5855 89.8327 33.8343H89.8345Z" fill="white"/>
  <path d="M87.8677 43.4942C87.9294 43.4907 87.9912 43.4678 88.0406 43.4219C88.9195 42.633 89.726 41.973 90.5042 41.4101C90.8325 41.1595 91.1078 40.9477 91.4113 40.7571C93.596 39.2518 95.5408 38.4153 97.2032 38.2653C97.3938 38.23 97.535 38.2247 97.6744 38.2176C99.1444 38.1788 100.426 38.6588 101.476 39.6453C101.594 39.7565 101.774 39.7424 101.878 39.6171C101.982 39.4918 101.972 39.2994 101.855 39.19C100.694 38.1012 99.2821 37.57 97.6585 37.6106C97.4626 37.6247 97.3214 37.6264 97.1308 37.6635C95.3749 37.8206 93.3966 38.6659 91.1113 40.24C90.7954 40.4377 90.4954 40.6671 90.206 40.8895C89.3871 41.4842 88.5665 42.1548 87.6718 42.9577C87.5518 43.0672 87.5359 43.2577 87.6365 43.3848C87.6947 43.4589 87.7794 43.496 87.8642 43.4925L87.8677 43.4942Z" fill="#CC6600"/>
  <path d="M89.2006 44.1948C89.3806 44.9854 93.7642 43.413 96.5296 42.7866C99.2967 42.1601 103.151 42.1195 102.971 41.3289C102.791 40.5383 99.0179 38.7135 96.2508 39.34C93.4836 39.9665 89.0206 43.406 89.2006 44.1966V44.1948Z" fill="url(#paint18_radial_1206_1537)"/>
  <path d="M102.613 46.5932C102.613 46.5932 97.3349 42.2679 92.7324 45.9756C92.7324 45.9756 98.3214 38.7313 102.613 46.5932Z" fill="url(#paint19_linear_1206_1537)"/>
  <path d="M50.5048 27.2039C53.3284 28.1393 55.7884 28.3828 55.9967 27.751C56.2067 27.1192 54.0872 25.8486 51.2636 24.9151C48.4418 23.9797 45.9817 23.7344 45.7717 24.3662C45.5652 24.998 47.6829 26.2686 50.5065 27.2039H50.5048Z" fill="url(#paint20_linear_1206_1537)"/>
  <path d="M83.8563 68.5448C83.7593 69.6654 81.2339 73.1861 76.4779 72.7696C71.7219 72.3549 67.5748 69.0301 67.6736 67.9078C67.7707 66.7871 71.7449 69.7537 76.5009 70.1702C81.2569 70.5849 83.9534 67.4242 83.8563 68.5448Z" fill="#F2A711"/>
  <path d="M86.6089 11.6246C88.9278 10.8287 90.022 9.87225 94.6544 15.9694C94.6544 15.9694 91.4267 1.60088 86.819 9.72048C86.2313 10.7546 86.1607 11.7782 86.6089 11.6246Z" fill="#D68607"/>
  <path d="M89.2363 6.55839C89.6122 6.50016 90.0128 6.53545 90.4346 6.66604C92.6723 7.39665 94.2711 10.4691 95.3194 16.058C95.3459 16.2027 95.2523 16.3439 95.0953 16.3969C95.0741 16.4039 95.0529 16.4092 95.0317 16.4127C94.8941 16.4339 94.73 16.3898 94.6806 16.2716C92.2099 10.3773 90.161 9.90612 86.6686 11.0391C86.5663 11.0726 86.4551 11.0108 86.3845 10.9403C86.3139 10.8697 86.2857 10.7726 86.3086 10.6791C86.9457 8.11666 87.9039 6.77016 89.2363 6.56016V6.55839Z" fill="#774104"/>
  <path d="M86.9219 10.0118C86.9219 10.0118 89.8302 0.972785 94.482 14.0919C94.482 14.0919 90.3367 5.66877 86.9219 10.0118Z" fill="url(#paint21_linear_1206_1537)"/>
  <path d="M41.868 41.6398C41.7569 41.5269 41.6686 41.4192 41.6104 41.3222C41.1727 40.8174 40.7298 40.3392 40.278 39.8874C38.9227 38.6027 37.5444 37.5774 36.115 36.8079L34.652 36.0597C32.9896 35.3185 31.2795 34.8314 29.5077 34.5844C27.9654 34.3796 26.3753 34.362 24.7235 34.5385C20.7687 34.6726 17.3557 35.3379 14.4456 36.5397C10.1326 38.2639 6.93487 41.0557 4.81718 44.9399C3.63303 46.8423 2.77536 48.9123 2.23535 51.1747C1.75181 52.816 1.43769 54.5154 1.28592 56.296C1.06003 59.3843 1.38827 62.3438 2.26359 65.2027C2.27771 65.3739 2.32359 65.5274 2.403 65.6598C4.54364 71.5717 8.48608 76.3135 14.2286 79.8448C19.7134 82.4919 25.7206 83.0002 32.2731 81.4031C32.5131 81.3501 32.7672 81.2884 33.039 81.2143C34.7261 80.7925 36.1661 80.2225 37.3768 79.4972C40.5798 77.5806 42.7098 75.5618 43.781 73.4335C44.8116 71.3511 44.7587 69.3781 43.6257 67.4845C43.4475 67.1863 43.2445 66.9251 43.0098 66.6798C41.5186 65.0915 38.7885 64.2233 34.7949 64.0662C30.1872 63.9374 25.6394 64.8533 21.1446 66.7998C25.6394 64.8533 30.1854 63.9374 34.7949 64.0662C38.7885 64.2233 41.5186 65.0915 43.0098 66.6798C45.6234 64.7562 47.1199 62.5079 47.5135 59.9279C47.7976 57.8402 47.3793 55.8584 46.2464 53.9666C45.4028 52.5548 44.2098 51.4659 42.6569 50.6806C38.7338 48.7217 32.5431 48.5488 24.0635 50.1282C20.1246 50.8165 16.9163 52.2406 14.4086 54.4166C16.9163 52.2389 20.1228 50.8165 24.0635 50.1282C32.5431 48.5488 38.7338 48.7235 42.6569 50.6806C44.5046 47.9294 44.2434 44.9293 41.868 41.638V41.6398Z" fill="url(#paint22_radial_1206_1537)"/>
  <path d="M9.8419 20.2191C9.226 22.3915 9.53836 24.5709 10.7719 26.7857C12.4573 29.904 13.4296 31.8699 13.7014 32.6994C14.1938 34.0511 14.4373 35.3253 14.4426 36.5394C17.3527 35.3376 20.7657 34.6723 24.7205 34.5382C26.3723 34.36 27.9623 34.3794 29.5047 34.5841C30.5688 32.5952 31.1812 30.6046 31.3506 28.5875C31.6259 25.5821 30.9289 22.6844 29.2506 19.8785C27.5723 17.0725 25.4246 15.1789 22.7881 14.1642C19.7439 13.033 16.7244 13.3736 13.6855 15.1913C11.6755 16.3931 10.3978 18.0608 9.84013 20.2208L9.8419 20.2191Z" fill="url(#paint23_radial_1206_1537)"/>
  <path d="M37.488 79.6859C36.2686 80.4147 34.7879 81.0006 33.0903 81.4259C32.8185 81.4983 32.5591 81.5636 32.3173 81.6165C25.7401 83.2206 19.6199 82.6912 14.1316 80.0406C8.3591 76.4934 4.34959 71.6827 2.1966 65.7338C2.12072 65.6155 2.06601 65.4391 2.04837 65.2432C1.17305 62.3755 0.843043 59.3613 1.06893 56.28C1.22246 54.4659 1.53659 52.777 2.02542 51.1128C2.56367 48.8557 3.44251 46.738 4.63195 44.8251C6.73377 40.9708 9.96325 38.1314 14.2269 36.3949C14.2022 35.2513 13.9586 34.0336 13.4998 32.7754C13.2316 31.9512 12.2504 29.9747 10.5844 26.8917C9.32794 24.6381 9.00852 22.374 9.63501 20.1627C10.1997 17.9709 11.5268 16.2344 13.5775 15.0061C16.6534 13.1655 19.7788 12.8143 22.8671 13.9614C25.5407 14.9903 27.7501 16.9438 29.439 19.7692C31.1314 22.5963 31.8479 25.5699 31.569 28.6088C31.4084 30.5465 30.8278 32.4983 29.8431 34.4148C31.532 34.6778 33.1785 35.1648 34.7421 35.8619L36.2156 36.6155C37.6627 37.3937 39.041 38.412 40.4298 39.7285C40.8851 40.1855 41.3369 40.6708 41.7763 41.1791C41.8487 41.292 41.9246 41.3856 42.0252 41.4862C44.4058 44.7809 44.7164 47.8375 42.9728 50.5993C44.4517 51.3934 45.6164 52.4858 46.437 53.857C47.5876 55.7788 48.0235 57.8312 47.7324 59.9595C47.3388 62.5255 45.86 64.7949 43.3346 66.7132C43.5128 66.9197 43.6734 67.1385 43.8146 67.375C44.9811 69.325 45.0358 71.3968 43.9787 73.5322C42.8934 75.6905 40.7104 77.7605 37.4915 79.6876L37.488 79.6859ZM11.5974 38.1843C8.78793 39.8661 6.5767 42.1621 5.00608 45.0439C3.83429 46.9269 2.97486 49.004 2.44367 51.224C1.96013 52.8705 1.6513 54.5312 1.49953 56.3136C1.27717 59.3454 1.60365 62.3155 2.46837 65.1373C2.47367 65.1532 2.47543 65.1691 2.4772 65.1849C2.48779 65.3244 2.52308 65.4426 2.58661 65.5467C4.72372 71.4392 8.67146 76.174 14.3398 79.6594C19.7152 82.2536 25.7383 82.7724 32.2185 81.1912C32.4602 81.1382 32.7126 81.0765 32.9808 81.0041C34.6397 80.5876 36.0797 80.0176 37.2639 79.31C40.4104 77.427 42.5387 75.4169 43.5852 73.3345C44.5858 71.3139 44.5382 69.4344 43.437 67.5938C43.2711 67.315 43.0805 67.0662 42.8546 66.8332C42.8528 66.8314 42.8511 66.8297 42.8493 66.8262C41.4057 65.2926 38.6916 64.4367 34.7844 64.2832C30.2472 64.1561 25.6871 65.0702 21.2294 66.9991L20.5076 67.4332C20.4053 67.495 20.2711 67.4615 20.2094 67.3591C20.1476 67.2567 20.1811 67.1226 20.2835 67.0609L21.03 66.6144C25.5707 64.6467 30.1943 63.7202 34.7968 63.849C38.7674 64.0043 41.4622 64.8373 43.0293 66.3938C45.4841 64.5408 46.9188 62.356 47.2947 59.896C47.57 57.8718 47.1535 55.9147 46.0558 54.0794C45.2299 52.6976 44.0846 51.6511 42.5581 50.8764C42.5581 50.8764 42.5564 50.8764 42.5528 50.8764C38.7092 48.9581 32.5008 48.7781 24.0989 50.3434C20.22 51.0211 17.0064 52.447 14.5463 54.5823C14.4545 54.6618 14.3186 54.6529 14.241 54.5612C14.1616 54.4712 14.1722 54.3335 14.2622 54.2559C16.7822 52.0676 20.0647 50.6081 24.0212 49.9181C32.3932 48.3581 38.6333 48.524 42.5758 50.4052C44.2646 47.7651 43.9734 44.938 41.6863 41.7685C41.584 41.6697 41.4869 41.5479 41.4181 41.435C41.0087 40.9656 40.5622 40.4873 40.1192 40.0426C38.7621 38.7561 37.4156 37.7608 36.0056 37.0019L34.5479 36.2554C32.9403 35.5372 31.232 35.0466 29.4778 34.8013C29.4743 34.8013 29.4725 34.8013 29.469 34.8013C27.9407 34.6001 26.3507 34.5842 24.743 34.7572C20.8306 34.8913 17.3981 35.5584 14.5287 36.7425C14.5251 36.7425 14.5216 36.746 14.5181 36.7478C13.4822 37.1625 12.5063 37.6425 11.5939 38.1896L11.5974 38.1843ZM14.6557 36.2202C17.5146 35.0889 20.8976 34.4501 24.7165 34.3213C26.2942 34.1519 27.8701 34.1607 29.3878 34.3495C30.4025 32.4171 30.9743 30.5253 31.1384 28.57C31.4084 25.6228 30.7131 22.7375 29.0684 19.9915C27.406 17.2138 25.3289 15.375 22.7135 14.3673C19.717 13.252 16.7999 13.5837 13.8016 15.3785C11.8251 16.5609 10.6003 18.1633 10.055 20.2757C9.45148 22.4075 9.74972 24.5005 10.9656 26.6835C12.6704 29.8353 13.6322 31.7818 13.911 32.6342C14.3628 33.8713 14.6134 35.0784 14.6575 36.2219L14.6557 36.2202Z" fill="#CC6600" stroke="#CC6600"/>
  <path d="M24.3344 16.1868C27.6644 18.2639 29.2121 21.7934 27.7915 24.0699C26.3709 26.3464 23.2155 24.8887 19.8854 22.8099C16.5554 20.7328 14.3124 18.8215 15.733 16.545C17.1536 14.2685 21.0043 14.1079 24.3344 16.185V16.1868Z" fill="url(#paint24_linear_1206_1537)"/>
  <path d="M15.5046 54.3757C16.2352 56.9399 15.8488 59.2958 14.6417 59.6399C13.4346 59.984 10.7151 58.4169 9.98628 55.8528C9.25568 53.2904 10.791 50.6997 11.9981 50.3574C13.2052 50.0132 14.7758 51.8133 15.5046 54.3757Z" fill="url(#paint25_linear_1206_1537)"/>
  <path d="M20.7573 66.3656C22.3491 68.6862 22.7886 71.1498 21.7403 71.8698C20.6903 72.5898 17.6055 71.6422 16.0137 69.3215C14.4219 67.0009 14.9249 64.1879 15.9749 63.4679C17.0249 62.7479 19.1655 64.0449 20.7591 66.3638L20.7573 66.3656Z" fill="url(#paint26_linear_1206_1537)"/>
  <path d="M30.5117 36.3135C34.996 37.3671 41.7743 41.1789 41.8255 44.9096C41.8538 46.992 33.2718 44.7084 28.7893 43.6566C24.3051 42.6049 21.0562 40.1077 21.5327 38.08C22.0092 36.0524 26.0293 35.2617 30.5135 36.3153L30.5117 36.3135Z" fill="url(#paint27_linear_1206_1537)"/>
  <path d="M37.3972 50.7615C42.0191 52.0815 46.7698 53.6522 45.8697 58.4911C45.4233 60.8929 39.2272 59.8023 34.6054 58.4823C29.9835 57.1623 24.4439 55.2069 25.1163 52.858C25.7869 50.5092 32.7771 49.4415 37.3972 50.7615Z" fill="url(#paint28_linear_1206_1537)"/>
  <path d="M35.0143 65.4939C39.4208 65.9686 42.8498 67.7122 42.668 69.3834C42.488 71.0564 38.8491 70.5058 34.4407 70.0311C30.0324 69.5546 26.5258 69.3322 26.7059 67.6593C26.8859 65.9863 30.6059 65.0174 35.0143 65.4939Z" fill="url(#paint29_linear_1206_1537)"/>
  <path d="M14.6421 38.6944C15.3374 39.3191 11.965 41.3804 9.0002 44.6734C6.03542 47.9682 4.36244 53.2483 3.6689 52.6218C2.97359 51.9971 4.51951 46.4734 7.48428 43.1786C10.4491 39.8839 13.9468 38.0679 14.6421 38.6944Z" fill="url(#paint30_linear_1206_1537)"/>
  <path d="M104.415 46.7187C104.522 46.6163 104.605 46.5175 104.664 46.4275C105.084 45.9651 105.509 45.5292 105.94 45.118C107.235 43.948 108.546 43.0215 109.898 42.3368L111.281 41.6715C112.85 41.0168 114.46 40.6003 116.12 40.4079C117.566 40.2526 119.052 40.2703 120.59 40.4732C124.282 40.6885 127.454 41.3874 130.147 42.575C134.137 44.2816 137.061 46.964 138.951 50.6382C140.013 52.4417 140.769 54.3953 141.222 56.5201C141.637 58.0642 141.891 59.6578 141.993 61.3255C142.135 64.2161 141.76 66.9727 140.878 69.6233C140.862 69.7839 140.814 69.9251 140.739 70.0486C138.607 75.5229 134.816 79.8641 129.372 83.0319C124.189 85.3807 118.566 85.7196 112.481 84.0801C112.259 84.0254 112.023 83.9619 111.77 83.8878C110.205 83.4554 108.873 82.8907 107.757 82.1865C104.808 80.323 102.864 78.3906 101.912 76.377C100.997 74.4093 101.092 72.5669 102.191 70.8233C102.364 70.548 102.56 70.308 102.786 70.0857C104.215 68.6368 106.785 67.8868 110.519 67.8303C114.827 67.8127 119.053 68.7727 123.208 70.6927C119.053 68.7745 114.827 67.8144 110.519 67.8303C106.785 67.8868 104.215 68.6368 102.786 70.0857C100.388 68.2292 99.0412 66.0956 98.7306 63.6761C98.5118 61.7208 98.9477 59.8784 100.049 58.1366C100.869 56.8377 102.008 55.8477 103.476 55.1471C107.184 53.4071 112.972 53.3841 120.855 55.05C124.521 55.7824 127.484 57.1836 129.776 59.2748C127.484 57.1854 124.519 55.7824 120.855 55.05C112.97 53.3841 107.184 53.4053 103.476 55.1471C101.812 52.5353 102.124 49.7399 104.417 46.7187H104.415Z" fill="url(#paint31_radial_1206_1537)"/>
  <path d="M134.812 27.4335C135.339 29.4771 134.997 31.5065 133.794 33.5466C132.149 36.4213 131.196 38.2355 130.924 39.0032C130.433 40.2544 130.178 41.4385 130.144 42.5733C127.453 41.3856 124.28 40.6867 120.588 40.4714C119.049 40.2685 117.563 40.2491 116.118 40.4061C115.168 38.5232 114.641 36.6508 114.53 34.7625C114.341 31.9495 115.055 29.2582 116.688 26.6747C118.32 24.0911 120.369 22.3704 122.854 21.4828C125.723 20.4945 128.536 20.881 131.333 22.6475C133.183 23.8158 134.341 25.4023 134.812 27.4317V27.4335Z" fill="url(#paint32_radial_1206_1537)"/>
  <path d="M107.644 82.3558C104.681 80.4834 102.688 78.4998 101.723 76.4597C100.783 74.4409 100.88 72.5067 102.014 70.712C102.152 70.4931 102.306 70.2937 102.478 70.1049C100.163 68.2572 98.8325 66.1042 98.5237 63.6971C98.3013 61.7029 98.7549 59.7952 99.8719 58.027C100.668 56.7669 101.781 55.7698 103.181 55.0622C101.614 52.4433 101.974 49.595 104.271 46.5702C104.367 46.4785 104.439 46.3937 104.51 46.2896C104.931 45.8255 105.364 45.3808 105.8 44.9643C107.127 43.7643 108.436 42.8448 109.806 42.1513L111.198 41.4807C112.673 40.8648 114.223 40.4466 115.806 40.2401C114.929 38.4277 114.431 36.5906 114.323 34.7764C114.131 31.9317 114.869 29.1698 116.512 26.5668C118.153 23.9674 120.262 22.192 122.782 21.2902C125.692 20.2879 128.604 20.6867 131.436 22.4761C133.324 23.6691 134.524 25.3209 135.003 27.3804C135.539 29.461 135.19 31.5681 133.965 33.6452C132.34 36.4882 131.378 38.313 131.108 39.0753C130.651 40.2401 130.395 41.3713 130.347 42.439C134.29 44.1578 137.242 46.8826 139.12 50.5303C140.188 52.3445 140.961 54.3439 141.412 56.4634C141.832 58.0287 142.086 59.6135 142.189 61.3112C142.33 64.1947 141.954 67.0042 141.07 69.6619C141.049 69.8437 140.992 70.0078 140.92 70.1172C138.774 75.6268 134.922 80.0298 129.449 83.2117C124.262 85.5623 118.534 85.9188 112.426 84.2723C112.202 84.2176 111.96 84.1505 111.708 84.0764C110.132 83.6405 108.763 83.0599 107.64 82.3505L107.644 82.3558ZM132.765 44.1737C131.927 43.6443 131.025 43.1731 130.067 42.7619C130.063 42.7619 130.06 42.7584 130.056 42.7566C127.402 41.5866 124.211 40.886 120.56 40.6724C119.062 40.4748 117.576 40.4536 116.145 40.6072C116.141 40.6072 116.139 40.6072 116.136 40.6072C114.491 40.7977 112.883 41.2178 111.367 41.8513L109.989 42.5148C108.655 43.1907 107.376 44.0908 106.079 45.2626C105.653 45.6684 105.228 46.1061 104.833 46.5349C104.766 46.6391 104.672 46.7502 104.575 46.8402C102.367 49.7485 102.032 52.3833 103.55 54.8875C107.273 53.218 113.108 53.2057 120.892 54.8504C124.571 55.5845 127.605 57.0228 129.91 59.1229C129.993 59.1987 129.998 59.3276 129.924 59.4088C129.848 59.4917 129.721 59.4988 129.638 59.4211C127.388 57.3722 124.42 55.9675 120.811 55.2457C112.998 53.5957 107.196 53.6222 103.562 55.3269H103.558C102.115 56.0151 101.021 56.9681 100.218 58.2387C99.1501 59.9276 98.7178 61.747 98.9296 63.6441C99.226 65.9507 100.518 68.0242 102.768 69.8102C104.266 68.3931 106.804 67.6766 110.515 67.6201C114.818 67.6042 119.116 68.5731 123.313 70.5125L124.001 70.9467C124.097 71.0067 124.125 71.132 124.065 71.2273C124.005 71.3226 123.88 71.349 123.784 71.289L123.121 70.8673C119.002 68.9649 114.761 68.0084 110.52 68.0242C106.867 68.079 104.312 68.8184 102.93 70.2178C102.928 70.2214 102.927 70.2231 102.925 70.2249C102.708 70.4384 102.524 70.6661 102.364 70.9237C101.293 72.6179 101.206 74.372 102.096 76.2833C103.027 78.251 104.97 80.1781 107.866 82.0081C108.955 82.6964 110.287 83.2611 111.828 83.6864C112.079 83.7587 112.312 83.8223 112.538 83.877C118.555 85.5005 124.192 85.1511 129.273 82.8499C134.646 79.7227 138.44 75.3885 140.569 69.9337C140.629 69.8366 140.666 69.7272 140.678 69.5966C140.678 69.5825 140.683 69.5666 140.687 69.5525C141.559 66.9354 141.931 64.1683 141.792 61.3306C141.691 59.6629 141.441 58.1046 141.026 56.5552C140.579 54.4692 139.824 52.5104 138.772 50.7244C137.369 47.9979 135.357 45.8026 132.77 44.1684L132.765 44.1737ZM129.954 42.2713C130.021 41.2036 130.282 40.0813 130.732 38.9359C131.011 38.1453 131.955 36.3488 133.617 33.444C134.803 31.4322 135.128 29.484 134.613 27.4792C134.152 25.4939 133.042 23.9691 131.224 22.8203C128.463 21.0767 125.747 20.7008 122.921 21.675C120.456 22.5556 118.474 24.2268 116.859 26.7839C115.262 29.3128 114.546 31.9917 114.733 34.75C114.841 36.58 115.333 38.3606 116.236 40.1889C117.659 40.0477 119.131 40.0742 120.601 40.2683C124.165 40.4766 127.31 41.1489 129.956 42.2695L129.954 42.2713Z" fill="#CC6600" stroke="#CC6600"/>
  <path d="M121.363 23.3373C118.206 25.2027 116.682 28.4657 117.956 30.624C119.232 32.7823 122.212 31.4922 125.369 29.6269C128.527 27.7615 130.665 26.0268 129.39 23.8685C128.114 21.7102 124.521 21.4738 121.363 23.3391V23.3373Z" fill="url(#paint33_linear_1206_1537)"/>
  <path d="M128.752 59.2094C128.013 61.5865 128.32 63.7977 129.441 64.1454C130.559 64.4931 133.136 63.0918 133.875 60.713C134.615 58.3358 133.24 55.8811 132.121 55.5334C131.002 55.1858 129.494 56.8305 128.754 59.2076L128.752 59.2094Z" fill="url(#paint34_linear_1206_1537)"/>
  <path d="M123.575 70.2921C122.037 72.4239 121.569 74.7163 122.532 75.4117C123.496 76.1087 126.399 75.2916 127.94 73.1616C129.48 71.0298 129.073 68.3915 128.109 67.6944C127.146 66.9973 125.116 68.1603 123.575 70.2921Z" fill="url(#paint35_linear_1206_1537)"/>
  <path d="M115.141 41.9996C110.928 42.882 104.512 46.2915 104.379 49.7733C104.305 51.7181 112.374 49.7786 116.586 48.8963C120.799 48.0139 123.889 45.755 123.49 43.8508C123.091 41.9467 119.353 41.1173 115.141 41.9996Z" fill="url(#paint36_linear_1206_1537)"/>
  <path d="M108.38 55.3393C104.033 56.4687 99.5598 57.8276 100.292 62.3683C100.656 64.6218 106.467 63.743 110.814 62.6153C115.16 61.4876 120.378 59.7847 119.805 57.5752C119.231 55.3657 112.727 54.2098 108.38 55.3393Z" fill="url(#paint37_linear_1206_1537)"/>
  <path d="M110.276 69.1538C106.148 69.498 102.908 71.0492 103.039 72.6145C103.17 74.1816 106.581 73.7492 110.709 73.4051C114.836 73.0592 118.119 72.9304 117.986 71.3651C117.856 69.798 114.404 68.8097 110.274 69.1538H110.276Z" fill="url(#paint38_linear_1206_1537)"/>
  <path d="M129.911 44.5815C129.248 45.1497 132.35 47.1509 135.046 50.2939C137.741 53.4387 139.185 58.4083 139.847 57.84C140.51 57.2718 139.19 52.0763 136.495 48.9333C133.801 45.7885 130.573 44.0132 129.911 44.5815Z" fill="url(#paint39_linear_1206_1537)"/>
  <defs>
    <radialGradient id="paint0_radial_1206_1537" cx="0" cy="0" r="1" gradientUnits="userSpaceOnUse" gradientTransform="translate(73.716 41.373) rotate(168.46) scale(38.5068 38.5068)">
      <stop stop-color="#FDE370"/>
      <stop offset="0.85" stop-color="#FBB90B"/>
      <stop offset="1" stop-color="#FFA80B"/>
    </radialGradient>
    <linearGradient id="paint1_linear_1206_1537" x1="44.6563" y1="67.5478" x2="50.6884" y2="61.9376" gradientUnits="userSpaceOnUse">
      <stop stop-color="#FDF2C2"/>
      <stop offset="1" stop-color="#FBB00B"/>
    </linearGradient>
    <linearGradient id="paint2_linear_1206_1537" x1="77.3587" y1="33.8854" x2="76.4163" y2="48.8734" gradientUnits="userSpaceOnUse">
      <stop offset="0.21" stop-color="#FDD764"/>
      <stop offset="1" stop-color="#FFA80B"/>
    </linearGradient>
    <linearGradient id="paint3_linear_1206_1537" x1="70.3107" y1="5.29393" x2="71.7771" y2="34.5568" gradientUnits="userSpaceOnUse">
      <stop stop-color="#FDF2C2"/>
      <stop offset="1" stop-color="#FBB90B"/>
    </linearGradient>
    <radialGradient id="paint4_radial_1206_1537" cx="0" cy="0" r="1" gradientUnits="userSpaceOnUse" gradientTransform="translate(66.9474 27.4661) rotate(163.96) scale(11.875 11.2812)">
      <stop stop-color="#FDE370"/>
      <stop offset="0.9" stop-color="#FBB90B"/>
      <stop offset="1" stop-color="#ED990B"/>
    </radialGradient>
    <radialGradient id="paint5_radial_1206_1537" cx="0" cy="0" r="1" gradientUnits="userSpaceOnUse" gradientTransform="translate(66.8187 28.6093) rotate(163.96) scale(9.55081)">
      <stop offset="0.57" stop-color="white"/>
      <stop offset="1" stop-color="#B0E1F9"/>
    </radialGradient>
    <radialGradient id="paint6_radial_1206_1537" cx="0" cy="0" r="1" gradientUnits="userSpaceOnUse" gradientTransform="translate(72.1081 53.6431) rotate(165.59) scale(16.7351 16.0657)">
      <stop stop-color="#260000"/>
      <stop offset="0.21" stop-color="#280000"/>
      <stop offset="0.37" stop-color="#320000"/>
      <stop offset="0.51" stop-color="#420000"/>
      <stop offset="0.63" stop-color="#580000"/>
      <stop offset="0.75" stop-color="#750000"/>
    </radialGradient>
    <linearGradient id="paint7_linear_1206_1537" x1="71.2033" y1="66.5785" x2="72.0412" y2="59.1387" gradientUnits="userSpaceOnUse">
      <stop offset="0.01" stop-color="#BF2929"/>
      <stop offset="1" stop-color="#FF4240"/>
    </linearGradient>
    <linearGradient id="paint8_linear_1206_1537" x1="73.8085" y1="50.8081" x2="73.2546" y2="56.9706" gradientUnits="userSpaceOnUse">
      <stop stop-color="#C7E0E8"/>
      <stop offset="0.03" stop-color="#C9E1E8"/>
      <stop offset="0.42" stop-color="#E6F1F4"/>
      <stop offset="0.76" stop-color="#F8FBFC"/>
      <stop offset="1" stop-color="white"/>
    </linearGradient>
    <radialGradient id="paint9_radial_1206_1537" cx="0" cy="0" r="1" gradientUnits="userSpaceOnUse" gradientTransform="translate(66.9049 28.8597) rotate(163.96) scale(5.01364)">
      <stop stop-color="#60DBFF"/>
      <stop offset="0.36" stop-color="#5FD9FE"/>
      <stop offset="0.51" stop-color="#5ED1FC"/>
      <stop offset="0.62" stop-color="#5CC5F9"/>
      <stop offset="0.71" stop-color="#59B4F5"/>
      <stop offset="0.79" stop-color="#559DF0"/>
      <stop offset="0.85" stop-color="#5181E9"/>
      <stop offset="0.92" stop-color="#4B60E1"/>
      <stop offset="0.97" stop-color="#453AD8"/>
      <stop offset="1" stop-color="#4226D4"/>
    </radialGradient>
    <linearGradient id="paint10_linear_1206_1537" x1="64.2926" y1="3.285" x2="65.0619" y2="5.14584" gradientUnits="userSpaceOnUse">
      <stop stop-color="#B0874D"/>
      <stop offset="1" stop-color="#774104"/>
    </linearGradient>
    <linearGradient id="paint11_linear_1206_1537" x1="69.3831" y1="59.7364" x2="67.8911" y2="61.1274" gradientUnits="userSpaceOnUse">
      <stop stop-color="#FD9C6F"/>
      <stop offset="1" stop-color="#ED3333"/>
    </linearGradient>
    <radialGradient id="paint12_radial_1206_1537" cx="0" cy="0" r="1" gradientUnits="userSpaceOnUse" gradientTransform="translate(58.4152 34.0013) rotate(-168.65) scale(5.82218 5.10718)">
      <stop stop-color="#FD9203"/>
      <stop offset="1" stop-color="#FBC900"/>
    </radialGradient>
    <linearGradient id="paint13_linear_1206_1537" x1="73.1783" y1="63.0398" x2="72.0887" y2="64.2914" gradientUnits="userSpaceOnUse">
      <stop stop-color="#FD9C6F"/>
      <stop offset="1" stop-color="#ED3333"/>
    </linearGradient>
    <linearGradient id="paint14_linear_1206_1537" x1="53.581" y1="32.2077" x2="53.9445" y2="36.4235" gradientUnits="userSpaceOnUse">
      <stop stop-color="#FDF0A6"/>
      <stop offset="1" stop-color="#FBB90B"/>
    </linearGradient>
    <radialGradient id="paint15_radial_1206_1537" cx="0" cy="0" r="1" gradientUnits="userSpaceOnUse" gradientTransform="translate(89.8618 29.3882) rotate(167.24) scale(10.7656 10.2219)">
      <stop stop-color="#FDE370"/>
      <stop offset="0.9" stop-color="#FBB90B"/>
      <stop offset="1" stop-color="#ED990B"/>
    </radialGradient>
    <radialGradient id="paint16_radial_1206_1537" cx="0" cy="0" r="1" gradientUnits="userSpaceOnUse" gradientTransform="translate(88.8252 30.8186) rotate(172.98) scale(10.3291 10.3291)">
      <stop offset="0.58" stop-color="white"/>
      <stop offset="1" stop-color="#94DBFF"/>
    </radialGradient>
    <radialGradient id="paint17_radial_1206_1537" cx="0" cy="0" r="1" gradientUnits="userSpaceOnUse" gradientTransform="translate(86.7019 31.4519) rotate(172.98) scale(5.01364)">
      <stop stop-color="#60DBFF"/>
      <stop offset="0.25" stop-color="#60D8FF"/>
      <stop offset="0.43" stop-color="#60CFFF"/>
      <stop offset="0.58" stop-color="#60BFFF"/>
      <stop offset="0.72" stop-color="#60AAFF"/>
      <stop offset="0.78" stop-color="#609DFF"/>
      <stop offset="1" stop-color="#4226D4"/>
    </radialGradient>
    <radialGradient id="paint18_radial_1206_1537" cx="0" cy="0" r="1" gradientUnits="userSpaceOnUse" gradientTransform="translate(95.7775 41.3903) rotate(167.24) scale(5.14953)">
      <stop stop-color="#FD9203"/>
      <stop offset="1" stop-color="#FBB90B"/>
    </radialGradient>
    <linearGradient id="paint19_linear_1206_1537" x1="98.6976" y1="41.8802" x2="98.0335" y2="44.7275" gradientUnits="userSpaceOnUse">
      <stop stop-color="#FDF0A6"/>
      <stop offset="1" stop-color="#FBB90B"/>
    </linearGradient>
    <linearGradient id="paint20_linear_1206_1537" x1="44.3592" y1="27.4429" x2="41.6283" y2="31.3521" gradientUnits="userSpaceOnUse">
      <stop stop-color="#FDF0A6"/>
      <stop offset="1" stop-color="#FBB90B"/>
    </linearGradient>
    <linearGradient id="paint21_linear_1206_1537" x1="90.5391" y1="6.71364" x2="90.6174" y2="9.21585" gradientUnits="userSpaceOnUse">
      <stop stop-color="#B0874D"/>
      <stop offset="1" stop-color="#774104"/>
    </linearGradient>
    <radialGradient id="paint22_radial_1206_1537" cx="0" cy="0" r="1" gradientUnits="userSpaceOnUse" gradientTransform="translate(24.7866 59.5685) rotate(-34.46) scale(23.9988)">
      <stop stop-color="#FDE370"/>
      <stop offset="0.9" stop-color="#FBB90B"/>
      <stop offset="1" stop-color="#FBAB0B"/>
    </radialGradient>
    <radialGradient id="paint23_radial_1206_1537" cx="0" cy="0" r="1" gradientUnits="userSpaceOnUse" gradientTransform="translate(20.4066 23.3495) rotate(-34.46) scale(11.6862)">
      <stop stop-color="#FDE370"/>
      <stop offset="0.9" stop-color="#FBB90B"/>
      <stop offset="1" stop-color="#FBAB0B"/>
    </radialGradient>
    <linearGradient id="paint24_linear_1206_1537" x1="22.388" y1="18.1904" x2="18.6016" y2="31.0875" gradientUnits="userSpaceOnUse">
      <stop stop-color="#FDFCBF"/>
      <stop offset="0.07" stop-color="#FCF4A9"/>
      <stop offset="0.23" stop-color="#FCE279"/>
      <stop offset="0.4" stop-color="#FBD351"/>
      <stop offset="0.56" stop-color="#FBC732"/>
      <stop offset="0.71" stop-color="#FBBF1C"/>
      <stop offset="0.86" stop-color="#FBBA0F"/>
      <stop offset="1" stop-color="#FBB90B"/>
    </linearGradient>
    <linearGradient id="paint25_linear_1206_1537" x1="16.1464" y1="54.0052" x2="7.12581" y2="56.863" gradientUnits="userSpaceOnUse">
      <stop stop-color="#FDFCBF"/>
      <stop offset="0.07" stop-color="#FCF4A9"/>
      <stop offset="0.23" stop-color="#FCE279"/>
      <stop offset="0.4" stop-color="#FBD351"/>
      <stop offset="0.56" stop-color="#FBC732"/>
      <stop offset="0.71" stop-color="#FBBF1C"/>
      <stop offset="0.86" stop-color="#FBBA0F"/>
      <stop offset="1" stop-color="#FBB90B"/>
    </linearGradient>
    <linearGradient id="paint26_linear_1206_1537" x1="21.7023" y1="66.6996" x2="11.9884" y2="69.6761" gradientUnits="userSpaceOnUse">
      <stop stop-color="#FDFCBF"/>
      <stop offset="0.07" stop-color="#FCF4A9"/>
      <stop offset="0.23" stop-color="#FCE279"/>
      <stop offset="0.4" stop-color="#FBD351"/>
      <stop offset="0.56" stop-color="#FBC732"/>
      <stop offset="0.71" stop-color="#FBBF1C"/>
      <stop offset="0.86" stop-color="#FBBA0F"/>
      <stop offset="1" stop-color="#FBB90B"/>
    </linearGradient>
    <linearGradient id="paint27_linear_1206_1537" x1="34.4225" y1="36.9033" x2="26.8488" y2="49.6073" gradientUnits="userSpaceOnUse">
      <stop stop-color="#FDFCBF"/>
      <stop offset="0.07" stop-color="#FCF4A9"/>
      <stop offset="0.23" stop-color="#FCE279"/>
      <stop offset="0.4" stop-color="#FBD351"/>
      <stop offset="0.56" stop-color="#FBC732"/>
      <stop offset="0.71" stop-color="#FBBF1C"/>
      <stop offset="0.86" stop-color="#FBBA0F"/>
      <stop offset="1" stop-color="#FBB90B"/>
    </linearGradient>
    <linearGradient id="paint28_linear_1206_1537" x1="37.3281" y1="49.1006" x2="31.712" y2="69.2267" gradientUnits="userSpaceOnUse">
      <stop stop-color="#FDFCBF"/>
      <stop offset="0.07" stop-color="#FCF4A9"/>
      <stop offset="0.23" stop-color="#FCE279"/>
      <stop offset="0.4" stop-color="#FBD351"/>
      <stop offset="0.56" stop-color="#FBC732"/>
      <stop offset="0.71" stop-color="#FBBF1C"/>
      <stop offset="0.86" stop-color="#FBBA0F"/>
      <stop offset="1" stop-color="#FBB90B"/>
    </linearGradient>
    <linearGradient id="paint29_linear_1206_1537" x1="35.1044" y1="64.6146" x2="33.8962" y2="76.2527" gradientUnits="userSpaceOnUse">
      <stop stop-color="#FDFCBF"/>
      <stop offset="0.07" stop-color="#FCF4A9"/>
      <stop offset="0.23" stop-color="#FCE279"/>
      <stop offset="0.4" stop-color="#FBD351"/>
      <stop offset="0.56" stop-color="#FBC732"/>
      <stop offset="0.71" stop-color="#FBBF1C"/>
      <stop offset="0.86" stop-color="#FBBA0F"/>
      <stop offset="1" stop-color="#FBB90B"/>
    </linearGradient>
    <linearGradient id="paint30_linear_1206_1537" x1="6.62619" y1="43.029" x2="9.45004" y2="45.9615" gradientUnits="userSpaceOnUse">
      <stop stop-color="#FDFCBF"/>
      <stop offset="0.07" stop-color="#FCF4A9"/>
      <stop offset="0.23" stop-color="#FCE279"/>
      <stop offset="0.4" stop-color="#FBD351"/>
      <stop offset="0.56" stop-color="#FBC732"/>
      <stop offset="0.71" stop-color="#FBBF1C"/>
      <stop offset="0.86" stop-color="#FBBA0F"/>
      <stop offset="1" stop-color="#FBB90B"/>
    </linearGradient>
    <radialGradient id="paint31_radial_1206_1537" cx="0" cy="0" r="1" gradientUnits="userSpaceOnUse" gradientTransform="translate(119.959 63.8458) rotate(-144.15) scale(22.4246 22.4246)">
      <stop stop-color="#FDE370"/>
      <stop offset="0.9" stop-color="#FBB90B"/>
      <stop offset="1" stop-color="#FBAB0B"/>
    </radialGradient>
    <radialGradient id="paint32_radial_1206_1537" cx="0" cy="0" r="1" gradientUnits="userSpaceOnUse" gradientTransform="translate(124.871 30.111) rotate(-144.15) scale(10.9202)">
      <stop stop-color="#FDE370"/>
      <stop offset="0.9" stop-color="#FBB90B"/>
      <stop offset="1" stop-color="#FBAB0B"/>
    </radialGradient>
    <linearGradient id="paint33_linear_1206_1537" x1="123.139" y1="25.2561" x2="126.385" y2="37.3891" gradientUnits="userSpaceOnUse">
      <stop stop-color="#FDFCBF"/>
      <stop offset="0.07" stop-color="#FCF4A9"/>
      <stop offset="0.23" stop-color="#FCE279"/>
      <stop offset="0.4" stop-color="#FBD351"/>
      <stop offset="0.56" stop-color="#FBC732"/>
      <stop offset="0.71" stop-color="#FBBF1C"/>
      <stop offset="0.86" stop-color="#FBBA0F"/>
      <stop offset="1" stop-color="#FBB90B"/>
    </linearGradient>
    <linearGradient id="paint34_linear_1206_1537" x1="127.972" y1="58.7059" x2="136.333" y2="61.5794" gradientUnits="userSpaceOnUse">
      <stop stop-color="#FDFCBF"/>
      <stop offset="0.07" stop-color="#FCF4A9"/>
      <stop offset="0.23" stop-color="#FCE279"/>
      <stop offset="0.4" stop-color="#FBD351"/>
      <stop offset="0.56" stop-color="#FBC732"/>
      <stop offset="0.71" stop-color="#FBBF1C"/>
      <stop offset="0.86" stop-color="#FBBA0F"/>
      <stop offset="1" stop-color="#FBB90B"/>
    </linearGradient>
    <linearGradient id="paint35_linear_1206_1537" x1="122.709" y1="70.5437" x2="131.716" y2="73.5426" gradientUnits="userSpaceOnUse">
      <stop stop-color="#FDFCBF"/>
      <stop offset="0.07" stop-color="#FCF4A9"/>
      <stop offset="0.23" stop-color="#FCE279"/>
      <stop offset="0.4" stop-color="#FBD351"/>
      <stop offset="0.56" stop-color="#FBC732"/>
      <stop offset="0.71" stop-color="#FBBF1C"/>
      <stop offset="0.86" stop-color="#FBBA0F"/>
      <stop offset="1" stop-color="#FBB90B"/>
    </linearGradient>
    <linearGradient id="paint36_linear_1206_1537" x1="111.477" y1="42.4665" x2="118.264" y2="54.5028" gradientUnits="userSpaceOnUse">
      <stop stop-color="#FDFCBF"/>
      <stop offset="0.07" stop-color="#FCF4A9"/>
      <stop offset="0.23" stop-color="#FCE279"/>
      <stop offset="0.4" stop-color="#FBD351"/>
      <stop offset="0.56" stop-color="#FBC732"/>
      <stop offset="0.71" stop-color="#FBBF1C"/>
      <stop offset="0.86" stop-color="#FBBA0F"/>
      <stop offset="1" stop-color="#FBB90B"/>
    </linearGradient>
    <linearGradient id="paint37_linear_1206_1537" x1="108.481" y1="53.7927" x2="113.275" y2="72.7188" gradientUnits="userSpaceOnUse">
      <stop stop-color="#FDFCBF"/>
      <stop offset="0.07" stop-color="#FCF4A9"/>
      <stop offset="0.23" stop-color="#FCE279"/>
      <stop offset="0.4" stop-color="#FBD351"/>
      <stop offset="0.56" stop-color="#FBC732"/>
      <stop offset="0.71" stop-color="#FBBF1C"/>
      <stop offset="0.86" stop-color="#FBBA0F"/>
      <stop offset="1" stop-color="#FBB90B"/>
    </linearGradient>
    <linearGradient id="paint38_linear_1206_1537" x1="110.209" y1="68.3263" x2="111.073" y2="79.225" gradientUnits="userSpaceOnUse">
      <stop stop-color="#FDFCBF"/>
      <stop offset="0.07" stop-color="#FCF4A9"/>
      <stop offset="0.23" stop-color="#FCE279"/>
      <stop offset="0.4" stop-color="#FBD351"/>
      <stop offset="0.56" stop-color="#FBC732"/>
      <stop offset="0.71" stop-color="#FBBF1C"/>
      <stop offset="0.86" stop-color="#FBBA0F"/>
      <stop offset="1" stop-color="#FBB90B"/>
    </linearGradient>
    <linearGradient id="paint39_linear_1206_1537" x1="137.303" y1="48.8162" x2="134.597" y2="51.4904" gradientUnits="userSpaceOnUse">
      <stop stop-color="#FDFCBF"/>
      <stop offset="0.07" stop-color="#FCF4A9"/>
      <stop offset="0.23" stop-color="#FCE279"/>
      <stop offset="0.4" stop-color="#FBD351"/>
      <stop offset="0.56" stop-color="#FBC732"/>
      <stop offset="0.71" stop-color="#FBBF1C"/>
      <stop offset="0.86" stop-color="#FBBA0F"/>
      <stop offset="1" stop-color="#FBB90B"/>
    </linearGradient>
  </defs>
</svg>