<svg xmlns="http://www.w3.org/2000/svg" width="55" height="54" viewBox="0 0 55 54" fill="none">
  <g clip-path="url(#clip0_1054_601)">
    <g style="mix-blend-mode:multiply">
      <path opacity="0.09" d="M27.2644 0.440278C22.0477 0.438961 16.9477 1.98505 12.6099 4.88293C8.27206 7.78081 4.89125 11.9002 2.89521 16.72C0.89918 21.5398 0.377627 26.8434 1.39654 31.9597C2.41546 37.076 4.92905 41.775 8.6193 45.4624C11.0685 47.9109 13.9759 49.8531 17.1756 51.1779C20.3754 52.5028 23.8047 53.1845 27.2679 53.184C30.7311 53.1836 34.1603 52.501 37.3597 51.1753C40.5591 49.8495 43.466 47.9066 45.9145 45.4575C48.363 43.0083 50.3052 40.1009 51.63 36.9011C52.9549 33.7014 53.6366 30.272 53.6361 26.8088C53.6357 23.3457 52.9531 19.9165 51.6274 16.7171C50.3016 13.5177 48.3587 10.6108 45.9096 8.16226C43.4664 5.70659 40.5606 3.75972 37.3602 2.43426C34.1598 1.10881 30.7284 0.431079 27.2644 0.440278Z" fill="#FCFCFC"/>
      <path opacity="0.18" d="M27.2642 0.723223C22.1398 0.722328 17.1302 2.24121 12.8691 5.08775C8.60806 7.93429 5.28691 11.9806 3.32577 16.7149C1.36462 21.4492 0.851586 26.6587 1.85155 31.6846C2.85152 36.7105 5.31957 41.327 8.94352 44.95C13.8081 49.7793 20.3883 52.484 27.2429 52.4717C34.0976 52.4594 40.668 49.7311 45.5153 44.8844C50.3625 40.0377 53.0915 33.4675 53.1045 26.6129C53.1175 19.7582 50.4136 13.1778 45.5848 8.31265C43.1841 5.89969 40.3289 3.98656 37.1843 2.68388C34.0396 1.3812 30.668 0.714803 27.2642 0.723223Z" fill="#FAFAFA"/>
      <path opacity="0.27" d="M27.2623 1.00812C22.2293 1.00797 17.3092 2.50034 13.1243 5.29649C8.93939 8.09265 5.67765 12.067 3.75155 16.7169C1.82546 21.3669 1.32152 26.4836 2.30347 31.4199C3.28541 36.3563 5.70914 40.8906 9.26813 44.4495C14.0534 49.1572 20.5049 51.7834 27.2176 51.7562C33.9303 51.729 40.3604 49.0505 45.1073 44.3041C49.8541 39.5577 52.5333 33.128 52.5613 26.4153C52.5893 19.7026 49.9637 13.2507 45.2566 8.46499C42.8987 6.09472 40.0945 4.2153 37.0059 2.93538C33.9173 1.65546 30.6056 1.00042 27.2623 1.00812Z" fill="#F7F7F7"/>
      <path opacity="0.36" d="M27.2644 1.29107C22.3227 1.29167 17.4921 2.75752 13.3833 5.50329C9.27462 8.24906 6.07229 12.1514 4.18125 16.7171C2.2902 21.2827 1.79536 26.3065 2.75928 31.1533C3.72321 36.0001 6.10261 40.4523 9.59666 43.9469C14.2949 48.5742 20.6318 51.1567 27.226 51.1317C33.8203 51.1066 40.1373 48.4759 44.8002 43.813C49.4631 39.1501 52.0938 32.8331 52.1189 26.2388C52.144 19.6445 49.5614 13.3077 44.9342 8.60945C42.6179 6.2834 39.864 4.43911 36.8312 3.18302C33.7985 1.92693 30.547 1.28391 27.2644 1.29107Z" fill="#F4F4F4"/>
      <path opacity="0.45" d="M27.2686 1.57594C22.4203 1.58151 17.6823 3.02351 13.6529 5.71986C9.62352 8.41621 6.4834 12.246 4.62904 16.7257C2.77467 21.2054 2.28921 26.1341 3.23395 30.8895C4.17869 35.6449 6.51127 40.0137 9.93716 43.4444C12.7893 46.3005 16.3022 48.4088 20.1642 49.5824C24.0263 50.7559 28.1182 50.9583 32.0772 50.1718C36.0363 49.3853 39.7401 47.634 42.8603 45.0734C45.9805 42.5127 48.4206 39.2218 49.9645 35.4923C51.5083 31.7628 52.108 27.71 51.7106 23.6932C51.3131 19.6764 49.9307 15.8198 47.6859 12.4651C45.4411 9.11054 42.4032 6.36164 38.8417 4.46216C35.2802 2.56268 31.305 1.57131 27.2686 1.57594Z" fill="#F2F2F2"/>
      <path opacity="0.55" d="M27.2653 1.85868C21.6968 1.85781 16.3004 3.78781 11.9954 7.31981C7.69045 10.8518 4.74339 15.7673 3.65641 21.2286C2.56942 26.6899 3.40976 32.3592 6.03424 37.2704C8.65872 42.1816 12.9049 46.0308 18.0494 48.1622C23.1938 50.2935 28.9181 50.5751 34.2468 48.959C39.5756 47.3428 44.1791 43.9289 47.273 39.299C50.3668 34.6692 51.7595 29.1097 51.2138 23.5681C50.6681 18.0264 48.2177 12.8455 44.2802 8.90798C42.0495 6.66835 39.3976 4.8924 36.4774 3.68253C33.5571 2.47266 30.4263 1.8528 27.2653 1.85868Z" fill="#EFEFEF"/>
      <path opacity="0.64" d="M27.2652 2.14362C21.8044 2.145 16.5129 4.03971 12.2924 7.50494C8.07179 10.9702 5.18324 15.7916 4.11881 21.1477C3.05439 26.5038 3.87995 32.0633 6.45484 36.879C9.02973 41.6947 13.1947 45.4687 18.24 47.558C23.2854 49.6473 28.8991 49.9226 34.1248 48.3371C39.3504 46.7516 43.8646 43.4033 46.8984 38.8627C49.9322 34.3221 51.2979 28.8701 50.7628 23.4355C50.2276 18.0009 47.8247 12.92 43.9636 9.05838C41.7747 6.86033 39.1721 5.1176 36.306 3.93078C33.44 2.74396 30.3673 2.13655 27.2652 2.14362Z" fill="#EDEDED"/>
      <path opacity="0.73" d="M27.2601 2.42875C21.9045 2.42861 16.7146 4.28549 12.5746 7.68299C8.4347 11.0805 5.60091 15.8084 4.55612 21.0611C3.51133 26.3137 4.32021 31.7662 6.84491 36.4893C9.36962 41.2124 13.4539 44.914 18.4019 46.9633C23.3499 49.0126 28.8554 49.2828 33.9803 47.7279C39.1051 46.173 43.5323 42.8891 46.5074 38.4359C49.4825 33.9827 50.8214 28.6357 50.296 23.306C49.7706 17.9762 47.4134 12.9936 43.626 9.207C41.4799 7.05368 38.929 5.3462 36.1202 4.18289C33.3114 3.01958 30.3002 2.42342 27.2601 2.42875Z" fill="#EAEAEA"/>
      <path opacity="0.82" d="M27.2691 2.71146C22.0213 2.71193 16.936 4.53197 12.8797 7.86145C8.82332 11.1909 6.04691 15.8239 5.02347 20.9709C4.00003 26.1179 4.79289 31.4606 7.26695 36.0886C9.741 40.7166 13.7432 44.3436 18.5916 46.3516C23.44 48.3596 28.8347 48.6244 33.8565 47.1009C38.8782 45.5774 43.2164 42.3597 46.1318 37.9963C49.0472 33.6328 50.3595 28.3935 49.8451 23.171C49.3306 17.9485 47.0213 13.0659 43.3105 9.35517C41.2068 7.24475 38.7064 5.57126 35.9534 4.43105C33.2003 3.29084 30.2489 2.70643 27.2691 2.71146Z" fill="#E7E7E7"/>
      <path opacity="0.91" d="M27.2592 2.99635C22.1172 2.99504 17.1339 4.77676 13.1585 8.03789C9.18296 11.299 6.46128 15.8378 5.45718 20.8807C4.45309 25.9236 5.22872 31.1587 7.6519 35.6939C10.0751 40.2291 13.9959 43.7836 18.7462 45.752C23.4964 47.7203 28.7823 47.9805 33.7029 46.4883C38.6236 44.9962 42.8746 41.8439 45.7315 37.5687C48.5885 33.2935 49.8746 28.1599 49.3707 23.0427C48.8669 17.9255 46.6042 13.1414 42.9682 9.50553C40.9078 7.43903 38.4593 5.80014 35.7634 4.68307C33.0675 3.566 30.1774 2.99278 27.2592 2.99635Z" fill="#E5E5E5"/>
      <path d="M42.6531 40.4321C51.1521 31.9331 51.1521 18.1534 42.6531 9.6543C34.154 1.15525 20.3743 1.15525 11.8752 9.6543C3.37618 18.1534 3.37618 31.9331 11.8752 40.4321C20.3743 48.9312 34.154 48.9312 42.6531 40.4321Z" fill="#E2E2E2"/>
    </g>
    <path d="M43.5163 41.283C52.4929 32.3065 52.4929 17.7526 43.5163 8.77606C34.5398 -0.200496 19.9859 -0.200495 11.0093 8.77605C2.03279 17.7526 2.03279 32.3065 11.0093 41.283C19.9859 50.2596 34.5398 50.2596 43.5163 41.283Z" fill="url(#paint0_radial_1054_601)"/>
    <path d="M17.8552 35.6076C17.7193 35.6093 17.5848 35.5805 17.4615 35.5233C17.3383 35.4661 17.2294 35.382 17.143 35.2772C17.0612 35.18 17.0049 35.0641 16.979 34.9397C16.9531 34.8154 16.9585 34.6867 16.9946 34.5649C17.5683 32.63 22.4631 30.8691 27.2628 30.8691C32.0626 30.8691 36.9574 32.63 37.5331 34.5629C37.5688 34.685 37.574 34.814 37.5481 34.9386C37.5222 35.0632 37.4661 35.1794 37.3847 35.2772C37.2977 35.3819 37.1884 35.4658 37.0649 35.523C36.9413 35.5801 36.8066 35.609 36.6705 35.6076H17.8552Z" fill="url(#paint1_linear_1054_601)"/>
    <path d="M17.2228 34.6222C17.1998 34.7164 17.1992 34.8146 17.221 34.9091C17.2428 35.0036 17.2863 35.0916 17.3483 35.1663C17.4102 35.2409 17.4887 35.2999 17.5775 35.3388C17.6664 35.3776 17.7631 35.3951 17.8599 35.3898H36.6751C36.772 35.395 36.8687 35.3774 36.9576 35.3386C37.0465 35.2998 37.1251 35.2408 37.1871 35.1662C37.2492 35.0917 37.293 35.0037 37.315 34.9093C37.3371 34.8148 37.3368 34.7165 37.3142 34.6222C36.78 32.8297 32.0238 31.0867 27.2675 31.0867C22.5113 31.0867 17.755 32.8297 17.2228 34.6222Z" fill="url(#paint2_radial_1054_601)"/>
    <path d="M14.2528 20.6899C14.1305 20.6803 14.0135 20.6354 13.9162 20.5606C13.8189 20.4858 13.7455 20.3843 13.7048 20.2685C13.6328 20.0992 13.5957 19.9172 13.5957 19.7333C13.5957 19.5494 13.6328 19.3674 13.7048 19.1981C14.7435 16.8121 17.822 16.6914 18.4294 16.6914H18.558C19.1654 16.6914 22.2439 16.8121 23.2826 19.1981C23.3546 19.3674 23.3917 19.5494 23.3917 19.7333C23.3917 19.9172 23.3546 20.0992 23.2826 20.2685C23.2419 20.3843 23.1685 20.4858 23.0712 20.5606C22.9739 20.6354 22.8569 20.6803 22.7346 20.6899H14.2528Z" fill="url(#paint3_linear_1054_601)"/>
    <path d="M18.4858 16.9367C18.4858 16.9367 14.9463 16.8279 13.8641 19.3109C13.6544 19.7937 13.8759 20.4406 14.2598 20.4406H22.7217C23.0996 20.4406 23.3152 19.7937 23.1174 19.3109C22.0233 16.8279 18.4858 16.9367 18.4858 16.9367Z" fill="url(#paint4_radial_1054_601)"/>
    <path d="M31.8045 20.6899C31.6822 20.6807 31.5653 20.6359 31.4683 20.561C31.3712 20.4861 31.2983 20.3844 31.2584 20.2685C31.1841 20.1002 31.1447 19.9185 31.1427 19.7345C31.1406 19.5505 31.176 19.3681 31.2465 19.1981C32.2852 16.8121 35.3637 16.6914 35.9711 16.6914H36.1017C36.7071 16.6914 39.7876 16.8121 40.8243 19.1981C40.8963 19.3674 40.9334 19.5494 40.9334 19.7333C40.9334 19.9172 40.8963 20.0992 40.8243 20.2685C40.7842 20.3843 40.7112 20.4858 40.6142 20.5607C40.5172 20.6356 40.4004 20.6805 40.2783 20.6899H31.8045Z" fill="url(#paint5_linear_1054_601)"/>
    <path d="M36.048 16.9367C36.048 16.9367 32.5085 16.8279 31.4263 19.3109C31.2165 19.7937 31.4401 20.4406 31.822 20.4406H40.2859C40.6618 20.4406 40.8794 19.7937 40.6816 19.3109C39.5796 16.8279 36.048 16.9367 36.048 16.9367Z" fill="url(#paint6_radial_1054_601)"/>
  </g>
  <defs>
    <radialGradient id="paint0_radial_1054_601" cx="0" cy="0" r="1" gradientUnits="userSpaceOnUse" gradientTransform="translate(30.9253 19.7193) rotate(179.594) scale(33.1323)">
      <stop stop-color="#FFEF99"/>
      <stop offset="0.52" stop-color="#FFD71B"/>
      <stop offset="1" stop-color="#E69900"/>
    </radialGradient>
    <linearGradient id="paint1_linear_1054_601" x1="27.2628" y1="30.6199" x2="27.2628" y2="35.8153" gradientUnits="userSpaceOnUse">
      <stop stop-color="#FFD71B"/>
      <stop offset="1" stop-color="#E69900"/>
    </linearGradient>
    <radialGradient id="paint2_radial_1054_601" cx="0" cy="0" r="1" gradientUnits="userSpaceOnUse" gradientTransform="translate(27.2675 31.8031) scale(7.30452 6.79321)">
      <stop stop-color="#693718"/>
      <stop offset="0.38" stop-color="#653416"/>
      <stop offset="0.73" stop-color="#5A2C0F"/>
      <stop offset="1" stop-color="#4C2207"/>
    </radialGradient>
    <linearGradient id="paint3_linear_1054_601" x1="13.3755" y1="18.6897" x2="23.1856" y2="18.6897" gradientUnits="userSpaceOnUse">
      <stop stop-color="#FFD71B"/>
      <stop offset="1" stop-color="#E69900"/>
    </linearGradient>
    <radialGradient id="paint4_radial_1054_601" cx="0" cy="0" r="1" gradientUnits="userSpaceOnUse" gradientTransform="translate(18.2815 18.7888) scale(3.43042 5.29028)">
      <stop stop-color="#693718"/>
      <stop offset="0.38" stop-color="#653416"/>
      <stop offset="0.73" stop-color="#5A2C0F"/>
      <stop offset="1" stop-color="#4C2207"/>
    </radialGradient>
    <linearGradient id="paint5_linear_1054_601" x1="30.9709" y1="18.6897" x2="40.781" y2="18.6897" gradientUnits="userSpaceOnUse">
      <stop stop-color="#FFD71B"/>
      <stop offset="1" stop-color="#E69900"/>
    </linearGradient>
    <radialGradient id="paint6_radial_1054_601" cx="0" cy="0" r="1" gradientUnits="userSpaceOnUse" gradientTransform="translate(35.8815 18.7888) scale(3.43042 5.29028)">
      <stop stop-color="#693718"/>
      <stop offset="0.38" stop-color="#653416"/>
      <stop offset="0.73" stop-color="#5A2C0F"/>
      <stop offset="1" stop-color="#4C2207"/>
    </radialGradient>
    <clipPath id="clip0_1054_601">
      <rect width="53.6562" height="53.6562" fill="white" transform="translate(0.435547 0.155273)"/>
    </clipPath>
  </defs>
</svg>