<svg xmlns="http://www.w3.org/2000/svg" width="27" height="31" viewBox="0 0 27 31" fill="none">
  <path d="M20.1302 3.89729C20.3427 3.89729 20.4985 3.89729 20.6543 3.89729C22.534 3.89729 24.4138 3.89637 26.2935 3.89729C26.8406 3.89729 26.9993 4.04474 26.9993 4.55621C27.0002 13.1406 27.0002 21.7249 26.9993 30.3093C26.9993 30.8447 26.8406 30.9986 26.2705 30.9986C19.6629 31.0005 13.0545 31.0005 6.44694 30.9986C5.85369 30.9986 5.70081 30.8502 5.69889 30.2826C5.69504 29.1048 5.69792 27.928 5.69792 26.6728C5.50274 26.6728 5.33736 26.6728 5.17198 26.6728C3.71144 26.6728 2.2509 26.6746 0.791325 26.6719C0.12692 26.67 0.000961513 26.5465 0.000961513 25.9226C0 17.5337 0 9.14283 0 0.752917C0 0.106901 0.109612 0 0.772095 0C6.96039 0 13.1487 0 19.337 0C19.9793 0 20.1283 0.140999 20.1293 0.752917C20.1312 1.77862 20.1293 2.8034 20.1293 3.89729H20.1302ZM25.9118 29.949V4.93589H6.81232V29.949H25.9118ZM1.08651 1.03584V25.6093H5.69696C5.69696 25.3946 5.69696 25.2038 5.69696 25.0121C5.69696 18.2599 5.69696 11.5066 5.69696 4.75434C5.69696 4.06225 5.73542 4.01341 6.40656 3.81804C9.26418 2.98494 12.1228 2.15185 14.9804 1.31691C15.2207 1.24687 15.4573 1.1667 15.6957 1.09113C15.69 1.0727 15.6842 1.05427 15.6794 1.03584H1.08651ZM19.0264 3.87333V1.21278C16.0275 2.08826 13.0756 2.95085 10.1228 3.81343C10.1295 3.8337 10.1363 3.85306 10.143 3.87333H19.0255H19.0264Z" fill="#4E5356"/>
  <path d="M16.442 6.00014C17.0324 6.00014 17.3948 6.24473 17.6179 6.68985C17.9988 7.44984 18.3846 8.20795 18.749 8.97544C18.8571 9.20409 18.9867 9.32029 19.2594 9.3484C20.0729 9.43368 20.8825 9.56113 21.696 9.65296C22.2756 9.71856 22.7481 9.91535 22.9371 10.4954C23.1232 11.068 22.8777 11.4981 22.4432 11.8805C21.8275 12.4221 21.2225 12.9759 20.6351 13.5447C20.525 13.6506 20.449 13.8643 20.4733 14.0105C20.6058 14.8164 20.7695 15.6176 20.9312 16.4188C21.0394 16.9558 20.9721 17.4384 20.4772 17.7767C20.0047 18.0991 19.5196 18.0419 19.0324 17.7832C18.3154 17.4028 17.5818 17.0504 16.8765 16.6512C16.593 16.491 16.3806 16.5144 16.1137 16.6606C15.4015 17.0486 14.6728 17.4084 13.9567 17.7907C13.4657 18.0531 12.9776 18.0944 12.5149 17.7664C12.0687 17.4506 11.9547 17.013 12.0638 16.491C12.2372 15.6635 12.3912 14.8314 12.5236 13.9974C12.547 13.8512 12.4701 13.6385 12.361 13.5326C11.7618 12.9544 11.1432 12.3949 10.5197 11.8402C10.0978 11.4644 9.88155 11.0333 10.0667 10.4823C10.2537 9.92378 10.7116 9.72324 11.2747 9.65765C12.1018 9.56019 12.926 9.43462 13.7541 9.3484C14.0103 9.32123 14.1379 9.21534 14.2383 9.00449C14.5997 8.25106 14.9758 7.50419 15.346 6.75451C15.5788 6.28315 15.9373 5.99264 16.441 6.00014H16.442ZM19.8859 17.0101C19.8703 16.7993 19.8722 16.7046 19.8547 16.6137C19.7056 15.8247 19.5702 15.0329 19.3968 14.2485C19.2624 13.6385 19.4046 13.1512 19.9015 12.7341C20.4412 12.2815 20.9497 11.7933 21.468 11.3163C21.6297 11.1673 21.7759 11.0033 21.9873 10.785C21.7233 10.7363 21.5567 10.6978 21.3881 10.6753C20.562 10.5648 19.7368 10.4523 18.9097 10.3539C18.3943 10.293 18.0611 10.0297 17.8468 9.58268C17.498 8.85455 17.1337 8.13392 16.7703 7.41235C16.7002 7.2746 16.6027 7.14903 16.4712 6.94755C15.9968 7.89871 15.5652 8.75709 15.1385 9.61829C14.9271 10.0447 14.5968 10.2977 14.097 10.3558C13.2553 10.4532 12.4145 10.5676 11.5748 10.68C11.415 10.7016 11.2591 10.7512 11.1013 10.7878C11.0711 10.8431 11.0409 10.8984 11.0107 10.9537C11.1782 11.0661 11.3624 11.1617 11.5114 11.2938C12.0901 11.8111 12.6542 12.3443 13.2309 12.8635C13.607 13.2027 13.7307 13.6066 13.6343 14.0883C13.4735 14.8895 13.3186 15.6926 13.1686 16.4957C13.1423 16.6344 13.151 16.7796 13.1394 16.998C13.3508 16.8968 13.4803 16.8396 13.605 16.7749C14.3386 16.3954 15.0761 16.0206 15.8039 15.6298C16.2666 15.3815 16.7128 15.3702 17.1785 15.6185C17.8049 15.9531 18.4372 16.2764 19.0685 16.6025C19.3072 16.7262 19.5498 16.8433 19.8868 17.0111L19.8859 17.0101Z" fill="#9D4F2A"/>
  <path d="M16.5164 25.9982C14.8868 25.9982 13.2581 25.9965 11.6284 26C11.3252 26 11.0657 25.939 11.0098 25.588C10.96 25.2751 11.1007 25.0726 11.417 25.0214C11.5201 25.0046 11.6267 25.0134 11.7316 25.0134C14.8982 25.0134 18.0648 25.0134 21.2314 25.0134C21.3494 25.0134 21.5005 24.9736 21.5792 25.0311C21.7408 25.1504 21.9383 25.3034 21.9855 25.4802C22.0554 25.7427 21.864 25.9275 21.5993 25.9841C21.4857 26.008 21.3642 25.9973 21.2463 25.9973C19.6699 25.9973 18.0927 25.9973 16.5164 25.9973V25.9982Z" fill="#9D4F2A"/>
  <path d="M16.5122 27.0115C18.1058 27.0115 19.6985 27.0115 21.2921 27.0115C21.4103 27.0115 21.5582 26.9751 21.6406 27.0319C21.7885 27.1338 21.9917 27.2889 21.9995 27.4316C22.0092 27.5974 21.863 27.8057 21.7272 27.9342C21.6432 28.014 21.4532 27.9963 21.3113 27.9963C18.1119 27.9989 14.9124 27.9989 11.7121 27.998C11.6071 27.998 11.4976 28.0078 11.3978 27.9839C11.1342 27.9218 10.9854 27.7498 11.0011 27.468C11.0169 27.1843 11.178 27.0256 11.4556 27.015C11.7839 27.0026 12.114 27.0106 12.4433 27.0106C13.7996 27.0106 15.1559 27.0106 16.5122 27.0106V27.0115Z" fill="#9D4F2A"/>
  <path d="M16.4852 23.989C14.865 23.989 13.2457 23.9863 11.6256 23.9907C11.3015 23.9907 11.0353 23.9187 11.0029 23.543C10.9775 23.2533 11.1202 23.0611 11.4215 23.0207C11.538 23.0049 11.658 23.0102 11.7762 23.0102C14.9368 23.0102 18.0975 23.0102 21.2581 23.0102C21.3895 23.0102 21.5602 22.9733 21.6434 23.04C21.7984 23.1647 22.006 23.3578 21.9999 23.5141C21.9937 23.6747 21.7713 23.8424 21.6145 23.9723C21.5506 24.025 21.4105 23.9863 21.3054 23.9863C19.6984 23.9863 18.0922 23.9863 16.4852 23.9863V23.989Z" fill="#9D4F2A"/>
</svg>