<svg xmlns="http://www.w3.org/2000/svg" width="55" height="54" viewBox="0 0 55 54" fill="none">
  <g clip-path="url(#clip0_1054_412)">
    <g style="mix-blend-mode:multiply">
      <path opacity="0.09" d="M27.5593 0.440278C22.3426 0.438961 17.2427 1.98505 12.9048 4.88293C8.56698 7.78081 5.18617 11.9002 3.19013 16.72C1.1941 21.5398 0.672549 26.8434 1.69146 31.9597C2.71038 37.076 5.22397 41.775 8.91422 45.4624C11.3634 47.9109 14.2708 49.8531 17.4706 51.1779C20.6703 52.5028 24.0997 53.1845 27.5628 53.184C31.026 53.1836 34.4552 52.501 37.6546 51.1753C40.854 49.8495 43.7609 47.9066 46.2094 45.4575C48.6579 43.0083 50.6001 40.1008 51.9249 36.9011C53.2498 33.7014 53.9315 30.272 53.931 26.8088C53.9306 23.3457 53.248 19.9165 51.9223 16.7171C50.5965 13.5177 48.6536 10.6108 46.2045 8.16226C43.7613 5.70659 40.8555 3.75972 37.6551 2.43426C34.4548 1.10881 31.0233 0.431079 27.5593 0.440278Z" fill="#FCFCFC"/>
      <path opacity="0.18" d="M27.5591 0.723223C22.4347 0.722328 17.4251 2.24121 13.1641 5.08775C8.90299 7.93429 5.58184 11.9806 3.62069 16.7149C1.65954 21.4492 1.14651 26.6587 2.14648 31.6846C3.14644 36.7105 5.61449 41.327 9.23844 44.95C14.103 49.7793 20.6832 52.484 27.5379 52.4717C34.3925 52.4594 40.9629 49.7311 45.8102 44.8844C50.6574 40.0377 53.3864 33.4675 53.3994 26.6129C53.4125 19.7582 50.7085 13.1778 45.8798 8.31265C43.4791 5.89969 40.6238 3.98656 37.4792 2.68388C34.3346 1.3812 30.9629 0.714803 27.5591 0.723223Z" fill="#FAFAFA"/>
      <path opacity="0.27" d="M27.5573 1.00812C22.5242 1.00797 17.6041 2.50034 13.4192 5.29649C9.23431 8.09265 5.97257 12.067 4.04648 16.7169C2.12038 21.3669 1.61644 26.4836 2.59839 31.4199C3.58033 36.3563 6.00406 40.8906 9.56306 44.4495C14.3483 49.1572 20.7999 51.7834 27.5125 51.7562C34.2252 51.729 40.6553 49.0505 45.4022 44.3041C50.1491 39.5577 52.8283 33.128 52.8562 26.4153C52.8842 19.7026 50.2587 13.2507 45.5515 8.46499C43.1936 6.09472 40.3894 4.2153 37.3008 2.93538C34.2122 1.65546 30.9005 1.00042 27.5573 1.00812Z" fill="#F7F7F7"/>
      <path opacity="0.36" d="M27.5593 1.29107C22.6176 1.29167 17.787 2.75752 13.6783 5.50329C9.56954 8.24906 6.36721 12.1514 4.47617 16.7171C2.58512 21.2827 2.09028 26.3065 3.05421 31.1533C4.01813 36.0001 6.39753 40.4523 9.89158 43.9469C14.5898 48.5742 20.9267 51.1567 27.5209 51.1317C34.1152 51.1066 40.4322 48.4759 45.0951 43.813C49.758 39.1501 52.3887 32.8331 52.4138 26.2388C52.4389 19.6445 49.8563 13.3077 45.2291 8.60945C42.9129 6.2834 40.1589 4.43911 37.1262 3.18302C34.0934 1.92693 30.8419 1.28391 27.5593 1.29107Z" fill="#F4F4F4"/>
      <path opacity="0.45" d="M27.5635 1.57594C22.7152 1.58151 17.9772 3.02351 13.9478 5.71986C9.91844 8.41621 6.77832 12.246 4.92396 16.7257C3.06959 21.2054 2.58413 26.1341 3.52887 30.8895C4.47361 35.6449 6.80619 40.0137 10.2321 43.4444C13.0843 46.3005 16.5971 48.4088 20.4591 49.5824C24.3212 50.7559 28.4131 50.9583 32.3722 50.1718C36.3312 49.3853 40.035 47.634 43.1552 45.0734C46.2754 42.5127 48.7156 39.2218 50.2594 35.4923C51.8032 31.7628 52.403 27.71 52.0055 23.6932C51.608 19.6764 50.2256 15.8198 47.9808 12.4651C45.736 9.11054 42.6982 6.36164 39.1366 4.46216C35.5751 2.56268 31.5999 1.57131 27.5635 1.57594Z" fill="#F2F2F2"/>
      <path opacity="0.55" d="M27.5602 1.85893C21.9918 1.85805 16.5953 3.78805 12.2903 7.32006C7.98537 10.8521 5.03831 15.7675 3.95133 21.2288C2.86434 26.6902 3.70468 32.3595 6.32916 37.2706C8.95364 42.1818 13.1999 46.0311 18.3443 48.1624C23.4887 50.2938 29.213 50.5753 34.5418 48.9592C39.8705 47.3431 44.4741 43.9292 47.5679 39.2993C50.6617 34.6694 52.0544 29.11 51.5087 23.5683C50.963 18.0267 48.5126 12.8457 44.5751 8.90823C42.3445 6.66859 39.6926 4.89264 36.7723 3.68277C33.852 2.4729 30.7212 1.85304 27.5602 1.85893Z" fill="#EFEFEF"/>
      <path opacity="0.64" d="M27.5602 2.14386C22.0993 2.14524 16.8078 4.03995 12.5873 7.50519C8.36671 10.9704 5.47816 15.7918 4.41374 21.1479C3.34931 26.5041 4.17487 32.0635 6.74976 36.8792C9.32465 41.6949 13.4896 45.4689 18.535 47.5582C23.5803 49.6475 29.194 49.9229 34.4197 48.3373C39.6453 46.7518 44.1596 43.4036 47.1934 38.863C50.2272 34.3224 51.5928 28.8703 51.0577 23.4358C50.5225 18.0012 48.1197 12.9203 44.2585 9.05862C42.0696 6.86058 39.467 5.11785 36.601 3.93102C33.7349 2.7442 30.6622 2.13679 27.5602 2.14386Z" fill="#EDEDED"/>
      <path opacity="0.73" d="M27.555 2.42875C22.1994 2.42861 17.0095 4.28549 12.8696 7.68299C8.72963 11.0805 5.89583 15.8084 4.85104 21.0611C3.80626 26.3137 4.61513 31.7662 7.13984 36.4893C9.66454 41.2124 13.7489 44.914 18.6968 46.9633C23.6448 49.0126 29.1503 49.2828 34.2752 47.7279C39.4001 46.173 43.8272 42.8891 46.8023 38.4359C49.7774 33.9827 51.1163 28.6357 50.5909 23.306C50.0655 17.9762 47.7083 12.9936 43.9209 9.207C41.7748 7.05368 39.2239 5.3462 36.4151 4.18289C33.6063 3.01958 30.5952 2.42342 27.555 2.42875Z" fill="#EAEAEA"/>
      <path opacity="0.82" d="M27.5601 2.7117C22.3123 2.71218 17.227 4.53221 13.1707 7.8617C9.11434 11.1912 6.33793 15.8241 5.31449 20.9712C4.29105 26.1182 5.0839 31.4608 7.55796 36.0888C10.032 40.7168 14.0342 44.3438 18.8826 46.3518C23.731 48.3599 29.1257 48.6247 34.1475 47.1011C39.1693 45.5776 43.5074 42.36 46.4228 37.9965C49.3382 33.6331 50.6505 28.3938 50.1361 23.1712C49.6216 17.9487 47.3123 13.0662 43.6015 9.35541C41.4978 7.24499 38.9975 5.5715 36.2444 4.43129C33.4913 3.29109 30.5399 2.70667 27.5601 2.7117Z" fill="#E7E7E7"/>
      <path opacity="0.91" d="M27.5541 2.9966C22.4122 2.99529 17.4289 4.777 13.4534 8.03813C9.47788 11.2993 6.7562 15.838 5.7521 20.8809C4.74801 25.9239 5.52364 31.159 7.94682 35.6941C10.37 40.2293 14.2908 43.7839 19.0411 45.7522C23.7914 47.7205 29.0772 47.9808 33.9979 46.4886C38.9185 44.9964 43.1695 41.8441 46.0265 37.5689C48.8834 33.2937 50.1695 28.1602 49.6657 23.043C49.1618 17.9258 46.8991 13.1416 43.2632 9.50577C41.2027 7.43928 38.7542 5.80039 36.0583 4.68332C33.3624 3.56625 30.4723 2.99302 27.5541 2.9966Z" fill="#E5E5E5"/>
      <path d="M42.948 40.4336C51.447 31.9345 51.447 18.1548 42.948 9.65577C34.4489 1.15671 20.6692 1.15671 12.1702 9.65577C3.6711 18.1548 3.6711 31.9345 12.1702 40.4336C20.6692 48.9326 34.4489 48.9326 42.948 40.4336Z" fill="#E2E2E2"/>
    </g>
    <path d="M43.8073 41.2996C52.7839 32.3231 52.7839 17.7692 43.8073 8.79266C34.8308 -0.183894 20.2769 -0.183894 11.3004 8.79266C2.32381 17.7692 2.32381 32.3231 11.3004 41.2996C20.2769 50.2762 34.8308 50.2762 43.8073 41.2996Z" fill="url(#paint0_radial_1054_412)"/>
    <path d="M18.357 22.7398C16.5467 22.7516 15.0589 20.9176 15.0431 18.6483C15.0273 16.379 16.4874 14.5252 18.2977 14.5113C20.108 14.4975 21.5958 16.3335 21.6116 18.6028C21.6275 20.8721 20.1673 22.7259 18.357 22.7398Z" fill="url(#paint1_linear_1054_412)"/>
    <mask id="mask0_1054_412" style="mask-type:luminance" maskUnits="userSpaceOnUse" x="15" y="14" width="7" height="9">
      <path d="M18.364 22.5735C20.0871 22.5612 21.4713 20.7832 21.4557 18.6023C21.4401 16.4213 20.0306 14.6633 18.3075 14.6757C16.5844 14.688 15.2002 16.466 15.2158 18.6469C15.2314 20.8279 16.6409 22.5859 18.364 22.5735Z" fill="white"/>
    </mask>
    <g mask="url(#mask0_1054_412)">
      <path d="M21.4612 14.6636H15.1914V22.5874H21.4612V14.6636Z" fill="#4C2207"/>
      <path d="M14.9924 18.6878C14.9707 16.3294 16.4426 14.4103 18.2668 14.4004C20.091 14.3905 21.5847 16.2879 21.6025 18.6443C21.6203 21.0006 20.1523 22.9178 18.3341 22.9316C16.5158 22.9455 15.0083 21.0441 14.9924 18.6878Z" fill="#4C2207"/>
      <path d="M15.1017 18.6857C15.0839 16.4105 16.5005 14.5567 18.2673 14.5428C20.0341 14.529 21.4704 16.365 21.4863 18.6402C21.5021 20.9155 20.0875 22.7713 18.3207 22.7831C16.5539 22.795 15.1176 20.961 15.1017 18.6857Z" fill="#4E2408"/>
      <path d="M15.2228 18.6858C15.207 16.4916 16.5721 14.7031 18.2716 14.6912C19.9711 14.6794 21.362 16.4481 21.3778 18.6482C21.3936 20.8482 20.0265 22.6249 18.3369 22.6368C16.6473 22.6486 15.2386 20.8799 15.2228 18.6858Z" fill="#502509"/>
      <path d="M15.3322 18.6839C15.3163 16.5768 16.632 14.8496 18.2682 14.8377C19.9044 14.8258 21.2359 16.5293 21.2577 18.6423C21.2795 20.7553 19.9578 22.4786 18.3315 22.4904C16.7052 22.5023 15.346 20.7969 15.3322 18.6839Z" fill="#52260B"/>
      <path d="M18.3273 22.3403C19.9008 22.329 21.1645 20.6732 21.15 18.642C21.1354 16.6108 19.8481 14.9732 18.2747 14.9845C16.7013 14.9958 15.4376 16.6515 15.4521 18.6828C15.4666 20.714 16.7539 22.3515 18.3273 22.3403Z" fill="#54280C"/>
      <path d="M15.5626 18.6837C15.5488 16.733 16.7616 15.1423 18.2731 15.1225C19.7847 15.1027 21.0192 16.6835 21.043 18.6343C21.0667 20.5851 19.8421 22.1738 18.3325 22.1955C16.8229 22.2173 15.5745 20.6345 15.5626 18.6837Z" fill="#56290D"/>
      <path d="M18.3261 22.0475C19.7739 22.0372 20.9367 20.5132 20.9233 18.6437C20.9099 16.7742 19.7254 15.267 18.2777 15.2774C16.8299 15.2877 15.6671 16.8117 15.6805 18.6812C15.6939 20.5508 16.8783 22.0579 18.3261 22.0475Z" fill="#582A0E"/>
      <path d="M15.7892 18.6819C15.7773 16.9013 16.8892 15.4372 18.2741 15.4273C19.659 15.4174 20.7907 16.8577 20.8046 18.6463C20.8184 20.4348 19.7046 21.891 18.3196 21.9009C16.9347 21.9108 15.803 20.4704 15.7892 18.6819Z" fill="#592C0F"/>
      <path d="M15.9063 18.6798C15.8945 16.9724 16.951 15.5874 18.2766 15.5736C19.6021 15.5597 20.6804 16.9407 20.6923 18.6462C20.7041 20.3516 19.6417 21.7444 18.3181 21.7543C16.9945 21.7642 15.9182 20.3872 15.9063 18.6798Z" fill="#5B2D10"/>
      <path d="M16.0157 18.6798C16.0058 17.0555 17.0168 15.7299 18.2751 15.7121C19.5334 15.6943 20.5642 17.0139 20.5741 18.6402C20.584 20.2665 19.5849 21.5901 18.3167 21.6079C17.0485 21.6257 16.0276 20.3061 16.0157 18.6798Z" fill="#5C2E10"/>
      <path d="M16.1329 18.6799C16.1211 17.1347 17.0826 15.8764 18.2776 15.8684C19.4726 15.8605 20.4539 17.105 20.4638 18.6383C20.4737 20.1716 19.522 21.4517 18.3172 21.4596C17.1123 21.4675 16.1428 20.2231 16.1329 18.6799Z" fill="#5E2F11"/>
      <path d="M16.2462 18.678C16.2343 17.2159 17.1464 16.0228 18.2781 16.0149C19.4098 16.007 20.3377 17.1862 20.3476 18.6503C20.3575 20.1143 19.4474 21.3054 18.3157 21.3133C17.184 21.3212 16.2561 20.1381 16.2462 18.678Z" fill="#5F3012"/>
      <path d="M16.3594 18.678C16.3594 17.2931 17.2101 16.1693 18.2785 16.1634C19.3469 16.1574 20.2253 17.2693 20.2352 18.6503C20.2451 20.0313 19.3845 21.157 18.3141 21.1649C17.2438 21.1728 16.3732 20.059 16.3594 18.678Z" fill="#603013"/>
      <path d="M16.4727 18.6761C16.4727 17.3762 17.264 16.3157 18.279 16.3019C19.294 16.288 20.113 17.3505 20.113 18.6503C20.113 19.9502 19.3217 21.0107 18.3067 21.0245C17.2917 21.0384 16.4806 19.9779 16.4727 18.6761Z" fill="#613113"/>
      <path d="M16.5859 18.6757C16.5859 17.457 17.3358 16.4638 18.2795 16.4559C19.2232 16.4479 19.9968 17.4332 20.0047 18.652C20.0127 19.8707 19.2549 20.8639 18.3112 20.8718C17.3674 20.8797 16.5958 19.8944 16.5859 18.6757Z" fill="#623214"/>
      <path d="M16.7031 18.676C16.7031 17.5384 17.4035 16.6105 18.2859 16.6045C19.1683 16.5986 19.8885 17.5146 19.8964 18.6522C19.9043 19.7899 19.196 20.7178 18.3136 20.7237C17.4312 20.7296 16.711 19.8136 16.7031 18.676Z" fill="#633315"/>
      <path d="M16.8164 18.6738C16.8164 17.6173 17.4653 16.7567 18.2844 16.7508C19.1035 16.7448 19.7703 17.5976 19.7782 18.6541C19.7861 19.7106 19.1292 20.5712 18.3102 20.5771C17.4911 20.5831 16.8223 19.7303 16.8164 18.6738Z" fill="#643315"/>
      <path d="M16.9297 18.674C16.9297 17.6986 17.5232 16.9033 18.2849 16.8934C19.0467 16.8835 19.658 17.6749 19.6699 18.6503C19.6817 19.6257 19.0763 20.4309 18.3146 20.4309C17.5529 20.4309 16.9376 19.6494 16.9297 18.674Z" fill="#653416"/>
      <path d="M17.043 18.672C17.043 17.7797 17.593 17.0496 18.2854 17.0457C18.9779 17.0417 19.5438 17.7639 19.5497 18.6542C19.5556 19.5445 18.9997 20.2785 18.3072 20.2825C17.6147 20.2864 17.0489 19.5662 17.043 18.672Z" fill="#663516"/>
      <path d="M17.1523 18.6718C17.1523 17.8587 17.6529 17.1959 18.2821 17.1919C18.9112 17.188 19.4256 17.8428 19.4315 18.656C19.4375 19.4691 18.933 20.1379 18.3038 20.1379C17.6747 20.1379 17.1583 19.485 17.1523 18.6718Z" fill="#663516"/>
      <path d="M17.2734 18.6719C17.2734 17.9398 17.7226 17.3443 18.2904 17.3404C18.8582 17.3364 19.3192 17.9339 19.3251 18.656C19.331 19.3782 18.874 19.9836 18.3082 19.9875C17.7423 19.9915 17.2794 19.4019 17.2734 18.6719Z" fill="#673517"/>
      <path d="M17.3828 18.67C17.3828 18.0211 17.7785 17.4829 18.285 17.4829C18.7915 17.4829 19.201 18.0032 19.205 18.6542C19.2089 19.3051 18.8093 19.8412 18.3028 19.8412C17.7963 19.8412 17.3868 19.3209 17.3828 18.67Z" fill="#673617"/>
      <path d="M17.5 18.67C17.5 18.1002 17.8502 17.6373 18.2914 17.6333C18.7326 17.6294 19.0828 18.0884 19.0966 18.6582C19.1105 19.228 18.7464 19.6909 18.3052 19.6949C17.864 19.6989 17.504 19.2379 17.5 18.67Z" fill="#683617"/>
      <path d="M17.6133 18.6681C17.6133 18.1814 17.912 17.7837 18.2899 17.7817C18.6678 17.7798 18.9764 18.1774 18.9804 18.6582C18.9844 19.139 18.6797 19.5446 18.3038 19.5446C17.9279 19.5446 17.6153 19.1489 17.6133 18.6681Z" fill="#683618"/>
      <path d="M17.7266 18.6679C17.7266 18.2722 17.9778 17.93 18.2924 17.928C18.607 17.926 18.8642 18.2525 18.8662 18.66C18.8681 19.0676 18.6169 19.398 18.3023 19.4C17.9877 19.4019 17.7404 19.0735 17.7266 18.6679Z" fill="#693718"/>
      <path d="M17.8359 18.668C17.8359 18.3416 18.0338 18.0745 18.287 18.0745C18.5403 18.0745 18.746 18.3356 18.748 18.668C18.75 19.0004 18.5502 19.2615 18.2949 19.2615C18.0397 19.2615 17.8379 18.9925 17.8359 18.668Z" fill="#693718"/>
      <path d="M17.9559 18.666C17.9721 18.6022 18.0059 18.5443 18.0534 18.4988C18.1009 18.4533 18.1602 18.422 18.2246 18.4084C18.2889 18.3949 18.3558 18.3996 18.4176 18.4221C18.4794 18.4447 18.5337 18.484 18.5743 18.5358C18.6149 18.5876 18.6401 18.6497 18.6472 18.7151C18.6543 18.7805 18.643 18.8466 18.6144 18.9058C18.5859 18.9651 18.5413 19.0152 18.4858 19.0504C18.4302 19.0857 18.3659 19.1046 18.3001 19.1052C18.1964 19.0923 18.1019 19.0389 18.0374 18.9566C17.9729 18.8743 17.9436 18.7698 17.9559 18.666Z" fill="#693718"/>
      <path d="M18.0669 18.666C18.0763 18.6225 18.0977 18.5825 18.1289 18.5507C18.16 18.519 18.1994 18.4966 18.2427 18.4864C18.286 18.4761 18.3313 18.4783 18.3734 18.4927C18.4154 18.5071 18.4526 18.5331 18.4805 18.5677C18.5084 18.6024 18.5259 18.6442 18.531 18.6884C18.5361 18.7325 18.5286 18.7773 18.5093 18.8174C18.4901 18.8574 18.4599 18.8913 18.4222 18.9149C18.3845 18.9385 18.3409 18.951 18.2964 18.9509C18.2295 18.9406 18.1688 18.9057 18.1264 18.853C18.0839 18.8002 18.0627 18.7335 18.0669 18.666Z" fill="#693718"/>
      <path d="M18.1866 18.6644C18.1826 18.6473 18.1826 18.6295 18.1865 18.6123C18.1904 18.5952 18.1981 18.5791 18.2091 18.5654C18.22 18.5516 18.2339 18.5405 18.2498 18.5328C18.2656 18.5252 18.283 18.5212 18.3006 18.5212C18.3182 18.5212 18.3355 18.5252 18.3514 18.5328C18.3672 18.5405 18.3812 18.5516 18.3921 18.5654C18.4031 18.5791 18.4108 18.5952 18.4147 18.6123C18.4186 18.6295 18.4186 18.6473 18.4146 18.6644C18.4146 18.7477 18.365 18.8132 18.3016 18.8132C18.2843 18.811 18.2675 18.8054 18.2524 18.7967C18.2372 18.788 18.2239 18.7765 18.2132 18.7627C18.2026 18.7488 18.1947 18.7331 18.1901 18.7162C18.1856 18.6994 18.1843 18.6818 18.1866 18.6644Z" fill="#693718"/>
    </g>
    <path d="M36.7203 22.6091C34.908 22.621 33.4222 20.7869 33.4064 18.5196C33.3905 16.2523 34.8507 14.3945 36.661 14.3826C38.4713 14.3708 39.9591 16.2048 39.9749 18.4721C39.9907 20.7395 38.5306 22.5972 36.7203 22.6091Z" fill="url(#paint2_linear_1054_412)"/>
    <mask id="mask1_1054_412" style="mask-type:luminance" maskUnits="userSpaceOnUse" x="33" y="14" width="7" height="9">
      <path d="M39.7851 18.474C39.8009 20.6503 38.416 22.4309 36.6927 22.4448C34.9695 22.4586 33.5608 20.6978 33.547 18.5175C33.5331 16.3372 34.9161 14.5606 36.6393 14.5467C38.3626 14.5329 39.7693 16.2917 39.7851 18.474Z" fill="white"/>
    </mask>
    <g mask="url(#mask1_1054_412)">
      <path d="M39.8049 14.5347H33.5352V22.4585H39.8049V14.5347Z" fill="#4C2207"/>
      <path d="M33.3361 18.5551C33.3183 16.1987 34.7843 14.2776 36.6105 14.2637C38.4366 14.2499 39.9284 16.1512 39.9462 18.5076C39.964 20.8639 38.5019 22.789 36.6698 22.8009C34.8378 22.8127 33.3579 20.9134 33.3361 18.5551Z" fill="#4C2207"/>
      <path d="M36.676 22.6519C38.4384 22.6393 39.8539 20.784 39.8377 18.508C39.8214 16.232 38.3794 14.3972 36.617 14.4098C34.8545 14.4224 33.439 16.2777 33.4553 18.5537C33.4716 20.8297 34.9135 22.6645 36.676 22.6519Z" fill="#4E2408"/>
      <path d="M33.547 18.5549C33.5312 16.3608 34.8963 14.5722 36.5958 14.5604C38.2953 14.5485 39.6862 16.3172 39.7001 18.5173C39.7139 20.7174 38.3507 22.5 36.6512 22.5118C34.9517 22.5237 33.5708 20.749 33.547 18.5549Z" fill="#502509"/>
      <path d="M33.6759 18.555C33.6601 16.442 34.9738 14.7187 36.61 14.7068C38.2462 14.695 39.5777 16.4004 39.6015 18.5134C39.6252 20.6264 38.3016 22.3477 36.6654 22.3596C35.0292 22.3715 33.6898 20.668 33.6759 18.555Z" fill="#52260B"/>
      <path d="M36.6711 22.2089C38.2445 22.1977 39.5082 20.5419 39.4937 18.5106C39.4792 16.4794 38.1919 14.8419 36.6185 14.8531C35.045 14.8644 33.7813 16.5202 33.7959 18.5514C33.8104 20.5827 35.0977 22.2202 36.6711 22.2089Z" fill="#54280C"/>
      <path d="M33.9025 18.5551C33.8886 16.6043 35.1014 15.0156 36.613 15.0037C38.1245 14.9919 39.3591 16.5667 39.3729 18.5155C39.3868 20.4643 38.172 22.057 36.6624 22.0669C35.1529 22.0768 33.9163 20.5039 33.9025 18.5551Z" fill="#56290D"/>
      <path d="M34.0196 18.5549C34.0078 16.6852 35.1691 15.1618 36.6174 15.1519C38.0656 15.142 39.2487 16.6476 39.2626 18.5153C39.2764 20.383 38.1071 21.9183 36.6648 21.9183C35.2225 21.9183 34.0335 20.4206 34.0196 18.5549Z" fill="#582A0E"/>
      <path d="M34.1329 18.5549C34.121 16.7743 35.2329 15.3102 36.6179 15.3003C38.0028 15.2905 39.1345 16.7328 39.1464 18.5193C39.1582 20.3059 38.0483 21.766 36.6634 21.7739C35.2784 21.7818 34.1487 20.3356 34.1329 18.5549Z" fill="#592C0F"/>
      <path d="M34.2501 18.555C34.2363 16.8476 35.2987 15.4567 36.6243 15.4468C37.9499 15.4369 39.0281 16.814 39.04 18.5214C39.0519 20.2288 37.9894 21.6177 36.6659 21.6276C35.3423 21.6375 34.262 20.2565 34.2501 18.555Z" fill="#5B2D10"/>
      <path d="M34.3595 18.555C34.3476 16.9307 35.3586 15.6051 36.6189 15.5873C37.8792 15.5695 38.906 16.8892 38.9179 18.5135C38.9297 20.1378 37.9187 21.4634 36.6604 21.4812C35.4021 21.499 34.3713 20.1754 34.3595 18.555Z" fill="#5C2E10"/>
      <path d="M34.4806 18.5551C34.4687 17.0119 35.4302 15.7516 36.6252 15.7437C37.8202 15.7358 38.8016 16.9802 38.8016 18.5136C38.8016 20.0469 37.8618 21.325 36.6648 21.325C35.4678 21.325 34.4905 20.0924 34.4806 18.5551Z" fill="#5E2F11"/>
      <path d="M34.586 18.5552C34.5761 17.0911 35.4862 15.9001 36.6199 15.8902C37.7536 15.8803 38.6795 17.0575 38.6973 18.5196C38.7151 19.9817 37.7971 21.1747 36.6654 21.1826C35.5337 21.1905 34.5979 20.0114 34.586 18.5552Z" fill="#5F3012"/>
      <path d="M34.7032 18.555C34.6933 17.17 35.552 16.0482 36.6223 16.0403C37.6927 16.0324 38.5672 17.1463 38.5771 18.5273C38.587 19.9082 37.7283 21.036 36.6579 21.0439C35.5876 21.0518 34.7131 19.928 34.7032 18.555Z" fill="#603013"/>
      <path d="M34.8164 18.555C34.8164 17.2551 35.6078 16.1946 36.6227 16.1808C37.6377 16.1669 38.4528 17.2215 38.4627 18.5233C38.4726 19.8251 37.6713 20.8836 36.6564 20.8975C35.6414 20.9113 34.8243 19.8469 34.8164 18.555Z" fill="#613113"/>
      <path d="M34.9453 18.5551C34.9453 17.3363 35.6952 16.3431 36.6389 16.3372C37.5826 16.3312 38.3562 17.3126 38.3641 18.5313C38.372 19.7501 37.6143 20.7432 36.6705 20.7512C35.7268 20.7591 34.9453 19.7639 34.9453 18.5551Z" fill="#623214"/>
      <path d="M35.0469 18.5549C35.0469 17.4173 35.7453 16.4894 36.6297 16.4834C37.514 16.4775 38.2302 17.3935 38.2401 18.5311C38.25 19.6688 37.5398 20.5967 36.6574 20.6026C35.775 20.6085 35.0548 19.6826 35.0469 18.5549Z" fill="#633315"/>
      <path d="M35.1602 18.555C35.1602 17.4985 35.8111 16.6358 36.6282 16.6299C37.4453 16.624 38.116 17.4767 38.1239 18.5332C38.1318 19.5897 37.475 20.4503 36.6559 20.4563C35.8368 20.4622 35.1681 19.6016 35.1602 18.555Z" fill="#643315"/>
      <path d="M36.6502 20.2976C37.4052 20.2922 38.0116 19.4968 38.0046 18.5211C37.9977 17.5454 37.3799 16.7587 36.6249 16.7641C35.8699 16.7695 35.2635 17.5649 35.2705 18.5407C35.2774 19.5164 35.8952 20.303 36.6502 20.2976Z" fill="#653416"/>
      <path d="M35.3867 18.5431C35.3867 17.6488 35.9348 16.9208 36.6272 16.9148C37.3197 16.9089 37.8875 17.631 37.8934 18.5253C37.8994 19.4196 37.3434 20.1477 36.651 20.1516C35.9585 20.1556 35.3927 19.4374 35.3867 18.5431Z" fill="#663516"/>
      <path d="M35.4961 18.5412C35.4961 17.73 35.9966 17.0673 36.6258 17.0613C37.255 17.0554 37.7694 17.7122 37.7753 18.5254C37.7812 19.3385 37.2767 20.0013 36.6456 20.0053C36.0145 20.0092 35.502 19.3465 35.4961 18.5412Z" fill="#663516"/>
      <path d="M35.6172 18.5412C35.6172 17.8092 36.0663 17.2137 36.6321 17.2097C37.198 17.2058 37.6629 17.8033 37.6689 18.5274C37.6748 19.2515 37.2178 19.855 36.6519 19.8589C36.0861 19.8629 35.6211 19.2733 35.6172 18.5412Z" fill="#673517"/>
      <path d="M35.7266 18.5391C35.7266 17.8902 36.1223 17.3521 36.6307 17.3521C37.1392 17.3521 37.5468 17.8724 37.5507 18.5233C37.5547 19.1742 37.155 19.7104 36.6466 19.7104C36.1381 19.7104 35.7266 19.1901 35.7266 18.5391Z" fill="#673617"/>
      <path d="M35.8438 18.5391C35.8438 17.9713 36.1939 17.5064 36.6351 17.5044C37.0763 17.5024 37.4265 17.9594 37.4404 18.5273C37.4542 19.0951 37.0922 19.56 36.649 19.564C36.2058 19.5679 35.8477 19.1089 35.8438 18.5391Z" fill="#683617"/>
      <path d="M35.957 18.5392C35.957 18.0505 36.2558 17.6529 36.6337 17.6509C37.0116 17.6489 37.3202 18.0466 37.3242 18.5293C37.3281 19.0121 37.0234 19.4137 36.6455 19.4157C36.2677 19.4177 35.959 19.0259 35.957 18.5392Z" fill="#683618"/>
      <path d="M36.0703 18.5373C36.0703 18.1416 36.3196 17.7994 36.6362 17.7974C36.9527 17.7954 37.2079 18.1238 37.2099 18.5294C37.2119 18.935 36.9606 19.2674 36.646 19.2694C36.3315 19.2713 36.0743 18.9508 36.0703 18.5373Z" fill="#693718"/>
      <path d="M36.1797 18.5371C36.1797 18.2127 36.3775 17.9436 36.6308 17.9436C36.884 17.9436 37.0878 18.2028 37.0918 18.5371C37.0957 18.8715 36.8939 19.1307 36.6387 19.1307C36.3835 19.1307 36.1817 18.8616 36.1797 18.5371Z" fill="#693718"/>
      <path d="M36.3035 18.5352C36.3194 18.4708 36.3531 18.4123 36.4007 18.3661C36.4482 18.3199 36.5078 18.2881 36.5726 18.2741C36.6374 18.2601 36.7048 18.2646 36.7672 18.287C36.8295 18.3095 36.8844 18.349 36.9254 18.401C36.9664 18.4531 36.992 18.5156 36.9993 18.5815C37.0065 18.6474 36.9952 18.714 36.9665 18.7737C36.9377 18.8334 36.8928 18.8839 36.8368 18.9194C36.7808 18.9549 36.716 18.9739 36.6497 18.9744C36.5456 18.962 36.4506 18.9088 36.3857 18.8264C36.3208 18.7441 36.2912 18.6393 36.3035 18.5352Z" fill="#693718"/>
      <path d="M36.4116 18.5352C36.4224 18.4925 36.4449 18.4537 36.4766 18.4231C36.5083 18.3925 36.548 18.3715 36.5911 18.3623C36.6342 18.3532 36.679 18.3563 36.7204 18.3713C36.7618 18.3864 36.7981 18.4127 36.8253 18.4474C36.8525 18.482 36.8694 18.5236 36.8741 18.5674C36.8788 18.6112 36.8711 18.6555 36.8519 18.6951C36.8327 18.7348 36.8028 18.7683 36.7656 18.7918C36.7283 18.8153 36.6852 18.8278 36.6412 18.8281C36.5723 18.8187 36.5099 18.7828 36.467 18.7282C36.4242 18.6735 36.4043 18.6043 36.4116 18.5352Z" fill="#693718"/>
      <path d="M36.5246 18.5354C36.52 18.5008 36.5294 18.4657 36.5505 18.4379C36.5717 18.41 36.603 18.3916 36.6376 18.3867C36.6703 18.3953 36.6992 18.4144 36.7198 18.4411C36.7405 18.4679 36.7517 18.5007 36.7517 18.5344C36.7517 18.5682 36.7405 18.601 36.7198 18.6278C36.6992 18.6545 36.6703 18.6736 36.6376 18.6822C36.6034 18.6772 36.5724 18.6592 36.5513 18.6318C36.5302 18.6044 36.5206 18.5698 36.5246 18.5354Z" fill="#693718"/>
    </g>
    <path d="M27.8648 41.7331C24.2827 41.7618 20.7919 40.6042 17.9368 38.4409C16.2082 37.129 14.711 35.5375 13.507 33.7321C12.6048 32.4006 11.3307 29.15 12.1003 27.6839C12.2247 27.4442 12.4155 27.2453 12.6498 27.111C12.8841 26.9766 13.1521 26.9125 13.4219 26.9262H13.4377C13.5416 26.9262 13.6453 26.9328 13.7484 26.946C14.4745 27.037 15.2599 27.1913 16.172 27.3713C20.0293 28.1836 23.9624 28.5815 27.9043 28.5584C31.8483 28.526 35.7775 28.0717 39.6248 27.2032C40.5349 27.0053 41.3184 26.845 42.0445 26.7441C42.152 26.729 42.2604 26.7204 42.3689 26.7184H42.3848C42.6518 26.7038 42.9174 26.7656 43.1504 26.8967C43.3835 27.0277 43.5743 27.2226 43.7005 27.4584C44.4918 28.9145 43.2632 32.183 42.3808 33.5264C41.2058 35.3477 39.7346 36.96 38.0282 38.2964C35.1671 40.5288 31.6401 41.7374 28.0112 41.7291L27.8648 41.7331Z" fill="url(#paint3_linear_1054_412)"/>
    <path d="M27.9873 40.9575C24.5279 41.0136 21.1495 39.9088 18.3917 37.8196C16.7328 36.5598 15.2958 35.0318 14.1399 33.2988C13.2259 31.9495 12.2307 29.0847 12.7768 28.044C12.8365 27.9282 12.9299 27.8333 13.0447 27.7719C13.1596 27.7104 13.2904 27.6852 13.4198 27.6997C13.4945 27.6997 13.5692 27.7043 13.6434 27.7136C14.3437 27.8026 15.1173 27.955 16.0175 28.131C19.9255 28.955 23.9104 29.3582 27.9042 29.334C31.8987 29.3017 35.8783 28.8421 39.775 27.9629C40.6693 27.765 41.4429 27.6107 42.1492 27.5118C42.2283 27.5019 42.3035 27.496 42.3728 27.494C42.502 27.4774 42.6333 27.5007 42.7489 27.5608C42.8645 27.6209 42.959 27.715 43.0197 27.8303C43.5816 28.8631 42.624 31.7418 41.7317 33.1029C40.601 34.8533 39.1853 36.4021 37.5433 37.6851C34.8137 39.8141 31.449 40.9663 27.9873 40.9575Z" fill="url(#paint4_linear_1054_412)"/>
    <path d="M43.0177 27.8322C43.0544 27.8996 43.0715 27.976 43.0669 28.0526C43.0624 28.1292 43.0364 28.203 42.992 28.2655C42.066 29.5416 40.321 31.619 38.1249 32.6755C34.8394 34.2137 31.2662 35.0409 27.639 35.1031C24.0088 35.0928 20.4215 34.3168 17.1116 32.8259C15.42 32.0424 13.9836 30.6634 12.9944 29.4941C12.8387 29.3174 12.7324 29.1026 12.6862 28.8716C12.64 28.6406 12.6555 28.4015 12.7312 28.1785C12.7467 28.1322 12.7659 28.0872 12.7886 28.0439C12.8479 27.9278 12.9412 27.8326 13.0562 27.7711C13.1711 27.7095 13.3021 27.6846 13.4316 27.6997C13.5063 27.6997 13.581 27.7043 13.6552 27.7135C14.3555 27.8026 15.1311 27.9549 16.0293 28.131C19.9373 28.9548 23.9222 29.3587 27.916 29.3359C31.9105 29.3022 35.8901 28.8419 39.7868 27.9628C40.6811 27.765 41.4547 27.6106 42.161 27.5117C42.2345 27.5018 42.3085 27.4965 42.3826 27.4959C42.5117 27.4785 42.643 27.5013 42.7588 27.5611C42.8745 27.6209 42.969 27.7149 43.0296 27.8303L43.0177 27.8322Z" fill="url(#paint5_linear_1054_412)"/>
  </g>
  <defs>
    <radialGradient id="paint0_radial_1054_412" cx="0" cy="0" r="1" gradientUnits="userSpaceOnUse" gradientTransform="translate(33.2303 19.7232) rotate(179.594) scale(33.1323)">
      <stop stop-color="#FFEF99"/>
      <stop offset="0.52" stop-color="#FFD71B"/>
      <stop offset="1" stop-color="#E69900"/>
    </radialGradient>
    <linearGradient id="paint1_linear_1054_412" x1="18.2989" y1="14.5111" x2="18.3577" y2="22.7373" gradientUnits="userSpaceOnUse">
      <stop stop-color="#FFD71B"/>
      <stop offset="1" stop-color="#E69900"/>
    </linearGradient>
    <linearGradient id="paint2_linear_1054_412" x1="36.6617" y1="14.3796" x2="36.7205" y2="22.6059" gradientUnits="userSpaceOnUse">
      <stop stop-color="#FFD71B"/>
      <stop offset="1" stop-color="#E69900"/>
    </linearGradient>
    <linearGradient id="paint3_linear_1054_412" x1="27.8976" y1="28.0308" x2="28.0003" y2="42.3803" gradientUnits="userSpaceOnUse">
      <stop offset="0.49" stop-color="#40070E"/>
      <stop offset="1" stop-color="#6B080F"/>
    </linearGradient>
    <linearGradient id="paint4_linear_1054_412" x1="27.9021" y1="28.6777" x2="27.9942" y2="41.5395" gradientUnits="userSpaceOnUse">
      <stop offset="0.49" stop-color="#550913"/>
      <stop offset="1" stop-color="#800A12"/>
    </linearGradient>
    <linearGradient id="paint5_linear_1054_412" x1="12.6715" y1="31.4557" x2="43.0917" y2="31.238" gradientUnits="userSpaceOnUse">
      <stop stop-color="#CBCDCE"/>
      <stop offset="0.2" stop-color="#E0E1E2"/>
      <stop offset="0.52" stop-color="white"/>
      <stop offset="1" stop-color="#CBCDCE"/>
    </linearGradient>
    <clipPath id="clip0_1054_412">
      <rect width="53.6562" height="53.6562" fill="white" transform="translate(0.734375 0.155273)"/>
    </clipPath>
  </defs>
</svg>