<svg xmlns="http://www.w3.org/2000/svg" width="42" height="30" viewBox="0 0 42 30" fill="none">
  <path fill-rule="evenodd" clip-rule="evenodd" d="M10.6034 15.2588C9.07519 15.2588 7.58196 14.3517 6.40285 12.7058C5.3571 11.246 4.73242 9.42467 4.73242 7.83667C4.73242 7.58224 4.93771 7.37522 5.19387 7.37522C5.44829 7.37522 5.65532 7.58227 5.65532 7.83667C5.65532 10.7002 7.98546 14.3341 10.6035 14.3341C13.2214 14.3341 15.5518 10.7003 15.5518 7.83667C15.5518 7.7735 15.5518 7.71209 15.5483 7.65068C15.5395 7.39626 15.7378 7.18218 15.9922 7.17167C16.2466 7.16289 16.4607 7.36117 16.4712 7.61559C16.4729 7.68928 16.4747 7.76122 16.4747 7.83492C16.4747 9.42287 15.8501 11.2441 14.8043 12.7041C13.6252 14.3499 12.1337 15.2571 10.6037 15.2571L10.6034 15.2588Z" fill="#4E5356"/>
  <path fill-rule="evenodd" clip-rule="evenodd" d="M10.2998 1.53093C9.6611 1.53093 8.93118 1.70639 8.22933 2.05733C6.58877 2.88023 5.07452 4.67873 5.55353 7.31953C9.75063 6.64225 11.8542 3.77344 11.8772 3.74361C11.9807 3.59798 12.1614 3.52604 12.3386 3.55937C12.5158 3.59271 12.6562 3.72606 12.7001 3.89977C12.7088 3.93486 13.6124 7.37219 15.7408 7.202C15.8285 6.34927 15.6197 3.65766 14.4477 2.52059C13.916 2.00475 13.2563 1.92228 12.4316 2.26793C12.2421 2.34688 12.0245 2.29249 11.8947 2.13282C11.5666 1.73101 10.9858 1.52921 10.2997 1.52921L10.2998 1.53093ZM5.19391 8.29835C4.98511 8.29835 4.79912 8.15622 4.74649 7.94918C4.36749 6.44194 4.52014 4.98734 5.18514 3.74508C5.74837 2.69228 6.68358 1.80096 7.8171 1.23243C9.5647 0.356874 11.3772 0.398963 12.3754 1.30437C13.7282 0.855182 14.6301 1.38332 15.1583 1.929C16.6778 3.49765 16.8778 7.06319 16.5391 7.80344C16.4795 7.93504 16.3602 8.03154 16.218 8.06313C14.8652 8.35966 13.6633 7.7473 12.7439 6.29096C12.4438 5.81545 12.2227 5.32593 12.0701 4.93464C11.0963 5.95582 8.84508 7.8561 5.24787 8.29652C5.23033 8.29828 5.21103 8.30003 5.19173 8.30003L5.19391 8.29835Z" fill="#4E5356"/>
  <path fill-rule="evenodd" clip-rule="evenodd" d="M8.42336 17.5507C8.16894 17.5507 7.96191 17.3437 7.96191 17.0893V14.0801C7.96191 13.8257 8.16896 13.6187 8.42336 13.6187C8.67776 13.6187 8.88481 13.8257 8.88481 14.0801V17.0893C8.88481 17.3437 8.67776 17.5507 8.42336 17.5507ZM12.7818 17.5507C12.5274 17.5507 12.3204 17.3437 12.3204 17.0893V14.0801C12.3204 13.8257 12.5274 13.6187 12.7818 13.6187C13.0362 13.6187 13.2433 13.8257 13.2433 14.0801V17.0893C13.2433 17.3437 13.0362 17.5507 12.7818 17.5507Z" fill="#4E5356"/>
  <path fill-rule="evenodd" clip-rule="evenodd" d="M31.3993 2.88896C28.6709 2.88896 26.4511 5.10856 26.4511 7.83718C26.4511 10.7007 28.7795 14.3346 31.3993 14.3346C34.0172 14.3346 36.3476 10.7008 36.3476 7.83718C36.3476 5.10874 34.128 2.88896 31.3993 2.88896ZM31.3993 15.2591C29.8711 15.2591 28.3779 14.3519 27.1987 12.7061C26.153 11.2462 25.5283 9.42491 25.5283 7.83691C25.5283 4.59964 28.162 1.96606 31.3992 1.96606C34.6364 1.96606 37.27 4.59977 37.27 7.83691C37.27 9.42487 36.6454 11.2461 35.5996 12.7061C34.4205 14.3519 32.9294 15.2591 31.3993 15.2591Z" fill="#4E5356"/>
  <path fill-rule="evenodd" clip-rule="evenodd" d="M25.9898 8.29825C25.76 8.29825 25.5617 8.12629 25.5319 7.89293C25.5003 7.64026 25.681 7.41041 25.9337 7.37884C30.408 6.83137 32.6504 3.77485 32.6733 3.74502C32.7768 3.59939 32.9575 3.52744 33.133 3.56078C33.3084 3.59412 33.4506 3.72747 33.4944 3.90118C33.5225 4.01172 34.2314 6.62436 36.558 6.11202C36.8072 6.05763 37.0528 6.21555 37.1072 6.4647C37.1634 6.71386 37.0055 6.95953 36.7545 7.01392C35.4228 7.30694 34.2735 6.88759 33.4348 5.80148C33.1997 5.49618 33.0225 5.18035 32.8926 4.90486C31.9346 5.91903 29.6746 7.85089 26.0444 8.29482C26.0251 8.29657 26.0058 8.29833 25.9882 8.29833L25.9898 8.29825Z" fill="#4E5356"/>
  <path fill-rule="evenodd" clip-rule="evenodd" d="M29.2202 17.5507C28.9658 17.5507 28.7588 17.3437 28.7588 17.0893V14.0801C28.7588 13.8257 28.9658 13.6187 29.2202 13.6187C29.4746 13.6187 29.6817 13.8257 29.6817 14.0801V17.0893C29.6817 17.3437 29.4746 17.5507 29.2202 17.5507ZM33.5787 17.5507C33.3243 17.5507 33.1173 17.3437 33.1173 17.0893V14.0801C33.1173 13.8257 33.3243 13.6187 33.5787 13.6187C33.8331 13.6187 34.0402 13.8257 34.0402 14.0801V17.0893C34.0402 17.3437 33.8331 17.5507 33.5787 17.5507Z" fill="#4E5356"/>
  <path fill-rule="evenodd" clip-rule="evenodd" d="M25.7154 29.9999C25.4609 29.9999 25.2539 29.7928 25.2539 29.5384V24.9168C25.2539 24.6623 25.461 24.4553 25.7154 24.4553C25.9698 24.4553 26.1768 24.6624 26.1768 24.9168V29.5384C26.1768 29.7929 25.9698 29.9999 25.7154 29.9999Z" fill="#9D4F2A"/>
  <path fill-rule="evenodd" clip-rule="evenodd" d="M37.0816 29.9999C36.8271 29.9999 36.6201 29.7928 36.6201 29.5384V23.315C36.6201 23.0605 36.8272 22.8535 37.0816 22.8535C37.336 22.8535 37.543 23.0606 37.543 23.315V29.5384C37.543 29.7928 37.336 29.9999 37.0816 29.9999Z" fill="#4E5356"/>
  <path fill-rule="evenodd" clip-rule="evenodd" d="M22.6249 29.0748H40.2379V23.3127C40.2379 20.135 37.6534 17.5505 34.4758 17.5505H28.326C26.6924 17.5505 25.1606 18.2401 24.0763 19.4315C24.9852 19.5666 25.7906 20.1912 26.245 21.1791C27.1908 23.2372 26.4202 26.4498 22.6249 29.0748ZM40.6992 29.9977H22.1021C21.8477 29.9977 21.6406 29.7907 21.6406 29.5363V28.8713C21.6406 28.7151 21.7178 28.5712 21.8477 28.4853C25.4183 26.1288 26.2079 23.3106 25.4061 21.5633C24.9639 20.6018 24.1059 20.142 23.2198 20.3947C23.0356 20.4474 22.8373 20.3807 22.7215 20.2245C22.6074 20.0701 22.6004 19.8613 22.7039 19.6999C23.9479 17.775 26.0482 16.6257 28.3241 16.6257H34.4739C38.1604 16.6257 41.1591 19.6244 41.1591 23.311V29.5344C41.1591 29.7888 40.9521 29.9959 40.6977 29.9959L40.6992 29.9977Z" fill="#4E5356"/>
  <path fill-rule="evenodd" clip-rule="evenodd" d="M1.76456 29.0749H19.3775C15.5823 26.4482 14.812 23.2373 15.7577 21.1791C16.2122 20.1912 17.0176 19.5666 17.9265 19.4315C16.8421 18.2401 15.3103 17.5505 13.6768 17.5505H7.52697C4.34935 17.5505 1.76483 20.1351 1.76483 23.3127L1.76456 29.0749ZM19.9004 29.9978H1.30324C1.04882 29.9978 0.841797 29.7908 0.841797 29.5364V23.3129C0.841797 19.6264 3.84047 16.6277 7.52702 16.6277H13.6768C15.9508 16.6277 18.0529 17.777 19.2952 19.7018C19.4005 19.8632 19.3935 20.072 19.2794 20.2265C19.1654 20.3809 18.9671 20.4493 18.7811 20.3967C17.895 20.144 17.037 20.6037 16.5948 21.5653C15.7929 23.3129 16.5825 26.1308 20.1532 28.4872C20.2831 28.5732 20.3603 28.7171 20.3603 28.8732V29.5382C20.3603 29.7927 20.1532 29.9997 19.8988 29.9997L19.9004 29.9978Z" fill="#4E5356"/>
  <path fill-rule="evenodd" clip-rule="evenodd" d="M4.91946 29.9999C4.66503 29.9999 4.45801 29.7928 4.45801 29.5384V23.315C4.45801 23.0605 4.66506 22.8535 4.91946 22.8535C5.17388 22.8535 5.3809 23.0606 5.3809 23.315V29.5384C5.3809 29.7928 5.17386 29.9999 4.91946 29.9999Z" fill="#4E5356"/>
  <path fill-rule="evenodd" clip-rule="evenodd" d="M16.2866 29.9999C16.0322 29.9999 15.8252 29.7928 15.8252 29.5384V24.9168C15.8252 24.6623 16.0322 24.4553 16.2866 24.4553C16.541 24.4553 16.7481 24.6624 16.7481 24.9168V29.5384C16.7481 29.7929 16.541 29.9999 16.2866 29.9999Z" fill="#9D4F2A"/>
  <path fill-rule="evenodd" clip-rule="evenodd" d="M18.3071 20.3266C18.1948 20.3266 18.0843 20.3371 17.9755 20.3599C17.1526 20.5319 16.5156 21.3267 16.3559 22.3882C16.2261 23.2533 16.1822 26.2537 21.0023 29.0065C25.8221 26.2535 25.7803 23.2516 25.6487 22.3882C25.489 21.3267 24.8521 20.5301 24.0274 20.3599C23.122 20.1722 22.1622 20.7687 21.3919 21.997C21.3077 22.1321 21.1603 22.2128 21.0006 22.2128C20.841 22.2128 20.6936 22.1303 20.6094 21.997C19.9338 20.9179 19.1092 20.3265 18.3055 20.3265L18.3071 20.3266ZM21.0022 29.9998C20.925 29.9998 20.8478 29.9805 20.7794 29.9419C15.2135 26.866 15.2872 23.2777 15.4435 22.2514C15.6628 20.8038 16.5823 19.7071 17.7877 19.4562C18.9282 19.2193 20.074 19.7598 21.0022 20.9476C21.9304 19.7598 23.0779 19.2211 24.2166 19.4562C25.4221 19.7071 26.3432 20.8038 26.5608 22.2514C26.717 23.2778 26.7907 26.8658 21.2232 29.9419C21.1547 29.9805 21.0775 29.9998 21.0003 29.9998H21.0022Z" fill="#9D4F2A"/>
</svg>