<svg xmlns="http://www.w3.org/2000/svg" width="55" height="54" viewBox="0 0 55 54" fill="none">
  <g clip-path="url(#clip0_1054_507)">
    <g style="mix-blend-mode:multiply">
      <path opacity="0.09" d="M27.4158 0.440034C22.199 0.438717 17.0991 1.98481 12.7613 4.88268C8.42343 7.78056 5.04261 11.9 3.04658 16.7198C1.05055 21.5396 0.528994 26.8431 1.54791 31.9594C2.56682 37.0757 5.08042 41.7748 8.77066 45.4622C11.2198 47.9107 14.1273 49.8528 17.327 51.1777C20.5267 52.5026 23.9561 53.1842 27.4193 53.1838C30.8825 53.1833 34.3116 52.5007 37.511 51.175C40.7104 49.8493 43.6174 47.9064 46.0659 45.4572C48.5144 43.0081 50.4565 40.1006 51.7814 36.9009C53.1063 33.7011 53.7879 30.2718 53.7875 26.8086C53.787 23.3454 53.1044 19.9162 51.7787 16.7168C50.453 13.5175 48.5101 10.6105 46.0609 8.16201C43.6178 5.70635 40.712 3.75947 37.5116 2.43402C34.3112 1.10857 30.8798 0.430835 27.4158 0.440034Z" fill="#FCFCFC"/>
      <path opacity="0.18" d="M27.4155 0.722979C22.2911 0.722084 17.2816 2.24097 13.0205 5.08751C8.75943 7.93405 5.43828 11.9804 3.47713 16.7146C1.51599 21.4489 1.00295 26.6585 2.00292 31.6844C3.00289 36.7103 5.47094 41.3267 9.09489 44.9498C13.9595 49.7791 20.5397 52.4837 27.3943 52.4714C34.249 52.4591 40.8194 49.7308 45.6666 44.8841C50.5139 40.0374 53.2428 33.4673 53.2559 26.6126C53.2689 19.758 50.565 13.1775 45.7362 8.3124C43.3355 5.89945 40.4803 3.98632 37.3356 2.68364C34.191 1.38095 30.8193 0.714559 27.4155 0.722979Z" fill="#FAFAFA"/>
      <path opacity="0.27" d="M27.4137 1.00788C22.3806 1.00773 17.4605 2.50009 13.2757 5.29625C9.09075 8.0924 5.82902 12.0668 3.90292 16.7167C1.97683 21.3666 1.47289 26.4833 2.45483 31.4197C3.43678 36.3561 5.8605 40.8904 9.4195 44.4492C14.2047 49.1569 20.6563 51.7832 27.369 51.7559C34.0817 51.7287 40.5117 49.0502 45.2586 44.3038C50.0055 39.5575 52.6847 33.1277 52.7127 26.415C52.7406 19.7023 50.1151 13.2505 45.4079 8.46474C43.0501 6.09447 40.2458 4.21506 37.1572 2.93513C34.0686 1.65521 30.757 1.00017 27.4137 1.00788Z" fill="#F7F7F7"/>
      <path opacity="0.36" d="M27.4158 1.29083C22.474 1.29142 17.6434 2.75727 13.5347 5.50304C9.42598 8.24881 6.22366 12.1512 4.33261 16.7168C2.44157 21.2824 1.94673 26.3062 2.91065 31.1531C3.87457 35.9999 6.25398 40.4521 9.74802 43.9467C14.4463 48.574 20.7831 51.1565 27.3774 51.1314C33.9717 51.1063 40.2887 48.4756 44.9516 43.8127C49.6145 39.1499 52.2451 32.8328 52.2702 26.2386C52.2953 19.6443 49.7128 13.3074 45.0855 8.6092C42.7693 6.28316 40.0154 4.43887 36.9826 3.18278C33.9499 1.92669 30.6984 1.28367 27.4158 1.29083Z" fill="#F4F4F4"/>
      <path opacity="0.45" d="M27.42 1.5757C22.5716 1.58127 17.8337 3.02326 13.8043 5.71962C9.77488 8.41597 6.63477 12.2458 4.7804 16.7255C2.92604 21.2051 2.44058 26.1338 3.38532 30.8892C4.33006 35.6446 6.66263 40.0135 10.0885 43.4441C12.9407 46.3003 16.4535 48.4086 20.3156 49.5821C24.1776 50.7556 28.2696 50.9581 32.2286 50.1715C36.1876 49.385 39.8914 47.6338 43.0116 45.0732C46.1318 42.5125 48.572 39.2215 50.1158 35.492C51.6597 31.7625 52.2594 27.7097 51.8619 23.693C51.4645 19.6762 50.0821 15.8195 47.8372 12.4649C45.5924 9.1103 42.5546 6.3614 38.9931 4.46192C35.4315 2.56244 31.4564 1.57107 27.42 1.5757Z" fill="#F2F2F2"/>
      <path opacity="0.55" d="M27.4167 1.85868C21.8482 1.85781 16.4517 3.78781 12.1468 7.31981C7.84182 10.8518 4.89476 15.7673 3.80777 21.2286C2.72079 26.6899 3.56113 32.3592 6.18561 37.2704C8.81009 42.1816 13.0563 46.0308 18.2007 48.1622C23.3452 50.2935 29.0694 50.5751 34.3982 48.959C39.727 47.3428 44.3305 43.9289 47.4243 39.299C50.5182 34.6692 51.9109 29.1097 51.3652 23.5681C50.8194 18.0264 48.369 12.8455 44.4315 8.90798C42.2009 6.66835 39.549 4.8924 36.6287 3.68253C33.7085 2.47266 30.5776 1.8528 27.4167 1.85868Z" fill="#EFEFEF"/>
      <path opacity="0.64" d="M27.4166 2.14362C21.9557 2.145 16.6643 4.03971 12.4437 7.50494C8.22316 10.9702 5.3346 15.7916 4.27018 21.1477C3.20576 26.5038 4.03131 32.0633 6.6062 36.879C9.18109 41.6947 13.346 45.4687 18.3914 47.558C23.4368 49.6473 29.0505 49.9226 34.2761 48.3371C39.5017 46.7516 44.016 43.4033 47.0498 38.8627C50.0836 34.3221 51.4493 28.8701 50.9141 23.4355C50.379 18.0009 47.9761 12.92 44.1149 9.05838C41.926 6.86033 39.3234 5.1176 36.4574 3.93078C33.5914 2.74396 30.5187 2.13655 27.4166 2.14362Z" fill="#EDEDED"/>
      <path opacity="0.73" d="M27.4115 2.4285C22.0559 2.42837 16.866 4.28525 12.726 7.68275C8.58607 11.0802 5.75227 15.8081 4.70749 21.0608C3.6627 26.3135 4.47158 31.7659 6.99628 36.4891C9.52099 41.2122 13.6053 44.9138 18.5533 46.9631C23.5013 49.0124 29.0068 49.2826 34.1316 47.7277C39.2565 46.1727 43.6837 42.8889 46.6587 38.4357C49.6338 33.9825 50.9727 28.6355 50.4473 23.3057C49.9219 17.976 47.5647 12.9933 43.7774 9.20675C41.6313 7.05343 39.0804 5.34595 36.2716 4.18264C33.4628 3.01933 30.4516 2.42317 27.4115 2.4285Z" fill="#EAEAEA"/>
      <path opacity="0.82" d="M27.4165 2.71146C22.1687 2.71193 17.0834 4.53197 13.0271 7.86145C8.97078 11.1909 6.19437 15.8239 5.17093 20.9709C4.1475 26.1179 4.94035 31.4606 7.41441 36.0886C9.88847 40.7166 13.8907 44.3436 18.7391 46.3516C23.5875 48.3596 28.9822 48.6244 34.0039 47.1009C39.0257 45.5773 43.3639 42.3597 46.2793 37.9963C49.1947 33.6328 50.507 28.3935 49.9925 23.171C49.4781 17.9485 47.1687 13.0659 43.458 9.35517C41.3543 7.24475 38.8539 5.57126 36.1008 4.43105C33.3478 3.29084 30.3964 2.70643 27.4165 2.71146Z" fill="#E7E7E7"/>
      <path opacity="0.91" d="M27.4105 2.99635C22.2686 2.99504 17.2853 4.77676 13.3098 8.03789C9.33433 11.299 6.61264 15.8378 5.60855 20.8807C4.60446 25.9236 5.38009 31.1587 7.80327 35.6939C10.2265 40.2291 14.1472 43.7836 18.8975 45.752C23.6478 47.7203 28.9337 47.9805 33.8543 46.4883C38.775 44.9962 43.026 41.8439 45.8829 37.5687C48.7399 33.2935 50.026 28.1599 49.5221 23.0427C49.0182 17.9255 46.7555 13.1414 43.1196 9.50553C41.0592 7.43903 38.6106 5.80014 35.9147 4.68307C33.2188 3.566 30.3287 2.99278 27.4105 2.99635Z" fill="#E5E5E5"/>
      <path d="M42.8044 40.4333C51.3035 31.9343 51.3035 18.1546 42.8044 9.65553C34.3054 1.15647 20.5257 1.15647 12.0266 9.65553C3.52755 18.1546 3.52754 31.9343 12.0266 40.4333C20.5257 48.9324 34.3054 48.9324 42.8044 40.4333Z" fill="#E2E2E2"/>
    </g>
    <path d="M43.656 41.2171C52.6325 32.2406 52.6325 17.6867 43.656 8.71014C34.6794 -0.266412 20.1255 -0.266413 11.149 8.71014C2.17244 17.6867 2.17244 32.2406 11.149 41.2171C20.1255 50.1937 34.6794 50.1937 43.656 41.2171Z" fill="url(#paint0_radial_1054_507)"/>
    <path d="M27.3952 38.2865H27.1301C26.9441 38.2865 26.7542 38.2865 26.5623 38.2707L26.1468 38.247C25.9826 38.247 25.8461 38.2272 25.7155 38.2133L25.3079 38.1718L25.025 38.1342L24.8885 38.1164C24.6432 38.0847 24.384 38.0432 24.0516 37.9799C23.9467 37.964 23.8399 37.9403 23.735 37.9166L23.4996 37.8671C23.4066 37.8473 23.3156 37.8275 23.2226 37.8038C22.9436 37.7365 22.6706 37.6673 22.4015 37.5842C22.1325 37.5011 21.8377 37.4101 21.6102 37.3309L21.3411 37.232L21.2125 37.1845C21.0641 37.1291 20.9335 37.0777 20.8168 37.0282C19.773 36.6051 18.778 36.0705 17.8491 35.4336C17.3775 35.1114 16.9263 34.7606 16.4978 34.383C16.2742 34.1852 16.0704 33.9873 15.8765 33.7895C15.7677 33.6747 15.6787 33.5679 15.5778 33.465L15.4314 33.2968L15.2751 33.099C14.9923 32.8035 14.8365 32.409 14.8409 32C14.8453 31.5911 15.0097 31.2001 15.2988 30.9108C15.426 30.782 15.5781 30.6805 15.7458 30.6125C15.9135 30.5444 16.0933 30.5113 16.2742 30.5151C16.7061 30.533 17.1256 30.664 17.491 30.895L17.5444 30.9246L17.6829 31.0097L17.9579 31.17C18.1557 31.2827 18.3536 31.3915 18.5396 31.4885C18.963 31.7081 19.3547 31.8941 19.7266 32.0583C20.5331 32.4107 21.3635 32.7055 22.2116 32.9407C23.0557 33.1749 23.9152 33.3501 24.7836 33.465L25.021 33.4927C25.1576 33.5105 25.296 33.5283 25.4286 33.5382L25.5572 33.552L25.7551 33.5698L26.0973 33.5916C26.2378 33.6035 26.3783 33.6094 26.5148 33.6154L26.7621 33.6272C26.8887 33.6272 27.0213 33.6272 27.1578 33.6272H27.6682C27.8028 33.6272 27.9373 33.6272 28.0639 33.6272C28.1391 33.6272 28.2202 33.6272 28.3033 33.6154C28.4398 33.6154 28.5803 33.6035 28.7129 33.5916L29.0551 33.5698L29.253 33.552L29.3796 33.5402C29.5161 33.5283 29.6546 33.5105 29.7872 33.4927L30.0345 33.463C31.7729 33.2325 33.4704 32.7596 35.0776 32.0583C35.4575 31.8961 35.8492 31.7081 36.2766 31.4865C36.4586 31.3896 36.6723 31.2887 36.8523 31.1719L37.1313 31.0097L37.2638 30.9286L37.3232 30.893C37.6794 30.653 38.095 30.5161 38.5241 30.4973C38.7079 30.494 38.8905 30.5283 39.0606 30.5981C39.2306 30.6678 39.3847 30.7715 39.5134 30.9029C39.8023 31.1922 39.9667 31.5829 39.9715 31.9917C39.9763 32.4005 39.8211 32.7951 39.5391 33.0911L39.3887 33.2751L39.2383 33.4472C39.1434 33.554 39.0405 33.6589 38.9396 33.7717C38.7417 33.9695 38.5439 34.1673 38.3144 34.3652C37.891 34.7409 37.445 35.0905 36.9789 35.4118C36.0496 36.0485 35.0546 36.5837 34.0112 37.0084C33.8925 37.0579 33.7619 37.1074 33.6155 37.1628L33.4869 37.2102L33.2179 37.3092C32.9824 37.3883 32.7015 37.4813 32.4126 37.5644C32.1238 37.6475 31.8784 37.7128 31.5995 37.782C31.5065 37.8058 31.4135 37.8255 31.3205 37.8453L31.0851 37.8948C30.9802 37.9185 30.8734 37.9423 30.7645 37.9601C30.4361 38.0214 30.171 38.063 29.9316 38.0946L29.7971 38.1124L29.5161 38.15L29.1026 38.1916C28.974 38.2054 28.8375 38.2173 28.6713 38.2252L28.2618 38.2489C28.0639 38.2489 27.8661 38.2608 27.692 38.2648H27.4269H27.4091L27.3952 38.2865Z" fill="url(#paint1_linear_1054_507)"/>
    <path d="M27.3991 38.1124H27.132C26.948 38.1124 26.7581 38.1124 26.5701 38.0946L26.1566 38.0709C25.9964 38.0709 25.8618 38.0531 25.7352 38.0392L25.3256 37.9977L25.0467 37.9601L24.9102 37.9442C24.6688 37.9146 24.4136 37.873 24.0832 37.8097C23.9803 37.7939 23.8853 37.7701 23.7725 37.7484L23.5371 37.6969L23.2641 37.6356C22.9871 37.5683 22.718 37.5011 22.4529 37.418C22.1878 37.3349 21.893 37.2458 21.6615 37.1667C21.5745 37.137 21.4854 37.1034 21.3984 37.0698L21.2698 37.0223C21.1214 36.9689 20.9928 36.9174 20.8741 36.868C19.8405 36.448 18.8554 35.9173 17.9361 35.2852C17.4757 34.968 17.035 34.6231 16.6164 34.2524C16.3968 34.0546 16.195 33.8567 16.0051 33.6589C15.8962 33.5461 15.8072 33.4412 15.7103 33.3403L15.5658 33.1741L15.4076 32.9763C15.1538 32.7147 15.0133 32.3637 15.0167 31.9992C15.02 31.6348 15.1668 31.2864 15.4254 31.0295C15.5365 30.9178 15.6693 30.8301 15.8156 30.7716C15.9619 30.713 16.1186 30.685 16.2761 30.6892C16.6726 30.7128 17.0565 30.8367 17.392 31.0493L17.4513 31.0829L17.5878 31.168L17.8668 31.3302C18.0647 31.445 18.2625 31.5538 18.4603 31.6507C18.8877 31.8723 19.2834 32.0622 19.6672 32.2284C21.2921 32.9348 23.0074 33.4116 24.7638 33.645L25.0051 33.6747C25.1397 33.6925 25.2801 33.7103 25.4186 33.7222L25.5433 33.7341L25.7411 33.7538L26.0735 33.7736C26.216 33.7875 26.3584 33.7934 26.4969 33.7993H26.7403H27.136H27.6504H28.0579H28.2953C28.4338 33.7993 28.5763 33.7875 28.7148 33.7756L29.0531 33.7538L29.2509 33.7341L29.3756 33.7222C29.5141 33.7103 29.6545 33.6925 29.7911 33.6747L30.0344 33.645C31.7893 33.4109 33.5032 32.9341 35.127 32.2284C35.5108 32.0622 35.9065 31.8723 36.3358 31.6507C36.5179 31.5538 36.7315 31.443 36.9294 31.3302C37.0263 31.2768 37.1272 31.2214 37.2123 31.168L37.3468 31.0849L37.4082 31.0493C37.7367 30.829 38.1191 30.7025 38.5141 30.6833C38.6752 30.6807 38.8351 30.711 38.9841 30.7722C39.133 30.8334 39.268 30.9243 39.3807 31.0394C39.6392 31.2963 39.7861 31.6447 39.7894 32.0091C39.7928 32.3736 39.6523 32.7246 39.3985 32.9862L39.2422 33.184L39.0958 33.3522C39.0028 33.4571 38.9079 33.56 38.801 33.6727C38.6032 33.8706 38.4053 34.0684 38.1877 34.2663C37.7697 34.6368 37.3297 34.9817 36.87 35.299C35.9488 35.9304 34.9625 36.461 33.928 36.8818C33.8133 36.9293 33.6847 36.9807 33.5324 37.0341L33.4018 37.0836C33.3147 37.1153 33.2277 37.1489 33.1386 37.1786C32.9052 37.2577 32.6262 37.3507 32.3472 37.4318C32.0683 37.5129 31.815 37.5802 31.54 37.6475L31.265 37.7088L31.0434 37.7464C30.9425 37.7682 30.8456 37.7919 30.7308 37.8097C30.4044 37.871 30.1492 37.9126 29.9058 37.9423L29.7693 37.9601L29.4923 37.9977L29.0788 38.0392C28.9542 38.0531 28.8216 38.063 28.6594 38.0709L28.2479 38.0946C28.05 38.1045 27.868 38.1085 27.684 38.1124C27.595 38.1124 27.5059 38.1124 27.4189 38.1124H27.3991Z" fill="url(#paint2_radial_1054_507)"/>
    <path d="M18.4487 23.1809C16.6859 23.1947 15.2396 21.4003 15.2238 19.1982C15.2079 16.9962 16.6305 15.1918 18.3933 15.172C20.1561 15.1523 21.6024 16.9527 21.6182 19.1547C21.634 21.3567 20.2135 23.169 18.4487 23.1809Z" fill="url(#paint3_linear_1054_507)"/>
    <mask id="mask0_1054_507" style="mask-type:luminance" maskUnits="userSpaceOnUse" x="15" y="15" width="7" height="9">
      <path d="M21.4578 19.1486C21.4737 21.2715 20.1263 23.0026 18.4486 23.0145C16.7708 23.0264 15.3998 21.3249 15.3839 19.198C15.3681 17.0712 16.7174 15.344 18.3932 15.3321C20.069 15.3202 21.444 17.0316 21.4578 19.1486Z" fill="white"/>
    </mask>
    <g mask="url(#mask0_1054_507)">
      <path d="M21.4757 15.3201H15.3721V23.0341H21.4757V15.3201Z" fill="#4C2207"/>
      <path d="M18.4219 23.3672C20.1985 23.3544 21.6255 21.484 21.6091 19.1895C21.5926 16.8949 20.1391 15.0451 18.3624 15.0578C16.5858 15.0705 15.1588 16.9409 15.1752 19.2355C15.1917 21.5301 16.6452 23.3799 18.4219 23.3672Z" fill="#4C2207"/>
      <path d="M15.2863 19.2354C15.2704 17.0195 16.6475 15.2151 18.3628 15.2013C20.0781 15.1874 21.4828 16.9819 21.4987 19.1918C21.5145 21.4018 20.1355 23.2121 18.4202 23.224C16.7048 23.2358 15.3021 21.4512 15.2863 19.2354Z" fill="#4E2408"/>
      <path d="M15.3956 19.2354C15.3798 17.0987 16.7094 15.3576 18.3634 15.3458C20.0174 15.3339 21.3706 17.0552 21.3865 19.1919C21.4023 21.3287 20.0728 23.0697 18.4188 23.0816C16.7648 23.0935 15.4135 21.3702 15.3956 19.2354Z" fill="#502509"/>
      <path d="M15.5011 19.2336C15.4853 17.17 16.7654 15.5002 18.358 15.4883C19.9507 15.4765 21.2545 17.1364 21.2703 19.194C21.2862 21.2516 20.0041 22.9274 18.4115 22.9393C16.8188 22.9511 15.515 21.2912 15.5011 19.2336Z" fill="#52260B"/>
      <path d="M15.6144 19.2334C15.6005 17.255 16.8311 15.6425 18.3625 15.6326C19.8938 15.6227 21.1482 17.2154 21.162 19.1939C21.1759 21.1723 19.9453 22.7848 18.4139 22.7947C16.8826 22.8046 15.6342 21.2119 15.6144 19.2334Z" fill="#54280C"/>
      <path d="M15.7277 19.2314C15.7138 17.3341 16.895 15.7849 18.3669 15.7849C19.8389 15.7849 21.0399 17.3064 21.0537 19.2037C21.0676 21.1011 19.8844 22.6502 18.4144 22.6621C16.9444 22.674 15.7415 21.1268 15.7277 19.2314Z" fill="#56290D"/>
      <path d="M15.8331 19.2315C15.8212 17.4113 16.9529 15.9294 18.3616 15.9176C19.7703 15.9057 20.9237 17.3678 20.9475 19.1959C20.9712 21.024 19.8177 22.498 18.4091 22.5118C17.0004 22.5257 15.8469 21.0517 15.8331 19.2315Z" fill="#582A0E"/>
      <path d="M15.9464 19.2315C15.9345 17.4904 17.0167 16.0659 18.3661 16.0659C19.7154 16.0659 20.8154 17.4508 20.8293 19.1998C20.8431 20.9488 19.7569 22.3654 18.4096 22.3654C17.0622 22.3654 15.9583 20.9706 15.9464 19.2315Z" fill="#592C0F"/>
      <path d="M16.0597 19.2297C16.0478 17.5678 17.0825 16.2145 18.3686 16.2046C19.6546 16.1948 20.7071 17.5362 20.719 19.1981C20.7308 20.86 19.6981 22.2133 18.4121 22.2212C17.1261 22.2291 16.0715 20.8916 16.0597 19.2297Z" fill="#5B2D10"/>
      <path d="M16.1689 19.2296C16.1689 17.6468 17.1424 16.3568 18.369 16.3489C19.5957 16.341 20.5968 17.6151 20.6067 19.1979C20.6166 20.7807 19.6333 22.0707 18.4086 22.0786C17.1839 22.0865 16.1808 20.8123 16.1689 19.2296Z" fill="#5C2E10"/>
      <path d="M16.2822 19.2275C16.2822 17.7258 17.2082 16.4992 18.3715 16.4912C19.5348 16.4833 20.4885 17.6961 20.4984 19.1978C20.5082 20.6995 19.5685 21.9182 18.4111 21.936C17.2537 21.9538 16.2941 20.7311 16.2822 19.2275Z" fill="#5E2F11"/>
      <path d="M16.3994 19.2276C16.3994 17.8031 17.2759 16.6417 18.3779 16.6358C19.4799 16.6298 20.3821 17.7754 20.392 19.2078C20.4019 20.6402 19.5175 21.7917 18.4135 21.7996C17.3095 21.8075 16.3994 20.6521 16.3994 19.2276Z" fill="#5F3012"/>
      <path d="M16.505 19.2276C16.4951 17.8822 17.332 16.7861 18.3806 16.7743C19.4292 16.7624 20.274 17.8506 20.2839 19.1959C20.2937 20.5413 19.4569 21.6374 18.4162 21.6453C17.3755 21.6532 16.5129 20.571 16.505 19.2276Z" fill="#603013"/>
      <path d="M16.6106 19.2256C16.5948 17.9614 17.3861 16.9286 18.3754 16.9207C19.3646 16.9128 20.156 17.9357 20.156 19.2019C20.156 20.4681 19.3785 21.4989 18.3971 21.5048C17.4158 21.5108 16.6185 20.4918 16.6106 19.2256Z" fill="#613113"/>
      <path d="M16.7275 19.2257C16.7275 18.0386 17.4576 17.0711 18.3756 17.0652C19.2936 17.0593 20.0474 18.0149 20.0553 19.202C20.0632 20.389 19.3253 21.3565 18.4073 21.3625C17.4893 21.3684 16.7355 20.4128 16.7275 19.2257Z" fill="#623214"/>
      <path d="M16.833 19.2236C16.833 18.1176 17.5136 17.2135 18.3723 17.2075C19.2309 17.2016 19.9313 18.0939 19.9392 19.2018C19.9471 20.3098 19.2586 21.214 18.4 21.2199C17.5413 21.2258 16.8409 20.3355 16.833 19.2236Z" fill="#633315"/>
      <path d="M16.9541 19.2237C16.9541 18.1949 17.5872 17.356 18.3826 17.3521C19.1779 17.3481 19.8308 18.1751 19.8387 19.2039C19.8466 20.2327 19.2056 21.0696 18.4083 21.0756C17.611 21.0815 16.96 20.2525 16.9541 19.2237Z" fill="#643315"/>
      <path d="M17.0596 19.2236C17.0596 18.2739 17.6531 17.5004 18.3792 17.4944C19.1053 17.4885 19.7147 18.2542 19.7226 19.2038C19.7305 20.1535 19.1291 20.9271 18.403 20.933C17.6769 20.9389 17.0655 20.1733 17.0596 19.2236Z" fill="#653416"/>
      <path d="M17.165 19.2215C17.165 18.3509 17.6992 17.6387 18.3739 17.6387C19.0485 17.6387 19.6005 18.3371 19.6065 19.2076C19.6124 20.0781 19.0703 20.7904 18.3956 20.7904C17.721 20.7904 17.171 20.092 17.165 19.2215Z" fill="#663516"/>
      <path d="M17.2744 19.2216C17.2744 18.4302 17.7611 17.7852 18.3744 17.7813C18.9878 17.7773 19.4883 18.4144 19.4943 19.2058C19.5002 19.9972 19.0076 20.6421 18.3942 20.6461C17.7809 20.6501 17.2803 20.013 17.2744 19.2216Z" fill="#663516"/>
      <path d="M17.3916 19.2197C17.3916 18.5095 17.8288 17.9278 18.3808 17.9238C18.9328 17.9199 19.3839 18.4936 19.3899 19.2059C19.3958 19.9181 18.9506 20.4998 18.4006 20.5038C17.8506 20.5077 17.3916 19.9399 17.3916 19.2197Z" fill="#673517"/>
      <path d="M17.501 19.2196C17.501 18.5865 17.8967 18.0701 18.3814 18.0681C18.8661 18.0661 19.2717 18.5746 19.2757 19.2077C19.2796 19.8408 18.88 20.3552 18.3972 20.3592C17.9145 20.3631 17.5049 19.8527 17.501 19.2196Z" fill="#673617"/>
      <path d="M17.6182 19.2195C17.6182 18.6655 17.9585 18.2144 18.3878 18.2105C18.8171 18.2065 19.1673 18.6537 19.1792 19.1997C19.1911 19.7458 18.8389 20.2048 18.4096 20.2087C17.9802 20.2127 17.6221 19.7735 17.6182 19.2195Z" fill="#683617"/>
      <path d="M17.7236 19.2176C17.7217 18.7526 18.0165 18.3569 18.3805 18.3569C18.7445 18.3569 19.0492 18.7388 19.0512 19.2136C19.0532 19.6884 18.7604 20.0742 18.3924 20.0762C18.0244 20.0782 17.7276 19.6924 17.7236 19.2176Z" fill="#683618"/>
      <path d="M17.833 19.2177C17.833 18.822 18.0764 18.4995 18.383 18.4976C18.6897 18.4956 18.941 18.8141 18.9429 19.2098C18.9449 19.6055 18.6996 19.928 18.3929 19.93C18.0863 19.932 17.837 19.6134 17.833 19.2177Z" fill="#693718"/>
      <path d="M17.9502 19.2156C17.9502 18.9011 18.148 18.6419 18.3894 18.6399C18.6308 18.6379 18.8346 18.8931 18.8366 19.2097C18.8385 19.5263 18.6387 19.7854 18.3973 19.7874C18.156 19.7894 17.9522 19.5322 17.9502 19.2156Z" fill="#693718"/>
      <path d="M18.0612 19.2157C18.0768 19.1531 18.1096 19.0962 18.156 19.0513C18.2024 19.0065 18.2604 18.9756 18.3235 18.9622C18.3866 18.9487 18.4522 18.9533 18.5128 18.9753C18.5735 18.9973 18.6267 19.0359 18.6664 19.0867C18.7062 19.1375 18.7309 19.1985 18.7376 19.2626C18.7444 19.3268 18.7331 19.3915 18.7048 19.4495C18.6766 19.5075 18.6326 19.5564 18.578 19.5906C18.5233 19.6249 18.4601 19.643 18.3956 19.6431C18.2959 19.6279 18.2058 19.5752 18.1436 19.4958C18.0815 19.4163 18.052 19.3162 18.0612 19.2157Z" fill="#693718"/>
      <path d="M18.1664 19.2156C18.1767 19.1739 18.1986 19.136 18.2295 19.1061C18.2604 19.0762 18.299 19.0556 18.3411 19.0466C18.3831 19.0376 18.4268 19.0406 18.4672 19.0552C18.5076 19.0698 18.5431 19.0955 18.5696 19.1293C18.5962 19.1631 18.6127 19.2037 18.6173 19.2464C18.6219 19.2892 18.6144 19.3323 18.5956 19.371C18.5769 19.4097 18.5477 19.4423 18.5113 19.4652C18.475 19.4881 18.4329 19.5003 18.3899 19.5005C18.3231 19.4911 18.2624 19.4562 18.2207 19.4031C18.1791 19.35 18.1596 19.2828 18.1664 19.2156Z" fill="#693718"/>
      <path d="M18.2755 19.2141C18.2713 19.1817 18.2793 19.1489 18.298 19.1221C18.3167 19.0953 18.3448 19.0765 18.3767 19.0693C18.4084 19.0777 18.4364 19.0964 18.4564 19.1224C18.4765 19.1484 18.4873 19.1803 18.4873 19.2131C18.4873 19.2459 18.4765 19.2778 18.4564 19.3038C18.4364 19.3298 18.4084 19.3485 18.3767 19.3569C18.3251 19.3588 18.2755 19.2934 18.2755 19.2141Z" fill="#693718"/>
    </g>
    <path d="M36.3159 23.0543C34.553 23.0682 33.1068 21.2737 33.091 19.0736C33.0751 16.8736 34.4957 15.0573 36.2565 15.0455C38.0173 15.0336 39.4676 16.8261 39.4834 19.0281C39.4992 21.2302 38.0787 23.0425 36.3159 23.0543Z" fill="url(#paint4_linear_1054_507)"/>
    <mask id="mask1_1054_507" style="mask-type:luminance" maskUnits="userSpaceOnUse" x="33" y="15" width="7" height="8">
      <path d="M39.3289 19.028C39.3427 21.1529 37.9954 22.8821 36.3177 22.894C34.6399 22.9058 33.2688 21.1945 33.255 19.0716C33.2411 16.9487 34.5865 15.2175 36.2642 15.2056C37.942 15.1938 39.3131 16.9051 39.3289 19.028Z" fill="white"/>
    </mask>
    <g mask="url(#mask1_1054_507)">
      <path d="M39.3389 15.1936H33.2354V22.9077H39.3389V15.1936Z" fill="#4C2207"/>
      <path d="M33.0402 19.1091C33.0243 16.8161 34.4508 14.9543 36.2275 14.9326C38.0042 14.9108 39.4583 16.7745 39.4761 19.0636C39.4939 21.3527 38.0635 23.2283 36.2868 23.2421C34.5102 23.256 33.056 21.4041 33.0402 19.1091Z" fill="#4C2207"/>
      <path d="M33.1495 19.1091C33.1337 16.8932 34.5127 15.0888 36.2281 15.077C37.9434 15.0651 39.3481 16.8576 39.362 19.0656C39.3758 21.2735 38.0008 23.0858 36.2854 23.1056C34.5701 23.1254 33.1654 21.325 33.1495 19.1091Z" fill="#4E2408"/>
      <path d="M33.2667 19.109C33.2529 16.9722 34.5804 15.2312 36.2344 15.2193C37.8884 15.2074 39.2437 16.9307 39.2575 19.0655C39.2714 21.2002 37.9438 22.9433 36.2898 22.9551C34.6358 22.967 33.2825 21.2437 33.2667 19.109Z" fill="#502509"/>
      <path d="M33.3722 19.1071C33.3583 17.0515 34.6384 15.3738 36.2311 15.3619C37.8237 15.35 39.1276 17.0099 39.1513 19.0676C39.175 21.1252 37.8871 22.8009 36.2944 22.8128C34.7017 22.8247 33.388 21.1647 33.3722 19.1071Z" fill="#52260B"/>
      <path d="M33.4816 19.1072C33.4677 17.1287 34.6983 15.5163 36.2297 15.5064C37.761 15.4965 39.0153 17.0892 39.0292 19.0676C39.043 21.0461 37.8124 22.6586 36.2811 22.6685C34.7498 22.6784 33.4954 21.0857 33.4816 19.1072Z" fill="#54280C"/>
      <path d="M33.5987 19.1051C33.5869 17.2078 34.768 15.6586 36.238 15.6487C37.708 15.6388 38.9109 17.1702 38.9248 19.0675C38.9386 20.9649 37.7575 22.514 36.2875 22.5259C34.8175 22.5378 33.6165 21.0045 33.5987 19.1051Z" fill="#56290D"/>
      <path d="M33.7081 19.1052C33.6943 17.285 34.826 15.8032 36.2366 15.7933C37.6473 15.7834 38.8086 17.2494 38.8086 19.0696C38.8086 20.8898 37.6888 22.3717 36.2801 22.3816C34.8715 22.3915 33.72 20.9294 33.7081 19.1052Z" fill="#582A0E"/>
      <path d="M33.8097 19.105C33.7959 17.364 34.8801 15.9395 36.2274 15.9395C37.5747 15.9395 38.6787 17.3244 38.6906 19.0734C38.7025 20.8223 37.6202 22.2389 36.2729 22.2389C34.9256 22.2389 33.8295 20.8441 33.8097 19.105Z" fill="#592C0F"/>
      <path d="M33.923 19.1033C33.9111 17.4413 34.9438 16.0881 36.2318 16.0782C37.5198 16.0683 38.5704 17.4097 38.5823 19.0716C38.5941 20.7335 37.5633 22.0868 36.2734 22.0967C34.9834 22.1066 33.9348 20.7652 33.923 19.1033Z" fill="#5B2D10"/>
      <path d="M34.0441 19.1031C34.0322 17.5203 35.0175 16.2304 36.2421 16.2224C37.4668 16.2145 38.4699 17.4887 38.4818 19.0714C38.4936 20.6542 37.5084 21.9442 36.2837 21.9521C35.059 21.96 34.0539 20.6859 34.0441 19.1031Z" fill="#5C2E10"/>
      <path d="M34.1456 19.1013C34.1337 17.5996 35.0696 16.3729 36.2349 16.365C37.4002 16.3571 38.3558 17.566 38.3558 19.0716C38.3558 20.5772 37.4299 21.8019 36.2665 21.8098C35.1032 21.8177 34.1555 20.6049 34.1456 19.1013Z" fill="#5E2F11"/>
      <path d="M34.2667 19.1011C34.2568 17.6766 35.1431 16.5172 36.2452 16.5093C37.3472 16.5014 38.2513 17.6489 38.2612 19.0813C38.2711 20.5137 37.3848 21.6652 36.2827 21.6731C35.1807 21.681 34.2766 20.5335 34.2667 19.1011Z" fill="#5F3012"/>
      <path d="M34.3722 19.1012C34.3623 17.7559 35.1992 16.6598 36.2418 16.6519C37.2845 16.644 38.1352 17.7282 38.1451 19.0736C38.155 20.4189 37.3181 21.5229 36.2755 21.5229C35.2328 21.5229 34.382 20.4466 34.3722 19.1012Z" fill="#603013"/>
      <path d="M34.4854 19.0992C34.4854 17.8329 35.2649 16.8021 36.2442 16.7942C37.2236 16.7863 38.0248 17.8092 38.0367 19.0754C38.0486 20.3416 37.2572 21.3724 36.2779 21.3784C35.2985 21.3843 34.4952 20.3654 34.4854 19.0992Z" fill="#613113"/>
      <path d="M34.6025 19.0992C34.6025 17.9122 35.3326 16.9447 36.2526 16.9387C37.1726 16.9328 37.9224 17.8884 37.9303 19.0755C37.9382 20.2626 37.2023 21.2301 36.2823 21.236C35.3623 21.2419 34.6025 20.2863 34.6025 19.0992Z" fill="#623214"/>
      <path d="M34.7041 19.0991C34.7041 17.9912 35.3867 17.087 36.2434 17.0811C37.1 17.0751 37.8024 17.9694 37.8103 19.0754C37.8182 20.1813 37.1297 21.0875 36.2711 21.0934C35.4124 21.0994 34.712 20.2051 34.7041 19.0991Z" fill="#633315"/>
      <path d="M34.8174 19.0972C34.8174 18.0684 35.4505 17.2296 36.2478 17.2256C37.0451 17.2216 37.6961 18.0486 37.702 19.0775C37.7079 20.1063 37.0709 20.9432 36.2735 20.9491C35.4762 20.955 34.8253 20.126 34.8174 19.0972Z" fill="#643315"/>
      <path d="M34.9268 19.0974C34.9268 18.1477 35.5203 17.3741 36.2464 17.3682C36.9725 17.3623 37.5838 18.1279 37.5898 19.0776C37.5957 20.0273 37.0061 20.8008 36.2701 20.8068C35.5341 20.8127 34.9347 20.0471 34.9268 19.0974Z" fill="#653416"/>
      <path d="M35.0361 19.0952C35.0361 18.2247 35.5723 17.5125 36.247 17.5125C36.9216 17.5125 37.4716 18.2109 37.4776 19.0814C37.4835 19.9519 36.9434 20.6642 36.2687 20.6642C35.5941 20.6642 35.044 19.9658 35.0361 19.0952Z" fill="#663516"/>
      <path d="M35.1533 19.0951C35.1533 18.3037 35.638 17.6588 36.2514 17.6548C36.8647 17.6508 37.3653 18.2879 37.3712 19.0793C37.3771 19.8707 36.8845 20.5157 36.2712 20.5196C35.6578 20.5236 35.1573 19.8865 35.1533 19.0951Z" fill="#663516"/>
      <path d="M35.2549 19.0953C35.2549 18.383 35.6921 17.8013 36.2441 17.7974C36.7961 17.7934 37.2452 18.3672 37.2512 19.0794C37.2571 19.7917 36.8139 20.3734 36.2619 20.3773C35.7099 20.3813 35.2588 19.8055 35.2549 19.0953Z" fill="#673517"/>
      <path d="M35.3721 19.0934C35.3721 18.4603 35.7678 17.9439 36.2505 17.9419C36.7333 17.9399 37.1428 18.4484 37.1468 19.0815C37.1507 19.7146 36.7511 20.229 36.2663 20.233C35.7816 20.2369 35.376 19.7265 35.3721 19.0934Z" fill="#673617"/>
      <path d="M35.4814 19.0933C35.4814 18.5393 35.8217 18.0882 36.2511 18.0843C36.6804 18.0803 37.0306 18.5274 37.0425 19.0735C37.0543 19.6195 36.7022 20.0786 36.2728 20.0825C35.8435 20.0865 35.4854 19.6472 35.4814 19.0933Z" fill="#683617"/>
      <path d="M35.5908 19.0914C35.5908 18.6166 35.8817 18.2308 36.2497 18.2268C36.6176 18.2229 36.9184 18.6087 36.9223 19.0835C36.9263 19.5583 36.6315 19.9402 36.2635 19.9402C35.8955 19.9402 35.5908 19.5663 35.5908 19.0914Z" fill="#683618"/>
      <path d="M35.708 19.0913C35.708 18.6956 35.9514 18.3731 36.258 18.3711C36.5647 18.3691 36.814 18.6877 36.8179 19.0834C36.8219 19.479 36.5845 19.8015 36.2679 19.8035C35.9514 19.8055 35.71 19.487 35.708 19.0913Z" fill="#693718"/>
      <path d="M35.8135 19.0912C35.8135 18.7746 36.0113 18.5154 36.2527 18.5134C36.4941 18.5115 36.6979 18.7667 36.7018 19.0832C36.7058 19.3998 36.504 19.659 36.2606 19.661C36.0173 19.6629 35.8155 19.4077 35.8135 19.0912Z" fill="#693718"/>
      <path d="M35.9206 19.0893C35.9361 19.0268 35.9689 18.9699 36.0152 18.9251C36.0615 18.8802 36.1194 18.8493 36.1824 18.8358C36.2454 18.8223 36.3109 18.8267 36.3715 18.8486C36.4321 18.8704 36.4853 18.9088 36.5252 18.9595C36.565 19.0101 36.5898 19.0709 36.5969 19.1349C36.6039 19.199 36.5928 19.2637 36.5648 19.3217C36.5369 19.3798 36.4932 19.4288 36.4388 19.4633C36.3843 19.4977 36.3213 19.5162 36.2569 19.5166C36.1569 19.5019 36.0663 19.4494 36.0037 19.3699C35.9411 19.2904 35.9114 19.19 35.9206 19.0893Z" fill="#693718"/>
      <path d="M36.0417 19.0891C36.0342 19.022 36.0528 18.9545 36.0937 18.9008C36.1346 18.847 36.1946 18.811 36.2613 18.8002C36.3211 18.7841 36.3844 18.7872 36.4424 18.8089C36.5004 18.8305 36.5502 18.8698 36.5847 18.9212C36.6193 18.9726 36.6369 19.0335 36.6351 19.0954C36.6333 19.1573 36.6121 19.2171 36.5747 19.2664C36.5372 19.3157 36.4852 19.3521 36.4261 19.3703C36.3669 19.3886 36.3035 19.388 36.2447 19.3684C36.186 19.3489 36.1348 19.3114 36.0984 19.2613C36.062 19.2112 36.0421 19.151 36.0417 19.0891Z" fill="#693718"/>
      <path d="M36.1464 19.0876C36.1424 19.054 36.1519 19.0202 36.1727 18.9935C36.1934 18.9667 36.2239 18.9493 36.2574 18.9448C36.3189 18.9448 36.3685 19.0083 36.3685 19.0876C36.3707 19.1041 36.3697 19.121 36.3654 19.1371C36.3611 19.1532 36.3537 19.1683 36.3436 19.1816C36.3334 19.1949 36.3208 19.206 36.3063 19.2144C36.2919 19.2227 36.276 19.2282 36.2594 19.2304C36.1979 19.2324 36.1484 19.1669 36.1464 19.0876Z" fill="#693718"/>
    </g>
  </g>
  <defs>
    <radialGradient id="paint0_radial_1054_507" cx="0" cy="0" r="1" gradientUnits="userSpaceOnUse" gradientTransform="translate(31.0601 19.6543) rotate(179.594) scale(33.1323)">
      <stop stop-color="#FFEF99"/>
      <stop offset="0.52" stop-color="#FFD71B"/>
      <stop offset="1" stop-color="#E69900"/>
    </radialGradient>
    <linearGradient id="paint1_linear_1054_507" x1="27.4031" y1="29.2924" x2="27.4031" y2="39.1135" gradientUnits="userSpaceOnUse">
      <stop stop-color="#FFD71B"/>
      <stop offset="1" stop-color="#E69900"/>
    </linearGradient>
    <radialGradient id="paint2_radial_1054_507" cx="0" cy="0" r="1" gradientUnits="userSpaceOnUse" gradientTransform="translate(27.403 34.3968) scale(9.1445 9.1445)">
      <stop stop-color="#693718"/>
      <stop offset="0.38" stop-color="#653416"/>
      <stop offset="0.73" stop-color="#5A2C0F"/>
      <stop offset="1" stop-color="#4C2207"/>
    </radialGradient>
    <linearGradient id="paint3_linear_1054_507" x1="18.3926" y1="15.1701" x2="18.4499" y2="23.1788" gradientUnits="userSpaceOnUse">
      <stop stop-color="#FFD71B"/>
      <stop offset="1" stop-color="#E69900"/>
    </linearGradient>
    <linearGradient id="paint4_linear_1054_507" x1="36.2594" y1="15.0423" x2="36.3167" y2="23.0529" gradientUnits="userSpaceOnUse">
      <stop stop-color="#FFD71B"/>
      <stop offset="1" stop-color="#E69900"/>
    </linearGradient>
    <clipPath id="clip0_1054_507">
      <rect width="53.6562" height="53.6562" fill="white" transform="translate(0.579102 0.155273)"/>
    </clipPath>
  </defs>
</svg>