<svg xmlns="http://www.w3.org/2000/svg" width="30" height="32" viewBox="0 0 30 32" fill="none">
  <path d="M29.6493 29.2439C29.6346 21.9516 29.6162 14.6616 29.6014 7.37113C29.6014 7.26804 29.5738 7.16862 29.5315 7.07842C29.5223 6.91825 29.4615 6.74335 29.3327 6.59793L23.7436 0.283517C23.6349 0.16017 23.495 0.0902106 23.3441 0.0607547C23.2539 0.0239348 23.16 0 23.0569 0H2.97875C2.58661 0 2.2718 0.316654 2.2718 0.701429C2.2718 1.4949 2.26628 2.28654 2.2626 3.07817H0.706947C0.52285 3.07817 0.338748 3.15365 0.208034 3.28436C0.0754827 3.41691 0 3.60102 0 3.78511V29.8939V29.9418C0 29.9694 1.17633e-07 29.997 0.00920498 30.0265C0.00920498 30.0504 0.0239327 30.0725 0.027615 30.0964C0.0331376 30.1112 0.0331376 30.1296 0.0423429 30.1443C0.0423429 30.1443 0.0423433 30.1535 0.0478659 30.1572C0.0515481 30.1719 0.0570711 30.1811 0.0607529 30.1958C0.0607529 30.1995 0.0662757 30.2106 0.0699579 30.2143C0.0699579 30.2143 0.0699582 30.2198 0.0754809 30.2235C0.165691 30.4407 0.283516 30.6671 0.447361 30.8844C0.839493 31.4017 1.35314 31.6852 1.79498 31.8306C2.23866 31.9779 2.62894 32 2.86091 32H2.97321H27.1563C27.8669 32 28.5076 31.6705 28.9476 31.1716C29.3858 30.6708 29.6435 30.0025 29.6435 29.2772V29.2477L29.6493 29.2439ZM24.5735 6.71556C24.5974 6.50753 24.6195 6.30502 24.6434 6.09882C24.6913 5.70301 24.7244 5.25935 24.7244 4.77882C24.7244 4.65547 24.7244 4.53397 24.7189 4.40694C24.7097 4.12895 24.6858 3.86387 24.6618 3.60428L27.335 6.65483C27.254 6.65851 27.1803 6.66772 27.0993 6.66772C26.8213 6.68245 26.6556 6.68797 26.5157 6.68797C26.35 6.68797 26.2083 6.68245 25.9818 6.68245C25.8125 6.68245 25.6486 6.68245 25.332 6.69165C25.0779 6.70085 24.8128 6.70638 24.5771 6.71558L24.5735 6.71556ZM2.25668 4.49161C2.22355 12.7614 2.19041 21.0294 2.16279 29.3011C2.15359 29.4502 2.10572 29.5827 2.03945 29.6766C1.97501 29.776 1.89953 29.8276 1.82773 29.8515L1.73384 29.8663C1.64363 29.8663 1.5166 29.8147 1.4135 29.6822V4.4919L2.25668 4.49161ZM3.12377 30.582C3.15323 30.5434 3.18637 30.5102 3.20846 30.4734C3.4257 30.1568 3.55273 29.7757 3.57666 29.3744V29.3375C3.6098 20.8599 3.64293 12.3855 3.67608 3.90598C3.67976 3.86916 3.68896 3.82682 3.68896 3.78448C3.68896 3.74582 3.68528 3.709 3.67976 3.67034C3.67976 2.91735 3.68528 2.16808 3.68896 1.41326H22.7213C22.9993 2.17727 23.2717 3.21375 23.3104 4.45273C23.3104 4.56688 23.3141 4.6755 23.3141 4.77859C23.3141 5.19834 23.2865 5.58493 23.2441 5.9384C23.1926 6.41889 23.1355 6.89386 23.084 7.37072C23.06 7.57691 23.1263 7.78126 23.2681 7.93038C23.4098 8.08134 23.6068 8.16603 23.8148 8.15682C24.0836 8.14762 24.7519 8.12368 25.3797 8.10527C25.6798 8.09607 25.8086 8.09607 25.9817 8.09607C26.1842 8.09607 26.3223 8.10159 26.5156 8.10159C26.6794 8.10159 26.8782 8.10159 27.1691 8.08134C27.5226 8.06293 27.8632 8.03899 28.1964 8.00586C28.2111 15.0955 28.2258 22.1834 28.2442 29.2674V29.2803C28.2442 29.6632 28.1025 30.0019 27.9 30.2284C27.6938 30.4585 27.4434 30.5819 27.1691 30.5819L3.12377 30.582Z" fill="#4E5356"/>
  <path d="M7.6863 14.6098C7.6863 14.6098 7.78572 14.6098 7.90906 14.6043C8.28463 14.5951 9.0118 14.5914 9.87342 14.5914C11.1455 14.5914 12.7196 14.6006 13.9788 14.6043C15.2362 14.6153 16.1752 14.619 16.1752 14.619C16.5655 14.619 16.8858 14.3079 16.8858 13.9176C16.8858 13.5254 16.5765 13.2051 16.1843 13.2051C16.1843 13.2051 12.4232 13.1775 9.86994 13.1775C9.23293 13.1775 8.66776 13.1775 8.25721 13.1812C8.04918 13.1812 7.88533 13.1867 7.7583 13.1904C7.69571 13.1904 7.64415 13.1904 7.59261 13.2014L7.51345 13.2106L7.44717 13.2198C7.41403 13.229 7.3809 13.229 7.26859 13.2806C6.9188 13.45 6.77336 13.8752 6.94273 14.2287C7.07897 14.5104 7.38089 14.6576 7.6773 14.6153L7.6863 14.6098Z" fill="#9D4F2A"/>
  <path d="M16.1989 16.1562C16.1989 16.1562 12.4377 16.1267 9.88262 16.1267C9.24745 16.1267 8.68227 16.1267 8.27173 16.1322C8.06369 16.1322 7.89985 16.1359 7.77098 16.1414C7.71022 16.1414 7.65868 16.1414 7.60713 16.1506L7.52612 16.1598L7.45985 16.1691C7.42855 16.1783 7.39541 16.1783 7.28127 16.2316C6.93332 16.401 6.78603 16.8244 6.95725 17.1779C7.09349 17.4614 7.39541 17.6069 7.69181 17.5645C7.69181 17.5645 7.79123 17.5645 7.91273 17.5608C8.29014 17.5498 9.01547 17.5461 9.87893 17.5461C11.1511 17.5461 12.7251 17.5553 13.9843 17.5608C15.2418 17.57 16.1788 17.5737 16.1788 17.5737C16.5709 17.5737 16.8912 17.2626 16.8912 16.8723C16.8912 16.4802 16.5801 16.1598 16.1898 16.1598L16.1989 16.1562Z" fill="#9D4F2A"/>
  <path d="M7.67681 20.9722H7.81305C8.38006 20.9575 10.175 20.9538 12.4045 20.9538C15.0813 20.9538 18.3951 20.963 21.0424 20.9667C22.3679 20.9667 23.5222 20.9778 24.347 20.9778H25.667C26.0573 20.9778 26.3739 20.6611 26.3776 20.2745C26.3831 19.8879 26.0628 19.5676 25.6762 19.5639C25.6762 19.5639 17.7674 19.5344 12.4083 19.5344C11.0699 19.5344 9.89165 19.5344 9.03559 19.5399C8.60663 19.5399 8.25687 19.5436 8.00647 19.5492C7.87944 19.5492 7.78187 19.5492 7.70638 19.5528H7.60145L7.54989 19.5639C7.52596 19.5639 7.51307 19.5639 7.44128 19.5823C7.06019 19.6707 6.82454 20.0536 6.91474 20.431C6.99943 20.7845 7.32897 21.0054 7.67692 20.9667L7.67681 20.9722Z" fill="#9D4F2A"/>
  <path d="M25.6859 22.5135C25.6859 22.5135 17.7771 22.4858 12.4199 22.4858C11.0815 22.4858 9.9033 22.4858 9.04535 22.4895C8.6164 22.4895 8.26663 22.495 8.01807 22.4987C7.8892 22.4987 7.79163 22.4987 7.71615 22.5042H7.61121L7.55966 22.5135C7.53573 22.5135 7.52284 22.5135 7.45104 22.5319C7.06996 22.6221 6.8343 23.0032 6.92451 23.3806C7.0092 23.734 7.33874 23.955 7.68669 23.9181H7.82476C8.38994 23.9034 10.1849 23.8997 12.4144 23.8997C15.0912 23.8997 18.405 23.9089 21.0542 23.9126C22.3778 23.9126 23.5321 23.9237 24.3569 23.9237H25.6769C26.0672 23.9237 26.3839 23.607 26.3875 23.2204C26.3931 22.8338 26.0727 22.5134 25.6861 22.5098L25.6859 22.5135Z" fill="#9D4F2A"/>
  <path d="M7.69607 11.613C7.69607 11.613 7.79549 11.613 7.91884 11.6074C8.29624 11.5982 9.02157 11.5945 9.88319 11.5945C11.1572 11.5945 12.7312 11.6038 13.9886 11.6074C15.2479 11.6166 16.1849 11.6222 16.1849 11.6222C16.5771 11.6222 16.8974 11.311 16.8974 10.9207C16.8974 10.5286 16.5863 10.2083 16.1941 10.2083C16.1941 10.2083 12.4329 10.1807 9.87971 10.1807C9.2427 10.1807 8.67753 10.1807 8.26698 10.1843C8.06079 10.1843 7.8951 10.1899 7.76807 10.1936C7.70731 10.1936 7.65393 10.1936 7.60238 10.2028L7.52322 10.2138L7.45694 10.223C7.4238 10.2322 7.39066 10.2322 7.27836 10.2838C6.92857 10.4531 6.78312 10.8766 6.9525 11.23C7.08873 11.5135 7.39066 11.659 7.68706 11.6166L7.69607 11.613Z" fill="#9D4F2A"/>
  <path d="M18.828 18.1259H25.4262C25.6158 18.1259 25.7944 18.0504 25.9269 17.9179C26.0576 17.7853 26.1331 17.6031 26.1331 17.4189V10.3495C26.1331 10.1599 26.0576 9.98132 25.9269 9.84877C25.7944 9.71806 25.6103 9.64258 25.4262 9.64258H18.828C18.6403 9.64258 18.4617 9.71806 18.3291 9.84877C18.1966 9.98132 18.1211 10.1654 18.1211 10.3495V17.4189C18.1211 17.6067 18.1966 17.7853 18.3291 17.9179C18.4617 18.0504 18.6439 18.1259 18.828 18.1259ZM19.535 11.0565H24.7192V16.712H19.535V11.0565Z" fill="#9D4F2A"/>
</svg>