<svg xmlns="http://www.w3.org/2000/svg" width="54" height="54" viewBox="0 0 54 54" fill="none">
  <g clip-path="url(#clip0_1054_629)">
    <g style="mix-blend-mode:multiply">
      <path opacity="0.09" d="M27.1297 0.440034C21.9129 0.438717 16.813 1.98481 12.4751 4.88268C8.13729 7.78056 4.75648 11.9 2.76045 16.7198C0.764414 21.5396 0.242861 26.8431 1.26178 31.9594C2.28069 37.0757 4.79429 41.7748 8.48453 45.4622C10.9337 47.9107 13.8411 49.8528 17.0409 51.1777C20.2406 52.5026 23.67 53.1842 27.1332 53.1838C30.5963 53.1833 34.0255 52.5007 37.2249 51.175C40.4243 49.8493 43.3312 47.9064 45.7797 45.4572C48.2283 43.0081 50.1704 40.1006 51.4953 36.9009C52.8201 33.7011 53.5018 30.2718 53.5014 26.8086C53.5009 23.3454 52.8183 19.9162 51.4926 16.7168C50.1669 13.5175 48.224 10.6105 45.7748 8.16201C43.3316 5.70635 40.4258 3.75947 37.2255 2.43402C34.0251 1.10857 30.5936 0.430835 27.1297 0.440034Z" fill="#FCFCFC"/>
      <path opacity="0.18" d="M27.1294 0.722979C22.005 0.722084 16.9954 2.24097 12.7344 5.08751C8.4733 7.93405 5.15215 11.9804 3.191 16.7146C1.22986 21.4489 0.71682 26.6585 1.71679 31.6844C2.71676 36.7103 5.1848 41.3267 8.80875 44.9498C13.6734 49.7791 20.2535 52.4837 27.1082 52.4714C33.9628 52.4591 40.5333 49.7308 45.3805 44.8841C50.2277 40.0374 52.9567 33.4673 52.9697 26.6126C52.9828 19.758 50.2788 13.1775 45.4501 8.3124C43.0494 5.89945 40.1941 3.98632 37.0495 2.68364C33.9049 1.38095 30.5332 0.714559 27.1294 0.722979Z" fill="#FAFAFA"/>
      <path opacity="0.27" d="M27.1276 1.00788C22.0945 1.00773 17.1744 2.5001 12.9895 5.29625C8.80462 8.09241 5.54288 12.0668 3.61679 16.7167C1.69069 21.3667 1.18675 26.4833 2.1687 31.4197C3.15065 36.3561 5.57437 40.8904 9.13337 44.4492C13.9186 49.1569 20.3702 51.7832 27.0829 51.7559C33.7956 51.7287 40.2256 49.0502 44.9725 44.3038C49.7194 39.5575 52.3986 33.1277 52.4265 26.415C52.4545 19.7023 49.829 13.2505 45.1218 8.46475C42.764 6.09439 39.9598 4.21491 36.8712 2.93498C33.7826 1.65505 30.4709 1.00006 27.1276 1.00788Z" fill="#F7F7F7"/>
      <path opacity="0.36" d="M27.1218 1.29059C22.1801 1.29118 17.3495 2.75703 13.2408 5.5028C9.13204 8.24857 5.92971 12.151 4.03867 16.7166C2.14762 21.2822 1.65278 26.306 2.61671 31.1528C3.58063 35.9996 5.96003 40.4518 9.45408 43.9465C14.1523 48.5737 20.4892 51.1563 27.0834 51.1312C33.6777 51.1061 39.9947 48.4754 44.6576 43.8125C49.3205 39.1496 51.9512 32.8326 51.9763 26.2383C52.0014 19.6441 49.4188 13.3072 44.7916 8.60896C42.4754 6.28291 39.7214 4.43863 36.6887 3.18253C33.6559 1.92644 30.4044 1.28342 27.1218 1.29059Z" fill="#F4F4F4"/>
      <path opacity="0.45" d="M27.1299 1.5757C22.2816 1.58127 17.5436 3.02326 13.5142 5.71962C9.48485 8.41597 6.34473 12.2458 4.49036 16.7255C2.636 21.2051 2.15054 26.1338 3.09528 30.8892C4.04002 35.6446 6.37259 40.0135 9.79849 43.4441C12.6507 46.3003 16.1635 48.4086 20.0256 49.5821C23.8876 50.7556 27.9795 50.9581 31.9386 50.1715C35.8976 49.385 39.6014 47.6338 42.7216 45.0732C45.8418 42.5125 48.282 39.2215 49.8258 35.492C51.3696 31.7625 51.9694 27.7097 51.5719 23.693C51.1744 19.6762 49.792 15.8195 47.5472 12.4649C45.3024 9.1103 42.2646 6.3614 38.703 4.46192C35.1415 2.56244 31.1663 1.57107 27.1299 1.5757Z" fill="#F2F2F2"/>
      <path opacity="0.55" d="M27.1305 1.85868C21.5621 1.85781 16.1656 3.78781 11.8606 7.31981C7.55568 10.8518 4.60863 15.7673 3.52164 21.2286C2.43465 26.6899 3.275 32.3592 5.89948 37.2704C8.52396 42.1816 12.7702 46.0308 17.9146 48.1622C23.059 50.2935 28.7833 50.5751 34.1121 48.959C39.4409 47.3428 44.0444 43.9289 47.1382 39.299C50.232 34.6692 51.6247 29.1097 51.079 23.5681C50.5333 18.0264 48.0829 12.8455 44.1454 8.90798C41.9148 6.66835 39.2629 4.8924 36.3426 3.68253C33.4224 2.47266 30.2915 1.8528 27.1305 1.85868Z" fill="#EFEFEF"/>
      <path opacity="0.64" d="M27.1188 2.14362C21.6579 2.145 16.3664 4.03971 12.1459 7.50494C7.92531 10.9702 5.03675 15.7916 3.97233 21.1477C2.90791 26.5038 3.73346 32.0633 6.30835 36.879C8.88324 41.6947 13.0482 45.4687 18.0935 47.558C23.1389 49.6473 28.7526 49.9226 33.9783 48.3371C39.2039 46.7516 43.7182 43.4033 46.752 38.8627C49.7858 34.3221 51.1514 28.8701 50.6163 23.4355C50.0811 18.0009 47.6783 12.92 43.8171 9.05838C41.6282 6.86033 39.0256 5.1176 36.1595 3.93078C33.2935 2.74396 30.2208 2.13655 27.1188 2.14362Z" fill="#EDEDED"/>
      <path opacity="0.73" d="M27.1253 2.42826C21.7698 2.42812 16.5798 4.285 12.4399 7.6825C8.29994 11.08 5.46614 15.8079 4.42135 21.0606C3.37657 26.3132 4.18544 31.7657 6.71015 36.4888C9.23485 41.2119 13.3192 44.9135 18.2672 46.9628C23.2151 49.0121 28.7206 49.2823 33.8455 47.7274C38.9704 46.1725 43.3975 42.8887 46.3726 38.4354C49.3477 33.9822 50.6866 28.6352 50.1612 23.3055C49.6358 17.9757 47.2786 12.9931 43.4913 9.20651C41.3451 7.05319 38.7942 5.34571 35.9854 4.1824C33.1767 3.01909 30.1655 2.42293 27.1253 2.42826Z" fill="#EAEAEA"/>
      <path opacity="0.82" d="M27.1187 2.71121C21.8709 2.71169 16.7856 4.53172 12.7293 7.86121C8.67293 11.1907 5.89652 15.8236 4.87308 20.9707C3.84964 26.1177 4.6425 31.4604 7.11656 36.0883C9.59061 40.7163 13.5928 44.3433 18.4412 46.3513C23.2896 48.3594 28.6843 48.6242 33.7061 47.1006C38.7278 45.5771 43.066 42.3595 45.9814 37.996C48.8968 33.6326 50.2091 28.3933 49.6947 23.1708C49.1802 17.9482 46.8709 13.0657 43.1601 9.35493C41.0564 7.2445 38.5561 5.57102 35.803 4.43081C33.0499 3.2906 30.0985 2.70619 27.1187 2.71121Z" fill="#E7E7E7"/>
      <path opacity="0.91" d="M27.1244 2.99611C21.9825 2.9948 16.9992 4.77651 13.0237 8.03764C9.0482 11.2988 6.32651 15.8375 5.32242 20.8805C4.31832 25.9234 5.09395 31.1585 7.51714 35.6936C9.94032 40.2288 13.8611 43.7834 18.6114 45.7517C23.3617 47.72 28.6475 47.9803 33.5682 46.4881C38.4888 44.9959 42.7398 41.8436 45.5968 37.5685C48.4537 33.2933 49.7398 28.1597 49.236 23.0425C48.7321 17.9253 46.4694 13.1412 42.8335 9.50529C40.773 7.43887 38.3244 5.80004 35.6285 4.68298C32.9327 3.56591 30.0426 2.99264 27.1244 2.99611Z" fill="#E5E5E5"/>
      <path d="M27.1226 46.8077C39.1421 46.8077 48.8858 37.0639 48.8858 25.0445C48.8858 13.025 39.1421 3.28125 27.1226 3.28125C15.1031 3.28125 5.35938 13.025 5.35938 25.0445C5.35938 37.0639 15.1031 46.8077 27.1226 46.8077Z" fill="#E2E2E2"/>
    </g>
    <path d="M43.3815 41.3702C52.3581 32.3936 52.3581 17.8398 43.3815 8.86322C34.405 -0.113336 19.8511 -0.113337 10.8746 8.86321C1.89803 17.8398 1.89803 32.3936 10.8746 41.3702C19.8511 50.3467 34.405 50.3467 43.3815 41.3702Z" fill="url(#paint0_radial_1054_629)"/>
    <path d="M27.1353 31.2173H27.3628C27.5231 31.2173 27.6873 31.2173 27.8495 31.2312L28.2076 31.2509C28.3481 31.2509 28.4648 31.2668 28.5776 31.2806L28.9278 31.3162C29.0109 31.3162 29.09 31.336 29.1711 31.3479L29.2879 31.3637C29.4995 31.3894 29.7211 31.4251 30.008 31.4785C30.097 31.4943 30.1881 31.5141 30.2771 31.5339L30.4749 31.5774C30.5541 31.5952 30.6332 31.611 30.7123 31.6308C30.9517 31.6902 31.1872 31.7495 31.4167 31.8287C31.6462 31.9078 31.9014 31.977 32.1032 32.0463C32.1824 32.072 32.2595 32.1017 32.3347 32.1294L32.4455 32.1709C32.5741 32.2184 32.6849 32.2619 32.7897 32.3055C33.6867 32.6687 34.5417 33.1277 35.34 33.6746C35.7406 33.9501 36.1238 34.2501 36.4875 34.5728C36.6854 34.7449 36.8555 34.9111 37.0217 35.0832C37.1147 35.1822 37.1978 35.2811 37.2769 35.3622L37.4035 35.5066L37.5381 35.6709C37.7808 35.9247 37.9146 36.2635 37.9109 36.6147C37.9072 36.9659 37.7663 37.3017 37.5183 37.5504C37.409 37.6605 37.2784 37.7471 37.1345 37.8049C36.9906 37.8627 36.8364 37.8906 36.6814 37.8867C36.31 37.8713 35.9491 37.7587 35.6348 37.5603L35.5893 37.5346L35.4706 37.4614C35.3954 37.4159 35.3143 37.3704 35.2332 37.3249C35.065 37.2279 34.8889 37.127 34.7346 37.0518C34.3705 36.854 34.0342 36.7016 33.7078 36.5612C33.0151 36.2581 32.3017 36.0049 31.573 35.8034C30.8545 35.5998 30.1226 35.4464 29.3828 35.3444L29.185 35.3187C29.0702 35.3048 28.9515 35.289 28.8368 35.2791L28.724 35.2692L28.5538 35.2534L28.2709 35.2356C28.1482 35.2237 28.0276 35.2198 27.9108 35.2138H27.7011C27.5923 35.2138 27.4756 35.2138 27.3608 35.2138H27.1353H26.9216C26.8068 35.2138 26.6921 35.2138 26.5773 35.2138H26.3795C26.2608 35.2138 26.1401 35.2237 26.0273 35.2336L25.7325 35.2534L25.5644 35.2692L25.4555 35.2791C25.3388 35.289 25.2201 35.3048 25.1054 35.3187L24.8937 35.3444C23.4009 35.5432 21.9432 35.9494 20.5628 36.5513C20.2363 36.6917 19.9 36.852 19.532 37.0419C19.3757 37.125 19.2016 37.218 19.0394 37.313C18.9543 37.3605 18.8751 37.406 18.798 37.4535L18.6832 37.5227L18.6338 37.5524C18.3278 37.7574 17.971 37.8739 17.603 37.8887C17.445 37.8915 17.288 37.8621 17.1418 37.8022C16.9955 37.7423 16.863 37.6533 16.7522 37.5405C16.5045 37.2918 16.3635 36.9562 16.3595 36.6052C16.3554 36.2541 16.4885 35.9153 16.7305 35.661L16.8611 35.5027L16.9897 35.3543C17.0708 35.2633 17.1539 35.1723 17.2469 35.0753C17.415 34.9012 17.5891 34.735 17.7811 34.5629C18.1455 34.2412 18.5287 33.9412 18.9286 33.6647C19.724 33.1183 20.5757 32.6587 21.4689 32.2936C21.5718 32.2521 21.6826 32.2085 21.8112 32.161L21.922 32.1195C21.9972 32.0898 22.0743 32.0621 22.1515 32.0364C22.3493 31.9672 22.5947 31.886 22.844 31.8168C23.0932 31.7475 23.303 31.6882 23.5424 31.6288C23.6215 31.609 23.7026 31.5932 23.7818 31.5754L23.9796 31.5319C24.0706 31.5121 24.1616 31.4923 24.2566 31.4765C24.5375 31.4231 24.7591 31.3875 24.9708 31.3617L25.0856 31.3459C25.1667 31.334 25.2478 31.3222 25.3289 31.3143L25.6831 31.2767C25.7919 31.2648 25.9106 31.2569 26.053 31.249L26.4052 31.2292C26.5714 31.2292 26.7356 31.2173 26.8939 31.2153H27.1214H27.1372L27.1353 31.2173Z" fill="url(#paint1_linear_1054_629)"/>
    <path d="M27.1306 31.3596H27.3601C27.5184 31.3596 27.6806 31.3596 27.8428 31.3735L28.197 31.3933C28.3355 31.3933 28.4502 31.4091 28.559 31.421L28.9112 31.4566L29.1506 31.4882L29.2673 31.504C29.477 31.5298 29.6947 31.5654 29.9776 31.6188C30.0666 31.6346 30.1576 31.6544 30.2447 31.6722L30.4425 31.7157C30.5197 31.7336 30.5988 31.7494 30.676 31.7692C30.9134 31.8265 31.1449 31.8859 31.3724 31.9551C31.5999 32.0244 31.8552 32.1035 32.055 32.1728L32.2805 32.2539L32.3933 32.2954C32.5199 32.3429 32.6287 32.3864 32.7297 32.428C33.6201 32.7884 34.4686 33.2448 35.2601 33.7892C35.6551 34.0613 36.033 34.3573 36.3918 34.6755C36.5897 34.8437 36.7539 35.0079 36.9181 35.1781L37.1713 35.4511L37.296 35.5955L37.4305 35.7617C37.6492 35.9859 37.7704 36.2873 37.7678 36.6005C37.7652 36.9136 37.639 37.213 37.4167 37.4335C37.3215 37.5297 37.2076 37.6053 37.082 37.6556C36.9564 37.706 36.8218 37.7301 36.6866 37.7263C36.3445 37.7095 36.0123 37.606 35.7211 37.4256L35.6716 37.3959L35.5529 37.3227L35.3135 37.1842C35.1434 37.0853 34.9653 36.9864 34.809 36.9073C34.441 36.7094 34.1027 36.5551 33.7723 36.4126C33.0731 36.1073 32.3531 35.8521 31.6178 35.6489C30.8885 35.4462 30.1461 35.2941 29.3959 35.1939L29.1981 35.1702C29.0813 35.1543 28.9626 35.1405 28.8439 35.1306L28.7351 35.1187L28.561 35.1029L28.2761 35.0851C28.1534 35.0732 28.0308 35.0693 27.9121 35.0633L27.7043 35.0534C27.5916 35.0534 27.4748 35.0534 27.3581 35.0534H27.1345H26.9169C26.8002 35.0534 26.6834 35.0534 26.5667 35.0534H26.3689C26.2502 35.0534 26.1275 35.0633 26.0088 35.0752L25.7179 35.093L25.5438 35.1088L25.437 35.1207C25.3183 35.1306 25.1976 35.1444 25.0809 35.1603L24.8712 35.186C23.3571 35.3884 21.8788 35.8012 20.4789 36.4126C20.1505 36.5551 19.8102 36.7173 19.4402 36.9092C19.2859 36.9923 19.1079 37.0853 18.9417 37.1823L18.6983 37.3227L18.5836 37.394L18.5302 37.4256C18.2478 37.6139 17.9195 37.722 17.5805 37.7382C17.4422 37.741 17.3049 37.7154 17.1769 37.663C17.049 37.6106 16.9331 37.5325 16.8366 37.4335C16.614 37.2133 16.4874 36.914 16.4844 36.6009C16.4815 36.2878 16.6023 35.9861 16.8207 35.7617L16.9533 35.5995L17.0799 35.4531C17.161 35.364 17.2422 35.275 17.3332 35.18C17.4974 35.0099 17.6695 34.8437 17.8594 34.6755C18.2193 34.3577 18.5978 34.0617 18.9931 33.7892C19.784 33.2477 20.6311 32.7933 21.5196 32.4339C21.6185 32.3924 21.7293 32.3489 21.856 32.3014L21.9668 32.2598L22.1923 32.1787C22.3902 32.1095 22.6335 32.0303 22.8788 31.9611C23.1242 31.8918 23.3339 31.8325 23.5713 31.7751L23.8067 31.7217L24.0046 31.6782C24.0936 31.6603 24.1826 31.6406 24.2737 31.6247C24.5546 31.5713 24.7742 31.5357 24.9839 31.51L25.1007 31.4942L25.3381 31.4625L25.6922 31.4269C25.7991 31.415 25.9138 31.4051 26.0543 31.3992L26.4065 31.3794C26.5687 31.3794 26.7329 31.3675 26.8912 31.3656H27.1187L27.1306 31.3596Z" fill="url(#paint2_radial_1054_629)"/>
    <path d="M18.1762 26.4076C16.4114 26.4195 14.9652 24.627 14.9493 22.4249C14.9335 20.2229 16.356 18.4106 18.1149 18.3987C19.8738 18.3869 21.324 20.1794 21.3398 22.3814C21.3556 24.5834 19.9391 26.3957 18.1762 26.4076Z" fill="url(#paint3_linear_1054_629)"/>
    <mask id="mask0_1054_629" style="mask-type:luminance" maskUnits="userSpaceOnUse" x="15" y="18" width="7" height="9">
      <path d="M21.1756 22.3814C21.1914 24.5043 19.8441 26.2355 18.1664 26.2473C16.4886 26.2592 15.1175 24.5478 15.1017 22.4249C15.0859 20.302 16.4352 18.5709 18.111 18.555C19.7867 18.5392 21.1618 20.2585 21.1756 22.3814Z" fill="white"/>
    </mask>
    <g mask="url(#mask0_1054_629)">
      <path d="M21.1973 18.5474H15.0938V26.2614H21.1973V18.5474Z" fill="#4C2207"/>
      <path d="M18.1436 26.5942C19.9202 26.5815 21.3472 24.7111 21.3307 22.4165C21.3143 20.1219 19.8608 18.2721 18.0841 18.2848C16.3074 18.2976 14.8805 20.168 14.8969 22.4625C14.9133 24.7571 16.3669 26.6069 18.1436 26.5942Z" fill="#4C2207"/>
      <path d="M18.1401 26.4495C19.8555 26.4372 21.2334 24.6318 21.2175 22.417C21.2017 20.2022 19.7982 18.4167 18.0827 18.4289C16.3672 18.4412 14.9894 20.2466 15.0053 22.4614C15.0211 24.6762 16.4246 26.4617 18.1401 26.4495Z" fill="#4E2408"/>
      <path d="M15.1173 22.4625C15.1015 20.3257 16.431 18.5847 18.085 18.5728C19.739 18.5609 21.0923 20.2822 21.1081 22.419C21.124 24.5557 19.7944 26.2968 18.1404 26.3086C16.4864 26.3205 15.1351 24.5973 15.1173 22.4625Z" fill="#502509"/>
      <path d="M18.1371 26.1647C19.7302 26.1533 21.0097 24.4762 20.995 22.4187C20.9802 20.3612 19.6768 18.7026 18.0838 18.714C16.4907 18.7254 15.2112 20.4025 15.2259 22.46C15.2406 24.5175 16.544 26.1761 18.1371 26.1647Z" fill="#52260B"/>
      <path d="M15.3361 22.4605C15.3222 20.482 16.5528 18.8696 18.0842 18.8597C19.6155 18.8498 20.8698 20.4424 20.8837 22.4209C20.8975 24.3994 19.6669 26.0118 18.1356 26.0217C16.6043 26.0316 15.3558 24.439 15.3361 22.4605Z" fill="#54280C"/>
      <path d="M18.138 25.878C19.6087 25.8674 20.7899 24.3194 20.7763 22.4204C20.7627 20.5214 19.5594 18.9904 18.0887 19.001C16.618 19.0115 15.4368 20.5595 15.4504 22.4585C15.464 24.3575 16.6672 25.8885 18.138 25.878Z" fill="#56290D"/>
      <path d="M15.5548 22.4587C15.5429 20.6385 16.6746 19.1487 18.0833 19.1487C19.4919 19.1487 20.6454 20.6068 20.6553 22.427C20.6652 24.2472 19.5355 25.7291 18.1268 25.739C16.7181 25.7489 15.5686 24.2789 15.5548 22.4587Z" fill="#582A0E"/>
      <path d="M18.1349 25.591C19.4833 25.5813 20.5662 24.1625 20.5537 22.4219C20.5413 20.6813 19.4381 19.2781 18.0898 19.2877C16.7415 19.2974 15.6585 20.7162 15.671 22.4568C15.6834 24.1974 16.7866 25.6006 18.1349 25.591Z" fill="#592C0F"/>
      <path d="M15.7814 22.4568C15.7695 20.7949 16.8042 19.4416 18.0902 19.4317C19.3762 19.4218 20.4308 20.7632 20.4407 22.4231C20.4505 24.0831 19.4198 25.4403 18.1338 25.4482C16.8477 25.4561 15.7932 24.1187 15.7814 22.4568Z" fill="#5B2D10"/>
      <path d="M15.8867 22.4566C15.8867 20.8738 16.8601 19.5839 18.0868 19.576C19.3134 19.5681 20.3145 20.8422 20.3244 22.425C20.3343 24.0077 19.353 25.2977 18.1263 25.3056C16.8997 25.3135 15.8986 24.0394 15.8867 22.4566Z" fill="#5C2E10"/>
      <path d="M16.0039 22.4545C16.0039 20.9529 16.9298 19.7262 18.0932 19.7183C19.2565 19.7104 20.2101 20.9212 20.22 22.4249C20.2299 23.9285 19.2902 25.1532 18.1327 25.1631C16.9753 25.173 16.0158 23.9582 16.0039 22.4545Z" fill="#5E2F11"/>
      <path d="M16.1211 22.4547C16.1211 21.0302 16.9976 19.8688 18.0996 19.8609C19.2016 19.853 20.1038 21.0025 20.1137 22.4329C20.1235 23.8633 19.2392 25.0168 18.1352 25.0247C17.0312 25.0326 16.1211 23.8792 16.1211 22.4547Z" fill="#5F3012"/>
      <path d="M16.2266 22.4548C16.2266 21.1094 17.0536 20.0133 18.0942 20.0054C19.1349 19.9975 19.9876 21.0817 19.9975 22.4271C20.0074 23.7724 19.1705 24.8685 18.1299 24.8863C17.0892 24.9041 16.2345 23.7981 16.2266 22.4548Z" fill="#603013"/>
      <path d="M16.332 22.4527C16.332 21.1864 17.1096 20.1557 18.0909 20.1478C19.0722 20.1398 19.8715 21.1627 19.8715 22.427C19.8715 23.6912 19.094 24.7259 18.1127 24.7319C17.1313 24.7378 16.3399 23.7189 16.332 22.4527Z" fill="#613113"/>
      <path d="M16.4492 22.4528C16.4492 21.2657 17.1793 20.2982 18.0973 20.2923C19.0153 20.2863 19.7691 21.2419 19.777 22.429C19.7849 23.6161 19.047 24.5836 18.1289 24.5895C17.2109 24.5954 16.4571 23.6398 16.4492 22.4528Z" fill="#623214"/>
      <path d="M16.5547 22.4507C16.5547 21.3447 17.2353 20.4405 18.0939 20.4346C18.9526 20.4287 19.653 21.321 19.6609 22.4289C19.6688 23.5368 18.9803 24.439 18.1216 24.4469C17.263 24.4549 16.5626 23.5586 16.5547 22.4507Z" fill="#633315"/>
      <path d="M16.668 22.4508C16.668 21.4219 17.3011 20.5831 18.0964 20.5791C18.8918 20.5752 19.5447 21.4022 19.5526 22.431C19.5605 23.4598 18.9195 24.2967 18.1241 24.3026C17.3288 24.3085 16.6759 23.4796 16.668 22.4508Z" fill="#643315"/>
      <path d="M16.7812 22.4507C16.7812 21.501 17.3748 20.7274 18.1009 20.7215C18.827 20.7155 19.4364 21.4812 19.4443 22.4309C19.4522 23.3805 18.8507 24.1541 18.1246 24.1601C17.3985 24.166 16.7872 23.3983 16.7812 22.4507Z" fill="#653416"/>
      <path d="M16.8867 22.4487C16.8867 21.5782 17.4229 20.866 18.0956 20.866C18.7682 20.866 19.3222 21.5644 19.3282 22.4329C19.3341 23.3015 18.792 24.0157 18.1173 24.0157C17.4427 24.0157 16.8927 23.3193 16.8867 22.4487Z" fill="#663516"/>
      <path d="M17 22.4486C17 21.6573 17.4867 21.0123 18.1 21.0083C18.7134 21.0044 19.2139 21.6414 19.2198 22.4328C19.2258 23.2242 18.7331 23.8692 18.1198 23.8731C17.5065 23.8771 17.0059 23.24 17 22.4486Z" fill="#663516"/>
      <path d="M17.1133 22.4468C17.1133 21.7345 17.5525 21.1549 18.1025 21.1509C18.6525 21.1469 19.1056 21.7207 19.1115 22.4329C19.1175 23.1452 18.6723 23.7269 18.1223 23.7308C17.5723 23.7348 17.1133 23.159 17.1133 22.4468Z" fill="#673517"/>
      <path d="M17.2188 22.4469C17.2188 21.8138 17.6144 21.2974 18.0992 21.2954C18.5839 21.2934 18.9895 21.8019 18.9934 22.435C18.9974 23.0681 18.5977 23.5825 18.115 23.5865C17.6323 23.5904 17.2247 23.08 17.2188 22.4469Z" fill="#673617"/>
      <path d="M17.3398 22.4468C17.3398 21.8928 17.6801 21.4417 18.1095 21.4378C18.5388 21.4338 18.889 21.8809 18.9009 22.427C18.9127 22.9731 18.5606 23.4321 18.1312 23.436C17.7019 23.44 17.3438 23.0008 17.3398 22.4468Z" fill="#683617"/>
      <path d="M17.4453 22.4447C17.4453 21.9699 17.7381 21.5841 18.1061 21.5801C18.4741 21.5762 18.7748 21.962 18.7768 22.4348C18.7788 22.9077 18.486 23.3034 18.118 23.3034C17.75 23.3034 17.4493 22.9195 17.4453 22.4447Z" fill="#683618"/>
      <path d="M17.5547 22.4448C17.5547 22.0491 17.798 21.7266 18.1047 21.7246C18.4114 21.7226 18.6626 22.0412 18.6646 22.4369C18.6666 22.8326 18.4213 23.1551 18.1146 23.157C17.8079 23.159 17.5586 22.8405 17.5547 22.4448Z" fill="#693718"/>
      <path d="M17.6719 22.4427C17.6719 22.1261 17.8697 21.8689 18.1111 21.867C18.3525 21.865 18.5563 22.1202 18.5582 22.4368C18.5602 22.7533 18.3604 23.0125 18.119 23.0125C17.8776 23.0125 17.6739 22.7592 17.6719 22.4427Z" fill="#693718"/>
      <path d="M17.779 22.4428C17.7946 22.3802 17.8274 22.3232 17.8738 22.2784C17.9202 22.2336 17.9782 22.2027 18.0413 22.1892C18.1044 22.1758 18.17 22.1803 18.2306 22.2023C18.2912 22.2243 18.3445 22.263 18.3842 22.3138C18.424 22.3646 18.4486 22.4255 18.4554 22.4897C18.4622 22.5538 18.4508 22.6186 18.4226 22.6766C18.3944 22.7346 18.3504 22.7835 18.2957 22.8177C18.2411 22.8519 18.1779 22.8701 18.1134 22.8701C18.0137 22.8549 17.9235 22.8022 17.8614 22.7228C17.7993 22.6434 17.7698 22.5432 17.779 22.4428Z" fill="#693718"/>
      <path d="M17.8882 22.4427C17.8986 22.401 17.9205 22.363 17.9514 22.3331C17.9823 22.3032 18.0209 22.2826 18.0629 22.2736C18.105 22.2646 18.1487 22.2676 18.1891 22.2823C18.2295 22.2969 18.265 22.3226 18.2915 22.3564C18.318 22.3902 18.3345 22.4308 18.3391 22.4735C18.3437 22.5162 18.3362 22.5594 18.3175 22.5981C18.2988 22.6367 18.2696 22.6694 18.2332 22.6923C18.1968 22.7152 18.1548 22.7274 18.1118 22.7276C18.0447 22.7187 17.9838 22.6839 17.942 22.6306C17.9002 22.5774 17.8809 22.5099 17.8882 22.4427Z" fill="#693718"/>
      <path d="M18.0001 22.4411C17.9955 22.424 17.9949 22.4062 17.9983 22.3889C18.0017 22.3715 18.0091 22.3552 18.0198 22.3412C18.0305 22.3272 18.0444 22.3158 18.0602 22.308C18.076 22.3002 18.0934 22.2961 18.1111 22.2961C18.1288 22.2961 18.1462 22.3002 18.162 22.308C18.1778 22.3158 18.1917 22.3272 18.2024 22.3412C18.2131 22.3552 18.2205 22.3715 18.2239 22.3889C18.2274 22.4062 18.2267 22.424 18.2222 22.4411C18.2261 22.4749 18.2167 22.509 18.196 22.536C18.1753 22.563 18.1448 22.5809 18.1111 22.5859C18.0943 22.5837 18.0781 22.5782 18.0634 22.5697C18.0487 22.5612 18.0359 22.5499 18.0256 22.5365C18.0153 22.5231 18.0077 22.5077 18.0033 22.4913C17.9989 22.475 17.9978 22.4579 18.0001 22.4411Z" fill="#693718"/>
    </g>
    <path d="M36.0414 26.2809C34.2786 26.2947 32.8324 24.5003 32.8165 22.3002C32.8007 20.1001 34.2213 18.2839 35.9821 18.272C37.7429 18.2602 39.1932 20.0527 39.209 22.2547C39.2248 24.4567 37.8043 26.271 36.0414 26.2809Z" fill="url(#paint4_linear_1054_629)"/>
    <mask id="mask1_1054_629" style="mask-type:luminance" maskUnits="userSpaceOnUse" x="32" y="18" width="8" height="9">
      <path d="M36.0528 26.1173C37.7301 26.1053 39.0774 24.3746 39.0622 22.2515C39.047 20.1285 37.675 18.4172 35.9978 18.4292C34.3206 18.4412 32.9733 20.172 32.9884 22.295C33.0036 24.418 34.3756 26.1293 36.0528 26.1173Z" fill="white"/>
    </mask>
    <g mask="url(#mask1_1054_629)">
      <path d="M39.0723 18.4202H32.9688V26.1342H39.0723V18.4202Z" fill="#4C2207"/>
      <path d="M32.7736 22.3357C32.7577 20.0426 34.1842 18.1809 35.9609 18.1591C37.7376 18.1374 39.1917 19.9971 39.2095 22.2902C39.2273 24.5832 37.7969 26.4549 36.0202 26.4687C34.2436 26.4826 32.7894 24.6307 32.7736 22.3357Z" fill="#4C2207"/>
      <path d="M36.0229 26.3215C37.7384 26.3093 39.1162 24.5039 39.1003 22.289C39.0845 20.0742 37.681 18.2887 35.9655 18.301C34.25 18.3133 32.8722 20.1187 32.8881 22.3335C32.9039 24.5483 34.3074 26.3338 36.0229 26.3215Z" fill="#4E2408"/>
      <path d="M33.0001 22.3355C32.9863 20.1988 34.3138 18.4577 35.9678 18.4459C37.6218 18.434 38.9751 20.1553 38.9889 22.292C39.0028 24.4288 37.6752 26.1698 36.0212 26.1817C34.3672 26.1936 33.0159 24.4703 33.0001 22.3355Z" fill="#502509"/>
      <path d="M33.1056 22.3337C33.0917 20.2761 34.3718 18.6003 35.9645 18.5884C37.5571 18.5766 38.861 20.2365 38.8847 22.2941C38.9084 24.3517 37.6205 26.0275 36.0278 26.0394C34.4351 26.0512 33.1214 24.3913 33.1056 22.3337Z" fill="#52260B"/>
      <path d="M33.215 22.3338C33.2011 20.3553 34.4317 18.7428 35.965 18.733C37.4984 18.7231 38.7487 20.3157 38.7626 22.2942C38.7764 24.2727 37.5458 25.8851 36.0145 25.895C34.4832 25.9049 33.2288 24.3122 33.215 22.3338Z" fill="#54280C"/>
      <path d="M33.3321 22.3317C33.3202 20.4343 34.5014 18.8852 35.9714 18.8753C37.4414 18.8654 38.6443 20.3967 38.6582 22.2941C38.672 24.1914 37.4909 25.7406 36.0209 25.7525C34.5509 25.7643 33.3499 24.231 33.3321 22.3317Z" fill="#56290D"/>
      <path d="M33.4415 22.3318C33.4277 20.5116 34.5594 19.0298 35.97 19.0179C37.3807 19.006 38.542 20.476 38.542 22.2962C38.542 24.1164 37.4222 25.5983 36.0135 25.6082C34.6049 25.6181 33.4534 24.152 33.4415 22.3318Z" fill="#582A0E"/>
      <path d="M33.5431 22.3316C33.5293 20.5905 34.6135 19.166 35.9608 19.166C37.3081 19.166 38.4121 20.5509 38.424 22.2999C38.4359 24.0489 37.3536 25.4655 36.0063 25.4655C34.659 25.4655 33.5629 24.0707 33.5431 22.3316Z" fill="#592C0F"/>
      <path d="M33.6564 22.3298C33.6445 20.6679 34.6772 19.3146 35.9652 19.3047C37.2532 19.2948 38.3038 20.6363 38.3157 22.2982C38.3275 23.9601 37.2967 25.3134 36.0068 25.3213C34.7168 25.3292 33.6682 23.9917 33.6564 22.3298Z" fill="#5B2D10"/>
      <path d="M33.7774 22.3297C33.7656 20.7469 34.7509 19.4569 35.9755 19.449C37.2002 19.4411 38.2033 20.7152 38.2152 22.298C38.227 23.8808 37.2418 25.1708 36.0171 25.1787C34.7924 25.1866 33.7873 23.9124 33.7774 22.3297Z" fill="#5C2E10"/>
      <path d="M33.879 22.3278C33.8671 20.8262 34.803 19.5995 35.9683 19.5916C37.1336 19.5837 38.0892 20.7965 38.0892 22.2981C38.0892 23.7998 37.1653 25.0265 35.9999 25.0363C34.8346 25.0462 33.8889 23.8315 33.879 22.3278Z" fill="#5E2F11"/>
      <path d="M34.0001 22.3277C33.9902 20.9032 34.8765 19.7418 35.9786 19.7359C37.0806 19.7299 37.9847 20.8755 37.9946 22.3079C38.0045 23.7403 37.1102 24.8858 36.0161 24.8858C34.9221 24.8858 34.01 23.7522 34.0001 22.3277Z" fill="#5F3012"/>
      <path d="M34.1056 22.3278C34.0957 20.9824 34.9326 19.8864 35.9752 19.8785C37.0179 19.8705 37.8686 20.9547 37.8785 22.3001C37.8884 23.6455 37.0515 24.7415 36.0088 24.7495C34.9662 24.7574 34.1154 23.6712 34.1056 22.3278Z" fill="#603013"/>
      <path d="M34.2188 22.3257C34.2188 21.0595 34.9983 20.0287 35.9776 20.0208C36.957 20.0129 37.7582 21.0358 37.7701 22.302C37.782 23.5682 36.9906 24.599 36.0112 24.6049C35.0319 24.6109 34.2286 23.5919 34.2188 22.3257Z" fill="#613113"/>
      <path d="M34.3359 22.3258C34.3359 21.1387 35.066 20.1712 35.986 20.1653C36.906 20.1594 37.6558 21.115 37.6637 22.3021C37.6716 23.4891 36.9357 24.4566 36.0157 24.4626C35.0957 24.4685 34.3359 23.5129 34.3359 22.3258Z" fill="#623214"/>
      <path d="M34.4375 22.3237C34.4375 21.2177 35.1201 20.3136 35.9768 20.3076C36.8334 20.3017 37.5358 21.194 37.5437 22.3019C37.5516 23.4099 36.8631 24.3141 36.0064 24.32C35.1497 24.3259 34.4454 23.4317 34.4375 22.3237Z" fill="#633315"/>
      <path d="M34.5508 22.3238C34.5508 21.295 35.1839 20.4561 35.9812 20.4522C36.7785 20.4482 37.4295 21.2752 37.4354 22.304C37.4413 23.3328 36.8043 24.1697 36.0069 24.1757C35.2096 24.1816 34.5587 23.3526 34.5508 22.3238Z" fill="#643315"/>
      <path d="M34.6602 22.3239C34.6602 21.3743 35.2537 20.6007 35.9798 20.5948C36.7059 20.5888 37.3172 21.3545 37.3232 22.3042C37.3291 23.2538 36.7395 24.0274 36.0035 24.0333C35.2675 24.0393 34.6681 23.2736 34.6602 22.3239Z" fill="#653416"/>
      <path d="M34.7695 22.314C34.7695 21.4435 35.3057 20.7312 35.9804 20.7312C36.655 20.7312 37.205 21.4296 37.211 22.3001C37.2169 23.1707 36.6768 23.8829 36.0021 23.8829C35.3275 23.8829 34.7774 23.1924 34.7695 22.314Z" fill="#663516"/>
      <path d="M34.8867 22.3139C34.8867 21.5225 35.3734 20.8775 35.9848 20.8736C36.5961 20.8696 37.1085 21.5225 37.1085 22.3139C37.1085 23.1053 36.6218 23.7503 36.0085 23.7542C35.3952 23.7582 34.8907 23.1053 34.8867 22.3139Z" fill="#663516"/>
      <path d="M34.9883 22.314C34.9883 21.6037 35.4255 21.022 35.9775 21.0181C36.5295 21.0141 36.9806 21.5879 36.9846 22.3001C36.9885 23.0124 36.5473 23.5941 35.9953 23.598C35.4433 23.602 34.9922 23.0322 34.9883 22.314Z" fill="#673517"/>
      <path d="M35.1055 22.3141C35.1055 21.681 35.5012 21.1646 35.9839 21.1626C36.4667 21.1606 36.8762 21.6691 36.8802 22.3022C36.8841 22.9353 36.4845 23.4497 35.9997 23.4537C35.515 23.4576 35.1094 22.9531 35.1055 22.3141Z" fill="#673617"/>
      <path d="M35.2148 22.314C35.2148 21.76 35.5551 21.3089 35.9845 21.305C36.4138 21.301 36.764 21.7481 36.7759 22.2942C36.7877 22.8403 36.4356 23.2993 36.0062 23.3032C35.5769 23.3072 35.2188 22.8739 35.2148 22.314Z" fill="#683617"/>
      <path d="M35.3242 22.3138C35.3242 21.839 35.6151 21.4532 35.9831 21.4492C36.351 21.4453 36.6518 21.8311 36.6557 22.3059C36.6597 22.7808 36.3629 23.1666 35.9949 23.1685C35.6269 23.1705 35.3242 22.7926 35.3242 22.3138Z" fill="#683618"/>
      <path d="M35.4414 22.3139C35.4414 21.9182 35.6848 21.5957 35.9914 21.5938C36.2981 21.5918 36.5474 21.9103 36.5513 22.306C36.5553 22.7017 36.308 23.0242 36.0013 23.0262C35.6946 23.0282 35.4434 22.7096 35.4414 22.3139Z" fill="#693718"/>
      <path d="M35.5469 22.314C35.5469 21.9995 35.7447 21.7403 35.9861 21.7383C36.2275 21.7363 36.4332 21.9915 36.4352 22.3081C36.4372 22.6246 36.2374 22.8838 35.994 22.8858C35.7507 22.8878 35.5489 22.6326 35.5469 22.314Z" fill="#693718"/>
      <path d="M35.654 22.3139C35.6695 22.2514 35.7023 22.1945 35.7486 22.1497C35.7949 22.1049 35.8528 22.0739 35.9158 22.0604C35.9788 22.0469 36.0443 22.0513 36.1049 22.0732C36.1655 22.095 36.2187 22.1335 36.2586 22.1841C36.2984 22.2347 36.3232 22.2955 36.3303 22.3595C36.3373 22.4236 36.3262 22.4883 36.2982 22.5463C36.2703 22.6044 36.2266 22.6534 36.1722 22.6879C36.1177 22.7223 36.0547 22.7408 35.9903 22.7412C35.8903 22.7265 35.7996 22.674 35.7371 22.5945C35.6745 22.515 35.6448 22.4146 35.654 22.3139Z" fill="#693718"/>
      <path d="M35.7751 22.314C35.7676 22.2468 35.7862 22.1794 35.8271 22.1256C35.868 22.0718 35.928 22.0359 35.9947 22.0251C36.0545 22.009 36.1178 22.012 36.1758 22.0337C36.2338 22.0554 36.2836 22.0947 36.3181 22.1461C36.3527 22.1975 36.3703 22.2584 36.3685 22.3203C36.3667 22.3822 36.3455 22.442 36.3081 22.4913C36.2706 22.5406 36.2186 22.5769 36.1595 22.5952C36.1003 22.6135 36.0369 22.6128 35.9781 22.5933C35.9194 22.5737 35.8682 22.5363 35.8318 22.4862C35.7954 22.4361 35.7755 22.3759 35.7751 22.314Z" fill="#693718"/>
      <path d="M35.8829 22.3144C35.8783 22.2973 35.8777 22.2795 35.8811 22.2621C35.8845 22.2448 35.8919 22.2285 35.9026 22.2145C35.9134 22.2005 35.9272 22.1891 35.943 22.1813C35.9588 22.1735 35.9763 22.1694 35.9939 22.1694C36.0116 22.1694 36.029 22.1735 36.0448 22.1813C36.0607 22.1891 36.0745 22.2005 36.0852 22.2145C36.096 22.2285 36.1033 22.2448 36.1067 22.2621C36.1102 22.2795 36.1096 22.2973 36.105 22.3144C36.1089 22.3477 36.0998 22.3812 36.0794 22.4079C36.059 22.4346 36.0291 22.4522 35.9959 22.4572C35.9344 22.4591 35.8849 22.3937 35.8829 22.3144Z" fill="#693718"/>
    </g>
  </g>
  <defs>
    <radialGradient id="paint0_radial_1054_629" cx="0" cy="0" r="1" gradientUnits="userSpaceOnUse" gradientTransform="translate(31.4648 19.8028) rotate(179.594) scale(33.1323)">
      <stop stop-color="#FFEF99"/>
      <stop offset="0.52" stop-color="#FFD71B"/>
      <stop offset="1" stop-color="#E69900"/>
    </radialGradient>
    <linearGradient id="paint1_linear_1054_629" x1="27.1274" y1="38.9353" x2="27.1274" y2="30.5011" gradientUnits="userSpaceOnUse">
      <stop stop-color="#FFD71B"/>
      <stop offset="1" stop-color="#E69900"/>
    </linearGradient>
    <radialGradient id="paint2_radial_1054_629" cx="0" cy="0" r="1" gradientUnits="userSpaceOnUse" gradientTransform="translate(27.1266 34.5509) rotate(180) scale(7.85454)">
      <stop stop-color="#693718"/>
      <stop offset="0.38" stop-color="#653416"/>
      <stop offset="0.73" stop-color="#5A2C0F"/>
      <stop offset="1" stop-color="#4C2207"/>
    </radialGradient>
    <linearGradient id="paint3_linear_1054_629" x1="18.1197" y1="18.3976" x2="18.177" y2="26.4063" gradientUnits="userSpaceOnUse">
      <stop stop-color="#FFD71B"/>
      <stop offset="1" stop-color="#E69900"/>
    </linearGradient>
    <linearGradient id="paint4_linear_1054_629" x1="35.9845" y1="18.2697" x2="36.0418" y2="26.2783" gradientUnits="userSpaceOnUse">
      <stop stop-color="#FFD71B"/>
      <stop offset="1" stop-color="#E69900"/>
    </linearGradient>
    <clipPath id="clip0_1054_629">
      <rect width="53.6562" height="53.6562" fill="white" transform="translate(0.296875 0.155273)"/>
    </clipPath>
  </defs>
</svg>