<svg xmlns="http://www.w3.org/2000/svg" width="37" height="36" viewBox="0 0 37 36" fill="none">
  <path d="M37.0001 14.9817C36.7501 15.9059 36.3845 16.7657 35.6688 17.4409C34.8149 18.2459 33.817 18.6853 32.6345 18.6853C31.3376 18.6853 30.0408 18.6853 28.7439 18.6853C28.5891 18.6853 28.4343 18.6853 28.2223 18.6853C28.2223 18.9152 28.2235 19.0997 28.2223 19.2843C28.2116 20.6288 28.2414 21.9757 28.1818 23.3178C28.0759 25.6935 26.1598 27.4834 23.7578 27.4989C22.2549 27.5084 20.7533 27.5001 19.2504 27.5012C19.0789 27.5012 18.9074 27.5012 18.6693 27.5012C18.6693 27.8442 18.674 28.155 18.6693 28.4646C18.6502 29.54 18.699 30.6213 18.593 31.6883C18.3799 33.8414 16.4971 35.4991 14.3298 35.5074C11.1978 35.5181 8.06467 35.4395 4.93628 35.5336C2.53432 35.605 0.230009 33.8438 0.210955 31.0929C0.188328 27.818 0.156175 24.5408 0.247871 21.2671C0.31575 18.8508 2.23541 17.105 4.65405 17.0765C6.18787 17.0586 7.7217 17.0729 9.25672 17.0729C9.41034 17.0729 9.56515 17.0729 9.76521 17.0729C9.76521 15.8785 9.74973 14.7269 9.76879 13.5765C9.79975 11.6795 10.6393 10.2528 12.378 9.46688C12.9627 9.20251 13.6534 9.09772 14.3024 9.06556C15.5325 9.00483 16.7687 9.0477 18.0024 9.0477C18.1727 9.0477 18.3442 9.0477 18.5752 9.0477C18.5752 8.63566 18.5752 8.27602 18.5752 7.91638C18.5752 6.83985 18.5716 5.7645 18.5752 4.68797C18.5835 2.19907 20.5187 0.265118 22.9992 0.262736C26.1621 0.261545 29.3251 0.262736 32.488 0.262736C34.6923 0.262736 36.3869 1.60245 36.9108 3.75552C36.9287 3.82817 36.9692 3.89605 37.0001 3.96631V14.9817ZM10.9835 18.228C10.9835 19.7785 10.9811 21.3302 10.9835 22.8807C10.987 24.9135 12.3422 26.2782 14.3691 26.2806C17.4534 26.2842 20.5377 26.2842 23.6209 26.2806C25.6179 26.2782 26.9862 24.9064 26.9862 22.9105C26.9874 19.8083 26.9874 16.7061 26.9862 13.6051C26.9862 11.6378 25.6108 10.2528 23.6518 10.2505C20.552 10.2469 17.4522 10.2469 14.3524 10.2505C12.3649 10.2528 10.987 11.6331 10.9823 13.623C10.9787 15.158 10.9823 16.693 10.9823 18.228H10.9835ZM27.7722 5.57635C28.0104 5.40248 28.1949 5.25243 28.395 5.12501C30.4087 3.83769 33.1954 5.00116 33.6395 7.34001C33.9051 8.73927 33.5848 10.0135 32.6035 11.0793C31.5401 12.2344 30.2254 13.0621 28.8725 13.8171C28.3533 14.1065 28.1771 14.4292 28.2116 15.002C28.2604 15.8153 28.2235 16.6347 28.2235 17.4647C29.8264 17.4647 31.359 17.5183 32.8857 17.4504C34.4958 17.3789 35.7748 15.9761 35.7795 14.3696C35.7902 11.1103 35.7914 7.8497 35.7795 4.59032C35.7736 2.91121 34.3743 1.49647 32.6952 1.48813C29.4215 1.47146 26.1479 1.47027 22.8742 1.48813C21.3034 1.49647 19.9185 2.73972 19.828 4.31404C19.7398 5.8431 19.8006 7.3805 19.7994 8.91432C19.7994 8.94052 19.828 8.96672 19.8506 9.00483H21.9144C21.6964 7.30786 22.0715 5.89073 23.6494 5.05237C25.1225 4.26998 26.5123 4.45575 27.7722 5.57754V5.57635ZM9.74973 18.3054C8.01941 18.3054 6.33078 18.3042 4.64214 18.3054C2.86419 18.3078 1.43158 19.6928 1.42087 21.4779C1.40181 24.6896 1.403 27.9026 1.42087 31.1143C1.43039 32.8613 2.79393 34.276 4.53854 34.2939C7.79553 34.3272 11.0537 34.3249 14.3107 34.2951C16.0756 34.2796 17.4284 32.8458 17.4355 31.0762C17.4403 30.0318 17.4379 28.9874 17.4355 27.9431C17.4355 27.8061 17.4189 27.6692 17.4081 27.5251H14.9895C14.9812 27.6549 14.9716 27.762 14.9693 27.8692C14.9431 29.1458 14.2202 29.9282 12.9567 29.8508C11.9826 29.7913 11.2002 30.0342 10.5464 30.7404C10.5035 30.7856 10.4464 30.8178 10.3976 30.8583C9.45559 31.6347 9.40796 31.7205 8.46718 30.8428C7.68359 30.1116 6.84999 29.771 5.7544 29.8484C4.64571 29.9258 3.90143 29.0827 3.89904 27.9633C3.89547 26.333 3.89666 24.7039 3.89904 23.0736C3.90023 21.8899 4.62309 21.1552 5.81752 21.1397C6.74996 21.1278 7.68359 21.1373 8.61603 21.1373C8.98877 21.1373 9.3627 21.1373 9.74973 21.1373V18.3042V18.3054ZM13.7189 27.4989C10.9203 26.9046 9.68066 25.1338 9.74497 22.3496C8.37905 22.3496 7.05363 22.3389 5.7282 22.3567C5.31855 22.3627 5.11253 22.6152 5.11372 23.0403C5.11967 24.6849 5.11372 26.3282 5.11848 27.9728C5.11967 28.4111 5.34475 28.6373 5.79013 28.6516C6.24742 28.6659 6.71066 28.6159 7.16319 28.6695C7.47162 28.7064 7.8003 28.8183 8.05633 28.991C8.53744 29.3137 8.9721 29.7043 9.43177 30.0711C9.64375 29.9032 9.85096 29.777 10.0105 29.6055C10.7536 28.8112 11.6444 28.5373 12.7293 28.6385C13.651 28.7243 13.8177 28.4718 13.7189 27.5001V27.4989ZM28.2628 12.7977C28.8166 12.4416 29.3846 12.0999 29.9264 11.7212C30.404 11.3865 30.8851 11.0448 31.3031 10.6411C31.6603 10.2957 32.0045 9.89678 32.2248 9.45616C32.9667 7.96997 32.3701 6.43496 30.9125 5.92289C29.9312 5.57873 29.1607 5.9348 28.476 6.62073C27.8937 7.20425 27.6972 7.20306 27.1196 6.62907C26.2253 5.74188 25.3643 5.56444 24.3318 6.05626C23.3839 6.5076 22.9504 7.37812 23.0695 8.53087C23.1088 8.90718 23.2291 9.06318 23.6506 9.05723C25.3464 9.02984 26.6802 9.74078 27.5685 11.1901C27.8603 11.6652 28.0187 12.2225 28.2616 12.7977H28.2628Z" fill="#4E5356"/>
  <path d="M13.0869 18.2672C13.0869 17.3335 13.0869 16.3999 13.0869 15.4663C13.0869 13.6478 14.2587 12.3831 16.0629 12.3486C18.023 12.3105 19.9856 12.3057 21.9445 12.3498C23.7213 12.3903 24.8979 13.6609 24.9014 15.4472C24.905 17.3466 24.9062 19.2449 24.9014 21.1443C24.8955 22.9056 23.651 24.1762 21.8945 24.1893C19.9653 24.2048 18.0361 24.2036 16.1069 24.1893C14.3159 24.1762 13.0881 22.9127 13.0881 21.1157C13.0881 20.1666 13.0881 19.2163 13.0881 18.2672H13.0869ZM19.0043 22.9722C19.9689 22.9722 20.9323 22.9865 21.8969 22.9687C22.9782 22.9484 23.6951 22.2089 23.6987 21.1252C23.7046 19.227 23.7034 17.33 23.6987 15.4317C23.6963 14.3028 22.9603 13.5633 21.8266 13.5585C19.9296 13.5514 18.0337 13.5502 16.1367 13.5585C15.0209 13.5633 14.3075 14.2909 14.3064 15.4067C14.304 17.2883 14.3052 19.171 14.3064 21.0526C14.3064 22.2708 14.9851 22.9603 16.2082 22.9711C17.1406 22.9794 18.073 22.9722 19.0055 22.9711L19.0043 22.9722Z" fill="#9D4F2A"/>
  <path d="M21.4542 18.2589C21.4566 19.6498 20.3837 20.7275 18.9987 20.7275C17.6066 20.7275 16.5229 19.6534 16.5205 18.2755C16.5181 16.9072 17.6125 15.8045 18.9832 15.7938C20.3467 15.7831 21.453 16.887 21.4554 18.26L21.4542 18.2589ZM20.2479 18.2684C20.2479 17.5813 19.6549 16.9858 18.9808 16.9977C18.2949 17.0108 17.728 17.5991 17.7376 18.2898C17.7471 18.9627 18.3044 19.52 18.9784 19.5295C19.6632 19.539 20.2479 18.9591 20.2491 18.2684H20.2479Z" fill="#9D4F2A"/>
  <path d="M21.6987 14.9341C22.081 14.9495 22.3167 15.1365 22.3239 15.5128C22.331 15.8808 22.1203 16.119 21.7439 16.1261C21.3784 16.1332 21.1485 15.9427 21.139 15.5497C21.1295 15.1603 21.3355 14.971 21.6987 14.9329V14.9341Z" fill="#9D4F2A"/>
</svg>