<svg xmlns="http://www.w3.org/2000/svg" width="41" height="34" viewBox="0 0 41 34" fill="none">
  <path d="M37.3402 0.450684H4.01082C2.09424 0.452481 0.540858 2.00586 0.539062 3.92244V22.899C0.54086 24.8156 2.09424 26.369 4.01082 26.3708H8.17117L4.99251 29.6861C4.01625 30.6983 4.04681 32.311 5.06083 33.2873C6.07304 34.2636 7.68575 34.233 8.66201 33.219L15.4564 26.1604C15.6416 25.9572 15.6901 25.6642 15.5805 25.4107C15.4726 25.159 15.2281 24.9918 14.9548 24.9828H4.01113C2.86047 24.981 1.92918 24.0497 1.92738 22.899V21.5938H27.4448C27.8241 21.5884 28.128 21.2791 28.128 20.8998C28.128 20.5204 27.8241 20.2112 27.4448 20.204H1.92738V3.92224C1.92918 2.77338 2.86047 1.84029 4.01113 1.84029H37.3405C38.4912 1.84029 39.4225 2.77338 39.4243 3.92224V20.2059C37.2218 20.2059 32.3045 20.2076 30.0607 20.2059V20.2041C29.8755 20.2041 29.6993 20.2778 29.5699 20.409C29.4386 20.5385 29.3667 20.7147 29.3667 20.8998V24.9829H17.7253C17.346 24.9883 17.0421 25.2975 17.0421 25.6768C17.0421 26.0562 17.346 26.3654 17.7253 26.3708C18.3132 26.378 31.0458 26.3654 31.2547 26.3708L35.3557 30.6462V30.648C35.789 31.1101 35.7711 31.8329 35.3162 32.2715C34.8613 32.712 34.1368 32.7048 33.6909 32.2571L28.9659 27.3508V27.349C28.698 27.0811 28.2647 27.0775 27.9932 27.34C27.7199 27.6025 27.7073 28.0339 27.9644 28.3126L32.6895 33.219C33.6675 34.2259 35.2731 34.251 36.2835 33.2784C37.2939 32.3057 37.3262 30.7002 36.359 29.6862L33.1803 26.3708H37.3407C39.2573 26.369 40.8106 24.8157 40.8124 22.8991V3.92249C40.8106 2.00591 39.2568 0.452479 37.3402 0.450684ZM13.3274 26.3708L7.66208 32.2552V32.257C7.2144 32.7047 6.49163 32.7119 6.03496 32.2732C5.58009 31.8327 5.56213 31.11 5.9954 30.6479L10.0964 26.3725L13.3274 26.3708ZM34.9183 24.9828H30.7544V21.5938H34.9183V24.9828ZM39.4239 22.8991C39.4221 24.0497 38.4908 24.981 37.3401 24.9828H36.3063V21.5938H39.4239V22.8991Z" fill="#4E5356"/>
  <path d="M22.5356 23.9834C22.9149 23.978 23.2188 23.6688 23.2188 23.2894C23.2188 22.9101 22.9149 22.6008 22.5356 22.5955H18.8481C18.4687 22.6009 18.1631 22.9101 18.1631 23.2894C18.1631 23.6688 18.4687 23.978 18.8481 23.9834H22.5356Z" fill="#9D4F2A"/>
  <path d="M11.4615 4.32523C11.332 4.19399 11.1559 4.12207 10.9707 4.12207C10.7873 4.12207 10.6111 4.19399 10.4798 4.32523L3.84379 10.9613C3.71434 11.0907 3.64062 11.2669 3.64062 11.4521C3.64062 11.6355 3.71254 11.8135 3.84379 11.9429C3.97324 12.0742 4.15123 12.1461 4.33461 12.1461C4.51979 12.1461 4.69599 12.0724 4.82544 11.9429L11.4615 5.30688C11.5927 5.17743 11.6665 4.99944 11.6665 4.81606C11.6665 4.63267 11.5927 4.45468 11.4615 4.32523Z" fill="#9D4F2A"/>
  <path d="M5.54892 16.813C5.7305 16.813 5.9067 16.7429 6.03615 16.6134L16.1978 6.58292C16.4711 6.31323 16.4747 5.87453 16.205 5.60127C15.9353 5.32799 15.4948 5.3244 15.2234 5.59408L5.05985 15.6246C4.86568 15.8241 4.80635 16.1208 4.91243 16.3797C5.0185 16.6386 5.26845 16.8094 5.54892 16.813Z" fill="#9D4F2A"/>
</svg>