<svg width="36" height="36" viewBox="0 0 36 36" fill="none" xmlns="http://www.w3.org/2000/svg">
<path d="M30.3753 11.252C33.3575 11.252 35.7975 13.5728 35.9881 16.5069L36 16.8767V30.3753C36 33.3575 33.6792 35.7975 30.7452 35.9881L30.3753 36H16.8767C13.8945 36 11.4544 33.6792 11.2639 30.7452L11.252 30.3753V16.8767C11.252 13.8945 13.5728 11.4544 16.5069 11.2639L16.8767 11.252H30.3753ZM30.3753 13.5019H16.8767C15.1224 13.5019 13.6808 14.8403 13.5173 16.5517L13.5019 16.8767V30.3753C13.5019 32.1295 14.8403 33.5712 16.5517 33.7346L16.8767 33.7501H30.3753C32.1295 33.7501 33.571 32.4117 33.7346 30.7004L33.7501 30.3753V16.8767C33.7501 15.1225 32.4117 13.6808 30.7002 13.5173L30.3753 13.5019ZM23.6259 15.7518C24.1782 15.7518 24.6376 16.1497 24.7328 16.6745L24.7508 16.8767L24.7488 22.5011L30.376 22.5013C30.9974 22.5013 31.5009 23.0051 31.5009 23.6263C31.5009 24.1786 31.1029 24.6378 30.5782 24.7332L30.376 24.7512L24.7488 24.751L24.7508 30.376C24.7508 30.9974 24.2473 31.5009 23.6259 31.5009C23.0737 31.5009 22.6143 31.1031 22.5191 30.5782L22.5009 30.376L22.4989 24.751L16.8767 24.7512C16.2554 24.7512 15.7517 24.2477 15.7517 23.6263C15.7517 23.0742 16.1497 22.6147 16.6745 22.5196L16.8767 22.5013L22.4989 22.5011L22.5009 16.8767C22.5009 16.2554 23.0047 15.7518 23.6259 15.7518ZM23.9906 3.81621L24.0979 4.17032L25.3922 9.0018H23.0614L21.9245 4.75264C21.4705 3.05818 19.8047 2.01209 18.1091 2.29709L17.7913 2.36627L4.75263 5.85996C3.05818 6.31399 2.01209 7.97994 2.29706 9.67535L2.36627 9.99328L5.85996 23.0319C6.25353 24.5008 7.55777 25.4825 9.00244 25.5322L9.00271 27.7834C6.69217 27.7364 4.58349 26.2575 3.80413 23.998L3.68675 23.6141L0.193062 10.5756C-0.578806 7.69502 1.03141 4.73736 3.81619 3.79403L4.17032 3.68675L17.2089 0.193057C19.9696 -0.546639 22.8008 0.901367 23.8623 3.47432L23.9906 3.81621Z" fill="#4E5356"/>
<path d="M23.5 16V31.5" stroke="#9D4F2A" stroke-width="2" stroke-linecap="round"/>
<path d="M15.75 23.75L31.25 23.75" stroke="#9D4F2A" stroke-width="2" stroke-linecap="round"/>
</svg>
