<svg width="44" height="36" viewBox="0 0 44 36" fill="none" xmlns="http://www.w3.org/2000/svg">
<path d="M33.9956 26.2157C33.9956 25.7937 33.7853 25.4106 33.4289 25.2065C33.0725 25 32.6519 24.9954 32.3022 25.2065L19.3663 33.0096C17.9053 33.8904 16.0858 33.8904 14.6292 33.0096L1.78851 25.2294C1.54502 25.0826 1.28382 25 1.04034 25C0.892028 25 0.757002 25.0298 0.633043 25.0826C0.252309 25.2477 0.095149 25.617 0.0331667 25.8922C-0.0863666 26.4037 0.123924 26.9198 0.555567 27.1836L13.4694 35.0237C15.6121 36.3219 18.3769 36.3266 20.5193 35.0306L33.44 27.2204C33.7853 27.014 34 26.6264 34 26.2112L33.9956 26.2157Z" fill="#4E5356"/>
<path d="M2.3245 16.9875L13.4092 23.0989C15.592 24.3004 18.4079 24.3004 20.5908 23.0989L31.6755 16.9875C33.11 16.1986 34 14.6662 34 13C34 11.3338 33.1101 9.80141 31.6755 9.01251L20.5908 2.90109C18.408 1.69964 15.5921 1.69964 13.4092 2.90109L2.3245 9.01251C0.889994 9.80141 0 11.3338 0 13C0 14.6662 0.889937 16.1986 2.3245 16.9875ZM3.40039 11.0548L14.4851 4.94338C16.037 4.09099 17.9651 4.09099 19.517 4.94338L30.6017 11.0548C31.2991 11.4379 31.7352 12.186 31.7352 12.9998C31.7352 13.8114 31.2991 14.5549 30.6017 14.9448L19.517 21.0563C18.7466 21.4802 17.8744 21.7069 16.9999 21.7069C16.1277 21.7069 15.2555 21.4802 14.4829 21.0563L3.39818 14.9448C2.70081 14.5617 2.26471 13.8137 2.26471 12.9998C2.26471 12.1883 2.70083 11.4447 3.39818 11.0548H3.40039Z" fill="#4E5356"/>
<circle cx="34" cy="10" r="9" fill="white" stroke="#4E5356" stroke-width="2"/>
<path d="M38.5674 6.24628C38.239 5.91791 37.707 5.91791 37.3787 6.24628L34.4068 9.21811L31.435 6.24628C31.1066 5.91791 30.5747 5.91791 30.2463 6.24628C29.9179 6.57466 29.9179 7.10663 30.2463 7.43501L33.2181 10.4068L30.2463 13.3787C29.9179 13.707 29.9179 14.239 30.2463 14.5674C30.5747 14.8958 31.1066 14.8958 31.435 14.5674L34.4068 11.5956L37.3787 14.5674C37.5429 14.7316 37.7579 14.8137 37.973 14.8137C38.6906 14.8378 39.1045 13.879 38.5674 13.3787C38.5674 13.3787 35.5956 10.4068 35.5956 10.4068L38.5674 7.43502C38.8958 7.10664 38.8958 6.57466 38.5674 6.24628Z" fill="#9D4F2A"/>
</svg>
