<svg width="34" height="42" viewBox="0 0 34 42" fill="none" xmlns="http://www.w3.org/2000/svg">
<path d="M17.7946 0.3675C17.4146 -0.1225 16.5846 -0.1225 16.2046 0.3675L0.20458 21.2975C-0.0254196 21.5975 -0.0654195 22.0075 0.10458 22.3475C0.27458 22.6875 0.624581 22.9075 1.00458 22.9075H6.00458V40.9775C6.00458 41.5275 6.45458 41.9775 7.00458 41.9775H27.0046C27.5546 41.9775 28.0046 41.5275 28.0046 40.9775V22.9075H33.0046C33.3846 22.9075 33.7346 22.6875 33.9046 22.3475C34.0746 22.0075 34.0346 21.5975 33.8046 21.2975L17.7946 0.3675ZM27.0046 20.9075C26.4546 20.9075 26.0046 21.3575 26.0046 21.9075V39.9775H8.00458V21.9075C8.00458 21.3575 7.55458 20.9075 7.00458 20.9075H3.02458L17.0046 2.6275L30.9846 20.9075H27.0046Z" fill="#4E5356"/>
<path d="M21.1647 21.8081C21.3863 21.8081 21.5987 21.7128 21.7554 21.5433C21.912 21.3737 22 21.1438 22 20.904C22 20.6643 21.912 20.4343 21.7554 20.2648C21.5987 20.0952 21.3863 20 21.1647 20H13.8353C13.6137 20 13.4013 20.0952 13.2446 20.2648C13.088 20.4343 13 20.6643 13 20.904C13 21.1438 13.088 21.3737 13.2446 21.5433C13.4013 21.7128 13.6137 21.8081 13.8353 21.8081H15.9326C16.3957 21.8118 16.8473 21.9641 17.2304 22.2458C17.6135 22.5274 17.9108 22.9256 18.0847 23.3901H13.8353C13.6137 23.3901 13.4013 23.4854 13.2446 23.6549C13.088 23.8245 13 24.0544 13 24.2942C13 24.5339 13.088 24.7639 13.2446 24.9334C13.4013 25.103 13.6137 25.1982 13.8353 25.1982H18.0847C17.7491 26.2153 16.9111 26.7803 15.9322 26.7803H13.8353C13.6666 26.7854 13.503 26.8442 13.365 26.9494C13.227 27.0546 13.1208 27.2015 13.0595 27.3717C12.9983 27.5419 12.9848 27.7279 13.0208 27.9064C13.0567 28.0849 13.1405 28.2479 13.2616 28.3751L18.5036 33.7421C18.5826 33.8259 18.6762 33.8918 18.779 33.9361C18.8818 33.9804 18.9918 34.002 19.1024 33.9998C19.213 33.9977 19.3221 33.9717 19.4234 33.9234C19.5246 33.8751 19.616 33.8055 19.6921 33.7186C19.7682 33.6317 19.8276 33.5293 19.8668 33.4173C19.906 33.3053 19.9242 33.186 19.9204 33.0663C19.9165 32.9466 19.8907 32.829 19.8444 32.7202C19.7982 32.6115 19.7323 32.5137 19.6508 32.4328L15.9351 28.6172C16.8452 28.6081 17.7255 28.2649 18.4319 27.6438C19.1383 27.0227 19.6289 26.1605 19.8236 25.1982H21.1647C21.3863 25.1982 21.5987 25.103 21.7554 24.9334C21.912 24.7639 22 24.5339 22 24.2942C22 24.0544 21.912 23.8245 21.7554 23.6549C21.5987 23.4854 21.3863 23.3901 21.1647 23.3901H19.8236C19.7091 22.8197 19.4867 22.281 19.1705 21.8081H21.1647Z" fill="#9D4F2A"/>
</svg>
