<svg width="46" height="43" viewBox="0 0 46 43" fill="none" xmlns="http://www.w3.org/2000/svg">
<path d="M22.0967 32.016C22.5074 32.6955 23.2466 33.1136 24.038 33.1136C24.6652 33.1136 25.27 32.8523 25.703 32.3893C26.1286 31.9264 26.3526 31.3067 26.3004 30.6795L26.0689 27.4913H28.5627C29.6752 27.4913 30.7429 27.0209 31.4971 26.2071C32.2512 25.3857 32.632 24.2807 32.5424 23.1757L32.1018 17.7176C31.9227 15.5225 29.9888 13.8798 27.8011 14.059L17.9304 14.8505C17.6093 14.4697 17.1315 14.2233 16.5939 14.2233H15.1976C14.227 14.2233 13.4355 15.0147 13.4355 15.9854V24.7959C13.4355 25.7665 14.227 26.558 15.1976 26.558H16.5939C16.9896 26.558 17.3555 26.4236 17.6467 26.1996C18.7965 27.0881 19.7672 28.1558 20.5213 29.4102L22.0967 32.016ZM16.8627 24.7959C16.8627 24.9452 16.7432 25.0647 16.5939 25.0647H15.1976C15.0483 25.0647 14.9289 24.9452 14.9289 24.7959V15.9854C14.9289 15.8361 15.0483 15.7166 15.1976 15.7166H16.5939C16.7432 15.7166 16.8627 15.8361 16.8627 15.9854V24.7959ZM18.3485 24.8556C18.3485 24.8332 18.356 24.8183 18.356 24.7959V16.3139L27.9206 15.5449C29.2944 15.4403 30.4965 16.4632 30.6085 17.8371L31.0491 23.2951C31.1088 23.997 30.8773 24.6764 30.392 25.1991C29.9142 25.7143 29.2646 26.0055 28.5553 26.0055H25.255C25.046 26.0055 24.8519 26.0951 24.71 26.2444C24.5681 26.3937 24.4935 26.6028 24.5159 26.8044L24.8071 30.799C24.822 31.0155 24.7473 31.2246 24.598 31.3888C24.262 31.7472 23.6124 31.68 23.366 31.2619L21.7906 28.6486C20.9021 27.1478 19.7373 25.886 18.3485 24.8556Z" fill="#9D4F2A"/>
<path d="M39.5544 15.8658H38.5763C38.188 7.60787 31.3562 1 23.0011 1C14.6461 1 7.81422 7.60787 7.42596 15.8658H6.44785C3.22231 15.8658 0.601562 18.4866 0.601562 21.7121C0.601562 24.9377 3.22231 27.5584 6.44785 27.5584H8.13528C8.54594 27.5584 8.88194 27.2224 8.88194 26.8118V16.6125C8.88194 8.82491 15.2135 2.4933 23.0011 2.4933C30.7887 2.4933 37.1203 8.82491 37.1203 16.6125V26.8043V33.1732C37.1203 36.0553 34.7758 38.3998 31.8938 38.3998H26.0101C25.6741 37.0409 24.4571 36.0329 22.9937 36.0329C21.2764 36.0329 19.8801 37.4292 19.8801 39.1465C19.8801 40.8638 21.2764 42.26 22.9937 42.26C24.4496 42.26 25.6741 41.2446 26.0101 39.8931H31.8938C35.5972 39.8931 38.6136 36.8766 38.6136 33.1732V27.551H39.5544C42.7725 27.551 45.4007 24.9302 45.4007 21.7047C45.4007 18.4791 42.7799 15.8658 39.5544 15.8658ZM7.38863 26.0576H6.44785C4.04363 26.0576 2.09487 24.1089 2.09487 21.7121C2.09487 19.3154 4.04363 17.3591 6.44785 17.3591H7.38863V26.0576ZM23.0011 40.7667C22.1051 40.7667 21.3809 40.0424 21.3809 39.1465C21.3809 38.2505 22.1051 37.5262 23.0011 37.5262C23.8971 37.5262 24.6214 38.2505 24.6214 39.1465C24.6214 40.0424 23.8971 40.7667 23.0011 40.7667ZM39.5544 26.0576H38.6136V17.3591H39.5544C41.9512 17.3591 43.9074 19.3079 43.9074 21.7121C43.9074 24.1089 41.9586 26.0576 39.5544 26.0576Z" fill="#4E5356" stroke="#4E5356" stroke-width="0.5"/>
</svg>
