<svg width="48" height="43" viewBox="0 0 48 43" fill="none" xmlns="http://www.w3.org/2000/svg">
<path d="M37.1284 21.1432C30.0053 21.0298 24.5632 28.2525 26.6245 35.0553C26.6245 35.0552 19.4748 39.1826 19.4748 39.1826V21.7075L34.6065 12.9713V17.8816C34.6184 18.9845 36.2734 18.9864 36.2878 17.8815C36.2878 17.8816 36.2878 11.5176 36.2878 11.5176C36.2821 11.4687 36.2762 11.4205 36.2684 11.3716C36.236 11.123 36.071 10.9244 35.8674 10.7894C35.8674 10.7894 19.0544 1.08006 19.0544 1.08006C18.7865 0.952603 18.4817 0.947164 18.2138 1.0801C18.2138 1.08006 1.40079 10.7869 1.40079 10.7869C1.15311 10.9554 0.994071 11.2148 0.980502 11.5176C0.980469 11.5176 0.980469 30.928 0.980469 30.928C0.980469 31.2285 1.14055 31.506 1.40079 31.6562L18.2138 41.3664C18.4809 41.5054 18.7875 41.512 19.0544 41.3664C19.0544 41.3664 27.2201 36.6529 27.2201 36.6529C28.9572 40.3938 32.7398 43.0001 37.1284 43.0001C51.6207 42.4013 51.6282 21.7448 37.1284 21.1432ZM10.2276 7.63257L25.359 16.3686L18.6341 20.2511L3.50275 11.5151L10.2276 7.63257ZM18.6341 2.77912L33.7638 11.5162L27.0406 15.3977L11.9092 6.66169L18.6341 2.77912ZM2.66179 12.9713L17.7935 21.7075V39.1823L2.66179 30.4429V12.9713ZM37.1284 41.3188C32.0295 41.3188 27.8813 37.1706 27.8813 32.0717C28.3892 19.804 45.8695 19.8076 46.3756 32.0717C46.3756 37.1706 42.2273 41.3188 37.1284 41.3188Z" fill="#4E5356"/>
<path d="M41.2881 27.9111C40.9597 27.5827 40.4277 27.5827 40.0994 27.9111L37.1275 30.8829L34.1557 27.9111C33.8273 27.5827 33.2954 27.5827 32.967 27.9111C32.6386 28.2395 32.6386 28.7714 32.967 29.0998L35.9388 32.0716L32.967 35.0435C32.6386 35.3718 32.6386 35.9038 32.967 36.2322C33.2954 36.5606 33.8273 36.5606 34.1557 36.2322L37.1275 33.2604L40.0994 36.2322C40.2636 36.3964 40.4787 36.4785 40.6937 36.4785C41.4114 36.5026 41.8252 35.5438 41.2881 35.0435C41.2881 35.0435 38.3163 32.0716 38.3163 32.0716L41.2881 29.0998C41.6165 28.7714 41.6165 28.2395 41.2881 27.9111Z" fill="#9D4F2A"/>
</svg>
